<?xml version="1.0" encoding="utf-8"?>
<!-- Generator: Adobe Illustrator 24.0.2, SVG Export Plug-In . SVG Version: 6.00 Build 0)  -->
<svg version="1.1"
	 id="svg1810" inkscape:version="0.92.2 (5c3e80d, 2017-08-06)" sodipodi:docname="Header Section Background.svg" xmlns:cc="http://creativecommons.org/ns#" xmlns:dc="http://purl.org/dc/elements/1.1/" xmlns:inkscape="http://www.inkscape.org/namespaces/inkscape" xmlns:rdf="http://www.w3.org/1999/02/22-rdf-syntax-ns#" xmlns:sodipodi="http://sodipodi.sourceforge.net/DTD/sodipodi-0.dtd" xmlns:svg="http://www.w3.org/2000/svg"
	 xmlns="http://www.w3.org/2000/svg" xmlns:xlink="http://www.w3.org/1999/xlink" x="0px" y="0px" viewBox="0 0 1440 922.3"
	 style="enable-background:new 0 0 1440 922.3;" xml:space="preserve">
<style type="text/css">
	.st0{fill:#15121B;}
	.st1{fill:#80009E;}
	.st2{fill:#00479E;}
	.st3{fill:#400096;}
</style>
<sodipodi:namedview  bordercolor="#666666" borderopacity="1.0" fit-margin-bottom="0" fit-margin-left="0" fit-margin-right="0" fit-margin-top="0" id="base" inkscape:current-layer="layer1" inkscape:cx="879.16502" inkscape:cy="366.44841" inkscape:document-units="mm" inkscape:pageopacity="0.0" inkscape:pageshadow="2" inkscape:window-height="1177" inkscape:window-maximized="1" inkscape:window-width="1600" inkscape:window-x="-8" inkscape:window-y="-8" inkscape:zoom="0.35" pagecolor="#ffffff" showgrid="false">
	</sodipodi:namedview>
<rect id="rect1724" x="-17.9" y="-15.5" class="st0" width="1476.7" height="952.1"/>
<rect id="rect30110" x="967.5" y="540.7" class="st1" width="6" height="6"/>
<rect id="rect30110-36" x="1304.3" y="630.7" class="st1" width="6" height="6"/>
<rect id="rect30110-38" x="1216.5" y="705" class="st1" width="6" height="6"/>
<rect id="rect30110-2" x="1381.5" y="457.5" class="st1" width="6" height="6"/>
<rect id="rect30110-5" x="1414.5" y="535.5" class="st1" width="6" height="6"/>
<rect id="rect30110-4" x="1122.8" y="607.5" class="st2" width="6" height="6"/>
<rect id="rect30110-4-0" x="1084.5" y="419.2" class="st2" width="6" height="6"/>
<rect id="rect30110-4-06" x="891.8" y="774.8" class="st2" width="6" height="6"/>
<rect id="rect30110-4-8" x="877.5" y="412.5" class="st2" width="6" height="6"/>
<rect id="rect30110-4-6" x="1398" y="696.7" class="st2" width="6" height="6"/>
<rect id="rect30110-4-2" x="999.8" y="661.5" class="st3" width="6" height="6"/>
<rect id="rect30110-4-2-8" x="1289.3" y="459.7" class="st3" width="6" height="6"/>
<rect id="rect30110-4-2-1" x="1343.3" y="738.7" class="st3" width="6" height="6"/>
<rect id="rect30110-4-2-5" x="1410.8" y="183" class="st3" width="6" height="6"/>
<rect id="rect30110-4-2-87" x="1230.5" y="804.9" class="st3" width="6" height="6"/>
<rect id="rect30110-3-9" x="1299.5" y="256.6" class="st1" width="6" height="6"/>
<rect id="rect30110-3-4" x="1087.4" y="86.9" class="st1" width="6" height="6"/>
<rect id="rect30110-4-0-8" x="1193.4" y="157.9" class="st2" width="6" height="6"/>
<rect id="rect30110-4-0-7" x="983.4" y="248.1" class="st2" width="6" height="6"/>
<rect id="rect30110-4-0-6" x="850.5" y="98.3" class="st2" width="6" height="6"/>
<rect id="rect30110-4-2-8-9" x="784.9" y="200.7" class="st3" width="6" height="6"/>
<rect id="rect30110-4-2-8-1" x="399" y="99.6" class="st3" width="6" height="6"/>
<rect id="rect30110-4-2-8-4" x="130.6" y="249.2" class="st3" width="6" height="6"/>
<rect id="rect30110-4-2-8-45" x="28.8" y="99.6" class="st3" width="6" height="6"/>
<rect id="rect30110-7" x="488.4" y="570.7" class="st1" width="6" height="6"/>
<rect id="rect30110-3-3" x="302.4" y="732.7" class="st1" width="6" height="6"/>
<rect id="rect30110-36-4" x="169.7" y="510.4" class="st1" width="6" height="6"/>
<rect id="rect30110-38-3" x="239.4" y="406.4" class="st1" width="6" height="6"/>
<rect id="rect30110-2-7" x="74.4" y="653.9" class="st1" width="6" height="6"/>
<rect id="rect30110-5-9" x="187.2" y="608.4" class="st1" width="6" height="6"/>
<rect id="rect30110-4-64" x="333.1" y="503.9" class="st2" width="6" height="6"/>
<rect id="rect30110-4-0-3" x="371.4" y="692.2" class="st2" width="6" height="6"/>
<rect id="rect30110-4-06-8" x="473.4" y="422.9" class="st2" width="6" height="6"/>
<rect id="rect30110-4-8-5" x="578.4" y="698.9" class="st2" width="6" height="6"/>
<rect id="rect30110-4-6-2" x="71.5" y="319.3" class="st2" width="6" height="6"/>
<rect id="rect30110-4-2-52" x="563.4" y="332.2" class="st3" width="6" height="6"/>
<rect id="rect30110-4-2-8-0" x="53.5" y="565.4" class="st3" width="6" height="6"/>
<rect id="rect30110-4-2-1-3" x="112.6" y="372.7" class="st3" width="6" height="6"/>
<rect id="rect30110-4-2-3-6" x="366.1" y="809.2" class="st3" width="6" height="6"/>
<rect id="rect30110-4-2-87-5" x="225.3" y="306.5" class="st3" width="6" height="6"/>
<rect id="rect30110-3-7-1" x="545.7" y="808.2" class="st1" width="6" height="6"/>
<rect id="rect30110-36-4-4" x="494.6" y="163.7" class="st1" width="6" height="6"/>
<rect id="rect30110-36-4-1" x="673.1" y="109.8" class="st1" width="6" height="6"/>
<rect id="rect30110-4-06-8-4" x="675.8" y="433.5" class="st2" width="6" height="6"/>
<rect id="rect30110-4-06-8-3" x="718.5" y="834" class="st2" width="6" height="6"/>
<rect id="rect30110-4-8-7" x="898.6" y="10.8" class="st2" width="6" height="6"/>
<rect id="rect30110-4-8-6" x="1307.1" y="58.5" class="st2" width="6" height="6"/>
<rect id="rect30110-3-75" x="728.9" y="76.6" class="st1" width="6" height="6"/>
<rect id="rect30110-3-72" x="1256.1" y="14.8" class="st1" width="6" height="6"/>
<rect id="rect30110-4-2-1-2" x="942" y="61.5" class="st3" width="6" height="6"/>
<rect id="rect30110-4-2-1-9" x="1428" y="9" class="st3" width="6" height="6"/>
</svg>
