<?xml version="1.0" encoding="utf-8"?>
<!-- Generator: Adobe Illustrator 24.0.2, SVG Export Plug-In . SVG Version: 6.00 Build 0)  -->
<svg version="1.1"
	 id="svg1810" inkscape:version="0.92.2 (5c3e80d, 2017-08-06)" sodipodi:docname="Header Section Background.svg" xmlns:cc="http://creativecommons.org/ns#" xmlns:dc="http://purl.org/dc/elements/1.1/" xmlns:inkscape="http://www.inkscape.org/namespaces/inkscape" xmlns:rdf="http://www.w3.org/1999/02/22-rdf-syntax-ns#" xmlns:sodipodi="http://sodipodi.sourceforge.net/DTD/sodipodi-0.dtd" xmlns:svg="http://www.w3.org/2000/svg"
	 xmlns="http://www.w3.org/2000/svg" xmlns:xlink="http://www.w3.org/1999/xlink" x="0px" y="0px" viewBox="0 0 1440 922.3"
	 style="enable-background:new 0 0 1440 922.3;" xml:space="preserve">
<style type="text/css">
	.st0{fill:#80009E;}
	.st1{fill:#00479E;}
	.st2{fill:#400096;}
</style>
<sodipodi:namedview  bordercolor="#666666" borderopacity="1.0" fit-margin-bottom="0" fit-margin-left="0" fit-margin-right="0" fit-margin-top="0" id="base" inkscape:current-layer="layer1" inkscape:cx="879.16502" inkscape:cy="366.44841" inkscape:document-units="mm" inkscape:pageopacity="0.0" inkscape:pageshadow="2" inkscape:window-height="1177" inkscape:window-maximized="1" inkscape:window-width="1600" inkscape:window-x="-8" inkscape:window-y="-8" inkscape:zoom="0.35" pagecolor="#ffffff" showgrid="false">
	</sodipodi:namedview>
<rect id="rect30110" x="1162.5" y="428.7" class="st0" width="6" height="6"/>
<rect id="rect30110-38" x="1325" y="560" class="st0" width="6" height="6"/>
<rect id="rect30110-2" x="1405.1" y="580.4" class="st0" width="6" height="6"/>
<rect id="rect30110-5" x="1405.8" y="560.4" class="st0" width="6" height="6"/>
<rect id="rect30110-4" x="1296" y="556.5" class="st1" width="6" height="6"/>
<rect id="rect30110-4-0" x="1152.5" y="475.6" class="st1" width="6" height="6"/>
<rect id="rect30110-4-06" x="841.9" y="644.4" class="st1" width="6" height="6"/>
<rect id="rect30110-4-8" x="957.8" y="483.4" class="st1" width="6" height="6"/>
<rect id="rect30110-4-6" x="1113.5" y="848.1" class="st1" width="6" height="6"/>
<rect id="rect30110-4-2" x="960.3" y="620.3" class="st2" width="6" height="6"/>
<rect id="rect30110-4-2-8" x="1290" y="400.9" class="st2" width="6" height="6"/>
<rect id="rect30110-4-2-5" x="1443.7" y="154.9" class="st2" width="6" height="6"/>
<rect id="rect30110-4-2-87" x="1270.5" y="897.6" class="st2" width="6" height="6"/>
<rect id="rect30110-3-9" x="1243.9" y="264.5" class="st0" width="6" height="6"/>
<rect id="rect30110-3-4" x="1014.8" y="63.8" class="st0" width="6" height="6"/>
<rect id="rect30110-4-0-8" x="1255" y="7.1" class="st1" width="6" height="6"/>
<rect id="rect30110-4-0-7" x="979.7" y="208.9" class="st1" width="6" height="6"/>
<rect id="rect30110-4-2-8-9" x="438.1" y="429.5" class="st2" width="6" height="6"/>
<rect id="rect30110-4-2-8-1" x="417.5" y="254.2" class="st2" width="6" height="6"/>
<rect id="rect30110-4-2-8-4" x="189.8" y="83.2" class="st2" width="6" height="6"/>
<rect id="rect30110-7" x="256.8" y="436.5" class="st0" width="6" height="6"/>
<rect id="rect30110-3-3" x="303" y="689.5" class="st0" width="6" height="6"/>
<rect id="rect30110-38-3" x="390.3" y="455.9" class="st0" width="6" height="6"/>
<rect id="rect30110-2-7" x="22.1" y="562.7" class="st0" width="6" height="6"/>
<rect id="rect30110-5-9" x="295.8" y="420" class="st0" width="6" height="6"/>
<rect id="rect30110-4-64" x="520" y="576.8" class="st1" width="6" height="6"/>
<rect id="rect30110-4-0-3" x="388.2" y="715.8" class="st1" width="6" height="6"/>
<rect id="rect30110-4-06-8" x="453" y="331.8" class="st1" width="6" height="6"/>
<rect id="rect30110-4-8-5" x="475.3" y="825.8" class="st1" width="6" height="6"/>
<rect id="rect30110-4-6-2" x="185.9" y="56" class="st1" width="6" height="6"/>
<rect id="rect30110-4-2-52" x="525.5" y="377.8" class="st2" width="6" height="6"/>
<rect id="rect30110-4-2-8-0" x="162.8" y="546.6" class="st2" width="6" height="6"/>
<rect id="rect30110-4-2-1-3" x="109.9" y="425.5" class="st2" width="6" height="6"/>
<rect id="rect30110-4-2-3-6" x="426" y="778.6" class="st2" width="6" height="6"/>
<rect id="rect30110-4-2-87-5" x="224.5" y="459.3" class="st2" width="6" height="6"/>
<rect id="rect30110-3-7-1" x="552.2" y="821.8" class="st0" width="6" height="6"/>
<rect id="rect30110-36-4-4" x="463.2" y="259.4" class="st0" width="6" height="6"/>
<rect id="rect30110-36-4-1" x="787" y="159.5" class="st0" width="6" height="6"/>
<rect id="rect30110-4-06-8-4" x="577.2" y="527.3" class="st1" width="6" height="6"/>
<rect id="rect30110-4-06-8-3" x="677.1" y="583.8" class="st1" width="6" height="6"/>
<rect id="rect30110-4-8-7" x="818.7" y="69.9" class="st1" width="6" height="6"/>
<rect id="rect30110-4-8-6" x="1222.4" y="184.8" class="st1" width="6" height="6"/>
<rect id="rect30110-3-72" x="1094.7" y="63.4" class="st0" width="6" height="6"/>
<rect id="rect30110-4-2-1-2" x="1004" y="18.9" class="st2" width="6" height="6"/>
</svg>
