<?xml version="1.0" encoding="utf-8"?>
<!-- Generator: Adobe Illustrator 20.0.0, SVG Export Plug-In . SVG Version: 6.00 Build 0)  -->
<svg version="1.1" id="Layer_1" xmlns="http://www.w3.org/2000/svg" xmlns:xlink="http://www.w3.org/1999/xlink" x="0px" y="0px"
	 viewBox="0 0 2000 612" style="enable-background:new 0 0 2000 612;" xml:space="preserve">
<style type="text/css">
	.st0{fill:#50A2BC;}
	.st1{fill:#019A49;}
	.st2{fill:#49B28D;}
	.st3{fill:#157DA8;}
	.st4{fill:#F89923;}
</style>
<g>
	<g>
		<g>
			<g>
				<g>
					<g>
						<path class="st0" d="M469.8,155.1c30.6,68.6,25.6,146-13.7,212.4c-4.4,7.4-9.4,14.6-14.9,21.3c-5.5,6.7-11.5,13.1-18,19
							c-6.4,5.9-13.4,11.4-20.6,16.3c-7.3,4.9-15,9.4-22.9,13.3c-8,3.9-16.3,7.3-24.8,10c-11.6,3.7-22.3,6.1-32.8,7.3
							c-0.1,0-0.2,0-0.3,0c0.9,0.1,1.9,0.2,3.2,0.3l0.5,0c0.1,0,4.4,0.4,11.6,0.4c39.8,0,172.4-11.6,210.8-160.3
							c19-73.8-4.9-152.6-62.5-205.5C435,43.6,373.1,21.2,296.2,21.2c-2.2,0-4.4,0-6.7,0.1c6.4,0.9,11.7,1.8,12.2,1.8
							C377.8,38.1,439,86.3,469.8,155.1z"/>
						<path class="st1" d="M371.3,562.1c-59.7,0-116.2-22.9-158.9-64.4C168.6,455.2,143.9,397.1,143,334c-0.1-8.6,0.4-17.4,1.6-26
							c1.2-8.6,3-17.2,5.4-25.6c2.4-8.4,5.5-16.7,9.1-24.7c3.6-8,7.8-15.9,12.5-23.3c4.7-7.5,10.1-14.7,15.8-21.5
							c7.9-9.2,15.8-16.9,24.2-23.4c0.1-0.1,0.2-0.1,0.3-0.2c-1.2,0.5-2.3,1.1-2.9,1.4l-0.4,0.2c-0.5,0.2-40.4,20.3-73.3,61.4
							c-43.8,54.9-54.8,119.2-32.7,191.2C125,516.4,186.6,571,263.3,586c16.4,3.2,33,4.8,49.2,4.8c51.8,0,102.2-16,153.5-48.7
							c-5.9,2.6-10.9,4.6-11.4,4.8C427.4,557,399.4,562.1,371.3,562.1z"/>
						<path class="st2" d="M567.7,201.5c1.4,6.3,2.5,11.6,2.6,12c11.4,68.7-7.2,137.6-50.9,189.1c-43.3,51.1-106.9,80.4-174.4,80.4
							c-14.2,0-28.6-1.3-42.8-3.8c-8.5-1.5-17-3.7-25.2-6.5c-8.2-2.8-16.3-6.2-24.1-10.2c-7.8-4-15.3-8.5-22.5-13.6
							c-7.2-5.1-14.1-10.7-20.5-16.7c-6.5-6.1-12.6-12.7-18.1-19.6c-7.6-9.5-13.6-18.7-18.4-28.2c0-0.1-0.1-0.2-0.1-0.3
							c0.2,0.8,0.5,1.9,0.8,3.1l0.1,0.4c0.1,0.5,11,39,41,77c40.1,50.7,93.5,76.4,158.7,76.4c9.1,0,18.6-0.5,28.2-1.6
							c75.8-8.2,141.1-58.3,170.3-130.8C598.7,343.9,597.2,275.9,567.7,201.5z"/>
						<path class="st3" d="M232.5,95.6c63.7,0,123.6,26.4,168.7,74.2c5.9,6.3,11.4,13.1,16.4,20.3c4.9,7.1,9.4,14.7,13.3,22.6
							c3.9,7.8,7.2,16,10,24.3c2.7,8.4,4.9,17,6.5,25.7c1.6,8.7,2.5,17.7,2.8,26.6c0.4,12.2-0.3,23.1-2.1,33.6c0,0.1,0,0.2-0.1,0.3
							c0.3-0.8,0.7-1.8,1.2-3l0.2-0.4c0.2-0.5,16.2-42.3,12.7-94.8c-4.6-70-39.9-125-104.8-163.2C325.2,43,290.4,33.4,253.6,33.4
							c-39,0-77.4,10.9-111.3,31.5C82.5,101.4,43.1,156.8,22.2,234c2.6-5.9,4.9-10.8,5.1-11.2C67.8,144.3,146.4,95.6,232.5,95.6z"/>
						<path class="st4" d="M77.9,324.1c17.9-73,69.4-131,141.2-159.2c8-3.2,16.4-5.7,24.9-7.7c8.5-1.9,17.2-3.3,25.9-4
							c4.8-0.4,9.7-0.6,14.6-0.6c3.9,0,7.8,0.1,11.7,0.4c8.8,0.6,17.6,1.7,26.2,3.5c8.7,1.8,17.3,4.2,25.7,7.3
							c11.4,4.2,21.4,8.9,30.4,14.4c0.1,0.1,0.2,0.1,0.3,0.2c-0.6-0.6-1.4-1.3-2.3-2.2l-0.3-0.3c-0.7-0.6-62.2-57.2-145.9-57.2
							c-44.5,0-87.5,15.8-127.8,46.9c-60.3,46.6-89.8,123.5-76.8,200.5C37.2,435.3,74,492.5,138,540.5c-4.5-4.6-8.2-8.6-8.5-8.9
							C78.7,473,59.9,397.4,77.9,324.1z"/>
					</g>
				</g>
			</g>
		</g>
	</g>
	<g>
		<g>
			<path class="st2" d="M772.1,425.4l-5.5,11.3c-6-3.5-13.6-5.9-18.2-5.9c-3.7,0-6.3,1.4-6.3,4.2c0,9.9,30.1,4.2,30.1,24.8
				c0,11.4-10.1,17.4-22.8,17.4c-9.5,0-19.3-3.6-26.1-9.1L729,457c5.9,5.1,14.7,8.6,20.6,8.6c4.6,0,7.4-1.7,7.4-5
				c0-10.1-30.1-4.1-30.1-24.3c0-10.5,9-17.2,22.7-17.2C757.9,419.1,766.3,421.6,772.1,425.4z"/>
			<path class="st2" d="M846.4,452.8c0,15.1-10,24.6-26,24.6c-16,0-26.3-9.5-26.3-24.6v-33.1h14.5v33.1c0,7.7,5,12.5,11.9,12.5
				c6.8,0,11.5-4.7,11.5-12.5v-33.1h14.4V452.8z"/>
			<path class="st2" d="M897.6,460.7h-0.4h-11v16h-14.5v-57h25.5c15.1,0,23.7,7.2,23.7,19.9c0,8.7-3.7,15-10.3,18.3l12,18.8h-16.5
				L897.6,460.7z M897.2,449.3c6.3,0,9.9-3.2,9.9-9.2c0-5.9-3.7-9-9.9-9h-11v18.2H897.2z"/>
			<path class="st2" d="M996,447.8V470c-6.1,4.3-15.7,7.4-23.7,7.4c-17.3,0-30.5-12.5-30.5-29.2c0-16.5,13.4-29,31.4-29
				c8.5,0,17.4,3.3,23.3,8.5l-8.1,9.9c-4.2-3.8-9.9-6.2-15.2-6.2c-9.4,0-16.5,7.3-16.5,16.9c0,9.7,7.2,17,16.7,17
				c2.9,0,6.7-1.1,10.1-2.8v-14.7H996z"/>
			<path class="st2" d="M1021,476.8v-57h14.5v57H1021z"/>
			<path class="st2" d="M1111.5,428.9l-8.4,9.9c-3.7-4.6-9.3-7.4-14.3-7.4c-9,0-15.9,7.2-15.9,16.5c0,9.5,6.8,16.8,15.9,16.8
				c4.8,0,10.3-2.6,14.3-6.7l8.5,9c-6.1,6.3-15.2,10.4-23.5,10.4c-17.2,0-30-12.6-30-29.3c0-16.5,13.1-28.8,30.5-28.8
				C1097,419.3,1105.8,423,1111.5,428.9z"/>
			<path class="st2" d="M1145.5,466.3l-4.2,10.5h-14.9l24.6-57h14.9l24,57h-15.5l-4.1-10.5H1145.5z M1158,434.2l-8.3,21.1h16.5
				L1158,434.2z"/>
			<path class="st2" d="M1248.8,464.6v12.1h-38.7v-57h14.5v44.9H1248.8z"/>
			<path class="st2" d="M1344.3,476.8l-26.2-35.1v35.1h-13.6v-57h12.8l26.3,35.2v-35.2h13.5v57H1344.3z"/>
			<path class="st2" d="M1396.3,466.3l-4.2,10.5h-14.9l24.6-57h14.9l24,57h-15.5l-4.1-10.5H1396.3z M1408.9,434.2l-8.3,21.1h16.5
				L1408.9,434.2z"/>
			<path class="st2" d="M1473,476.8l-22.2-57h15.5l14.6,41.9l14.6-41.9h14.9l-22.4,57H1473z"/>
			<path class="st2" d="M1530.9,476.8v-57h14.5v57H1530.9z"/>
			<path class="st2" d="M1622.1,447.8V470c-6.1,4.3-15.7,7.4-23.7,7.4c-17.3,0-30.5-12.5-30.5-29.2c0-16.5,13.4-29,31.4-29
				c8.5,0,17.4,3.3,23.3,8.5l-8.1,9.9c-4.2-3.8-9.9-6.2-15.2-6.2c-9.4,0-16.5,7.3-16.5,16.9c0,9.7,7.2,17,16.7,17
				c2.9,0,6.7-1.1,10.1-2.8v-14.7H1622.1z"/>
			<path class="st2" d="M1660,466.3l-4.2,10.5H1641l24.6-57h14.9l24,57H1689l-4.1-10.5H1660z M1672.6,434.2l-8.3,21.1h16.5
				L1672.6,434.2z"/>
			<path class="st2" d="M1745,431.4v45.4h-14.5v-45.4h-17v-11.7h48.7v11.7H1745z"/>
			<path class="st2" d="M1783.3,476.8v-57h14.5v57H1783.3z"/>
			<path class="st2" d="M1882,448.2c0,16.6-13.2,29.2-30.9,29.2c-17.6,0-30.8-12.5-30.8-29.2c0-16.6,13.2-28.9,30.8-28.9
				C1868.8,419.3,1882,431.6,1882,448.2z M1835.2,448.3c0,9.6,7.4,17,16.1,17c8.8,0,15.8-7.4,15.8-17s-7-16.9-15.8-16.9
				S1835.2,438.6,1835.2,448.3z"/>
			<path class="st2" d="M1944.4,476.8l-26.2-35.1v35.1h-13.6v-57h12.8l26.3,35.2v-35.2h13.5v57H1944.4z"/>
		</g>
		<g>
			<g>
				<g>
					<path class="st3" d="M901.4,158.5c0.4-0.8,0.8-1.5,1.3-2.3c0.5-0.8,1.3-1.3,2.4-1.7c1.1-0.4,2.7-0.7,4.6-1
						c1.9-0.3,4.6-0.4,8-0.4c1.5,0,3.5,0,6-0.1c2.5-0.1,5.1-0.2,8-0.3c2.8-0.1,5.7-0.2,8.7-0.4c2.9-0.2,5.7-0.4,8.1-0.6
						c0.4,1.9,0.6,3.4,0.6,4.6c0,3-1,4.7-2.9,4.8c-6.8,1-11.4,2.2-13.7,3.9c-2.3,1.6-3.4,3.8-3.4,6.4c0,0.2,0.1,2.7,0.4,7.6
						c0.3,4.8,0.7,12.9,1.3,24.2c0.6,11.3,1.3,26.4,2.1,45.2c0.9,18.8,1.9,42.2,3,70.1c0.2,3.6,1.4,6.3,3.7,8
						c2.3,1.7,6.9,3.1,14,4.3c0.9,0.2,1.7,0.7,2.1,1.6c0.5,0.9,0.7,1.9,0.7,3c0,1.1-0.2,2.7-0.6,4.6c-6.7-0.4-12.7-0.7-18.1-1
						c-5.4-0.3-10.4-0.4-15-0.4c-1.9,0-4.3,0-7.1,0.1c-2.8,0.1-5.8,0.2-9,0.3c-3.1,0.1-6.2,0.2-9.3,0.4c-3,0.2-5.7,0.4-8,0.6
						c-0.4-1.9-0.6-3.4-0.6-4.6c0-3,0.9-4.6,2.8-4.6c7.6-1.5,12.8-3,15.5-4.6c2.8-1.5,4.1-4.1,4.1-7.7c0-0.6-0.1-4.1-0.4-10.5
						c-0.3-6.5-0.7-14.3-1.1-23.7c-0.5-9.3-1-19.4-1.4-30.2c-0.5-10.8-1-21.1-1.4-30.7c-0.5-9.6-0.9-17.9-1.3-24.8
						c-0.4-6.9-0.6-11.2-0.6-12.7l-62.4,150.8c-0.8,1.7-1.5,3-2.1,3.9c-0.7,0.9-1.6,1.3-2.7,1.3c-1.3,0-2.2-0.1-2.6-0.3l-69.9-160.2
						c-0.2,1.9-0.4,6.5-0.7,13.8c-0.3,7.3-0.7,16-1.1,26.1c-0.5,10.1-1,20.7-1.6,31.9c-0.6,11.2-1.1,21.6-1.6,31.1
						c-0.5,9.5-0.9,17.5-1.1,24c-0.3,6.5-0.4,9.9-0.4,10.3c0,5.9,6.5,10,19.4,12.3c1.9,0.2,2.9,1.7,2.9,4.6c0,1.1-0.2,2.7-0.6,4.6
						c-5.1-0.4-10.2-0.7-15.1-1c-4.9-0.3-9.3-0.4-13.1-0.4c-3,0-7.1,0.1-12.3,0.4c-5.1,0.3-10,0.6-14.5,1c-0.4-1.9-0.6-3.4-0.6-4.6
						c0-2.7,0.9-4.2,2.8-4.6c5.1-1,9.3-2.3,12.4-4.1c3.1-1.8,4.9-4.5,5.3-8.1c0-1.7,0.2-6.5,0.6-14.4c0.4-7.9,0.8-17.3,1.3-28.1
						c0.5-10.8,1-22.3,1.6-34.5c0.6-12.2,1.1-23.4,1.6-33.8c0.5-10.4,0.9-18.9,1.1-25.7c0.3-6.7,0.4-10.2,0.4-10.4
						c0-3-1.2-5.3-3.6-6.7c-2.4-1.4-6.9-2.7-13.5-3.9c-1.9-0.2-2.8-1.8-2.8-4.8c0-1.1,0.2-2.7,0.6-4.6c2.5,0.2,5.3,0.4,8.4,0.6
						c3.1,0.2,6.3,0.3,9.4,0.4c3.1,0.1,6.1,0.2,9,0.3c2.9,0.1,5.1,0.1,6.8,0.1c3.4,0,6.1,0.1,8,0.4c1.9,0.3,3.4,0.6,4.6,1
						c1.1,0.4,1.9,1,2.4,1.7c0.5,0.8,0.9,1.5,1.3,2.3l61,142.3L901.4,158.5z"/>
					<path class="st3" d="M1082.8,311.9c1.3-1.3,2.7-2,4.3-2c1.9,0,3.7,1.6,5.4,4.8c-2.5,3.4-5.3,6.7-8.6,10
						c-3.2,3.2-7.1,6.1-11.5,8.7c-4.5,2.6-9.6,4.6-15.3,6.1c-5.7,1.5-12.3,2.3-19.7,2.3c-7.6,0-14.8-1.2-21.7-3.7
						c-6.8-2.5-12.9-6.3-18.1-11.4c-5.2-5.1-9.4-11.5-12.5-19.1c-3.1-7.6-4.7-16.5-4.7-26.8c0-9.7,1.9-18.6,5.6-26.8
						c3.7-8.2,8.5-15.2,14.4-21c5.9-5.8,12.4-10.3,19.5-13.5c7.1-3.2,14-4.8,20.7-4.8c17.7,0,30.6,5.1,38.6,15.4
						c8.1,10.3,12.1,23.7,12.1,40.2c0,1.1-0.6,1.7-1.7,1.7l-82.4,3.7c0,7.4,1,14.3,3.1,20.5s5,11.7,8.8,16.3
						c3.8,4.6,8.4,8.1,13.8,10.7c5.4,2.6,11.5,3.9,18.3,3.9c6.1,0,11.9-1.4,17.5-4.3C1074.3,319.9,1079,316.3,1082.8,311.9z
						 M1036.7,224.9c-9.5,0-16.8,3.7-22.1,11.1c-5.3,7.4-7.9,17.1-7.9,29.1l53.6-2.6c2.8,0,4.3-1.2,4.3-3.7c0-3.6-0.6-7.4-1.7-11.4
						c-1.1-4-2.8-7.6-5.1-11c-2.3-3.3-5.2-6.1-8.7-8.3C1045.5,226,1041.4,224.9,1036.7,224.9z"/>
					<path class="st3" d="M1234.1,313c0,2.3,0.2,4.2,0.6,5.8c0.4,1.6,1.1,3,2.3,4.1c1.1,1.1,2.7,2,4.7,2.7c2,0.7,4.6,1.2,7.8,1.6
						c2.5,0.4,3.7,1.6,3.7,3.7c0,1.1-0.2,2.5-0.6,4c-2.5,0-5.8,0.1-9.8,0.4c-4.1,0.3-7.6,0.6-10.4,1c-4.2,0.8-7.9,1.6-11.1,2.4
						c-3.2,0.9-5.5,1.3-7.1,1.3c-2.7,0-4-1.4-4-4.3v-21.7c-2.7,3.6-5.3,7.1-8,10.4c-2.7,3.3-5.8,6.3-9.3,8.8
						c-3.5,2.6-7.6,4.6-12.1,6.1c-4.6,1.5-10.1,2.3-16.5,2.3c-6.5,0-12.6-1.3-18.5-4c-5.9-2.7-11.1-6.6-15.7-11.8
						c-4.6-5.2-8.2-11.6-11-19.2c-2.8-7.6-4.1-16.3-4.1-25.9c0-10.5,2-19.8,6-28.1c4-8.3,8.9-15.2,14.8-20.8
						c5.9-5.6,12.3-9.9,19.2-12.8c6.9-2.9,13.4-4.4,19.2-4.4c7.2,0,13.6,0.7,19.2,2.1c5.6,1.4,11.2,3.3,16.7,5.6v-53.9
						c0-5.7-1-9.7-3-12.1c-2-2.4-6.3-3.8-13-4.4c-2.5-0.4-3.7-1.7-3.7-4c0-1.1,0.2-2.5,0.6-4c2.5,0,5.9-0.1,10.4-0.4
						c4.5-0.3,8.1-0.6,11-1c4.4-0.6,8.4-1.3,11.8-2.3c3.5-0.9,6-1.4,7.5-1.4c2.7,0,4,1.4,4,4.3c0,3.2-0.3,6.9-0.9,11.1
						s-0.9,9.3-0.9,15.4V313z M1210.2,240.9c-4.8-4.9-10-8.8-15.7-11.7c-5.7-2.9-12.2-4.3-19.4-4.3c-11,0-19.3,4.6-25,13.7
						c-5.6,9.1-8.4,20.8-8.4,35.1c0,7.2,0.8,14.1,2.4,20.7c1.6,6.6,4,12.3,7.1,17.3c3.1,4.9,6.9,8.8,11.4,11.7
						c4.5,2.9,9.5,4.3,15,4.3c3.8,0,7.6-1.1,11.4-3.4c3.8-2.3,7.3-5.2,10.4-8.7c3.1-3.5,5.7-7.5,7.7-12c2-4.5,3-8.9,3-13.3V240.9z"
						/>
					<path class="st3" d="M1304.1,338.4c-3.3,0-6.6,0-9.9,0.1c-3.4,0.1-6.5,0.2-9.3,0.4c-2.9,0.2-5.3,0.4-7.4,0.6
						c-2.1,0.2-3.4,0.3-4,0.3c0-0.2-0.1-0.9-0.3-2c-0.2-1.1-0.3-2-0.3-2.6c0-1.9,0.9-3,2.6-3.4c4.9-0.9,8.9-2.1,12-3.4
						c3-1.3,4.6-3.5,4.6-6.6v-77.6c0-5.7-1-9.8-3-12.3c-2-2.5-6.3-4-13-4.6c-2.5-0.4-3.7-1.7-3.7-4c0-1,0.2-2.2,0.6-3.7
						c2.5,0,5.9-0.1,10.4-0.4c4.5-0.3,8.1-0.6,11-1c4.4-0.8,8.4-1.6,11.8-2.4c3.5-0.9,6-1.3,7.5-1.3c2.7,0,4,1.4,4,4.3
						c0,2.7-0.3,5.8-0.9,9.6c-0.6,3.7-0.9,8.6-0.9,14.7v78.7c0,3,1.5,5.2,4.4,6.6c2.9,1.3,7.1,2.5,12.4,3.4c1.5,0.4,2.3,1.5,2.3,3.4
						c0,0.6-0.1,1.4-0.1,2.6c-0.1,1.1-0.2,1.8-0.4,2c-0.6,0-1.9-0.1-3.8-0.3c-2-0.2-4.4-0.4-7.3-0.6c-2.9-0.2-6-0.3-9.3-0.4
						C1310.7,338.4,1307.4,338.4,1304.1,338.4z M1287.5,167c0-4.6,1.6-8.5,4.7-11.8c3.1-3.3,7.1-5,11.8-5c4.6,0,8.4,1.7,11.4,5
						c3,3.3,4.6,7.3,4.6,11.8c0,4.9-1.5,8.9-4.6,12c-3,3-6.8,4.6-11.4,4.6c-4.8,0-8.7-1.5-11.8-4.6C1289,176,1287.5,172,1287.5,167z
						"/>
					<path class="st3" d="M1497.9,175.9c0.8-2.1,1.1-4,1.1-5.7c0-2.7-1.3-4.7-4-6c-2.7-1.3-6.9-2.4-12.8-3.1
						c-2.3-0.2-3.4-1.8-3.4-4.8c0-0.9,0.1-1.8,0.3-2.6c0-0.6,0.1-1.2,0.3-2c0.4,0,1.6,0.1,3.7,0.3c2.1,0.2,4.6,0.4,7.6,0.6
						c2.9,0.2,6.1,0.3,9.6,0.4c3.4,0.1,6.7,0.1,9.7,0.1c6.3,0,12-0.2,17.3-0.6c5.2-0.4,8.3-0.7,9.3-0.9c0,0.6,0.1,1.2,0.3,2
						c0,0.6,0,1.1,0.1,1.6c0.1,0.5,0.1,0.9,0.1,1.3c0,3-1.1,4.8-3.1,5.1c-6.1,0.4-10.5,1.3-13.4,2.9c-2.9,1.5-5,4.1-6.6,7.7
						l-70.4,169.4c-0.4,0-0.8,0-1.3,0.1c-0.5,0.1-0.9,0.1-1.3,0.1c-2.1,0-3.8-1.6-5.1-4.8l-67-166.2c-1.1-2.7-3-4.7-5.7-6
						c-2.7-1.3-7.4-2.5-14.3-3.4c-2.1-0.2-3.1-1.9-3.1-5.1c0-1.5,0.2-3,0.6-4.6c5.7,0.4,11.9,0.7,18.5,1c6.7,0.3,12.4,0.4,17.4,0.4
						c4.7,0,10.6-0.1,17.4-0.4c6.8-0.3,13.2-0.6,19.1-1c0.4,1.9,0.6,3.4,0.6,4.6c0,2.9-1.1,4.5-3.4,4.8c-11.2,1.1-16.8,4.2-16.8,9.1
						c0,1.3,0.2,2.6,0.6,3.7l48.5,124L1497.9,175.9z"/>
					<path class="st3" d="M1581.9,338.4c-3.3,0-6.6,0-9.9,0.1c-3.4,0.1-6.5,0.2-9.3,0.4c-2.9,0.2-5.3,0.4-7.4,0.6
						c-2.1,0.2-3.4,0.3-4,0.3c0-0.2-0.1-0.9-0.3-2c-0.2-1.1-0.3-2-0.3-2.6c0-1.9,0.9-3,2.6-3.4c4.9-0.9,8.9-2.1,12-3.4
						c3-1.3,4.6-3.5,4.6-6.6v-77.6c0-5.7-1-9.8-3-12.3c-2-2.5-6.3-4-13-4.6c-2.5-0.4-3.7-1.7-3.7-4c0-1,0.2-2.2,0.6-3.7
						c2.5,0,5.9-0.1,10.4-0.4c4.5-0.3,8.1-0.6,11-1c4.4-0.8,8.4-1.6,11.8-2.4c3.5-0.9,6-1.3,7.5-1.3c2.7,0,4,1.4,4,4.3
						c0,2.7-0.3,5.8-0.9,9.6c-0.6,3.7-0.9,8.6-0.9,14.7v78.7c0,3,1.5,5.2,4.4,6.6c2.9,1.3,7.1,2.5,12.4,3.4c1.5,0.4,2.3,1.5,2.3,3.4
						c0,0.6-0.1,1.4-0.1,2.6c-0.1,1.1-0.2,1.8-0.4,2c-0.6,0-1.9-0.1-3.8-0.3c-2-0.2-4.4-0.4-7.3-0.6c-2.9-0.2-6-0.3-9.3-0.4
						C1588.4,338.4,1585.1,338.4,1581.9,338.4z M1565.2,167c0-4.6,1.6-8.5,4.7-11.8c3.1-3.3,7.1-5,11.8-5c4.6,0,8.4,1.7,11.4,5
						c3,3.3,4.6,7.3,4.6,11.8c0,4.9-1.5,8.9-4.6,12c-3,3-6.8,4.6-11.4,4.6c-4.8,0-8.7-1.5-11.8-4.6
						C1566.7,176,1565.2,172,1565.2,167z"/>
					<path class="st3" d="M1735.2,311.9c1.3-1.3,2.7-2,4.3-2c1.9,0,3.7,1.6,5.4,4.8c-2.5,3.4-5.3,6.7-8.6,10
						c-3.2,3.2-7.1,6.1-11.5,8.7c-4.5,2.6-9.6,4.6-15.3,6.1c-5.7,1.5-12.3,2.3-19.7,2.3c-7.6,0-14.8-1.2-21.7-3.7
						c-6.8-2.5-12.9-6.3-18.1-11.4c-5.2-5.1-9.4-11.5-12.5-19.1c-3.1-7.6-4.7-16.5-4.7-26.8c0-9.7,1.9-18.6,5.6-26.8
						c3.7-8.2,8.5-15.2,14.4-21c5.9-5.8,12.4-10.3,19.5-13.5c7.1-3.2,14-4.8,20.7-4.8c17.7,0,30.6,5.1,38.6,15.4
						c8.1,10.3,12.1,23.7,12.1,40.2c0,1.1-0.6,1.7-1.7,1.7l-82.4,3.7c0,7.4,1,14.3,3.1,20.5s5,11.7,8.8,16.3
						c3.8,4.6,8.4,8.1,13.8,10.7c5.4,2.6,11.5,3.9,18.3,3.9c6.1,0,11.9-1.4,17.5-4.3C1726.7,319.9,1731.4,316.3,1735.2,311.9z
						 M1689.1,224.9c-9.5,0-16.8,3.7-22.1,11.1s-7.9,17.1-7.9,29.1l53.6-2.6c2.8,0,4.3-1.2,4.3-3.7c0-3.6-0.6-7.4-1.7-11.4
						c-1.1-4-2.8-7.6-5.1-11c-2.3-3.3-5.2-6.1-8.7-8.3C1697.9,226,1693.8,224.9,1689.1,224.9z"/>
					<path class="st3" d="M1901.9,307.3c2.7-7,5.5-14.3,8.6-21.7c3-7.4,5.8-14.5,8.4-21.2c2.6-6.7,4.7-12.9,6.3-18.5
						c1.6-5.6,2.4-10.1,2.4-13.5c0-1.7-0.8-3-2.4-3.9c-1.6-0.9-3.4-1.6-5.3-2.1c-1.9-0.6-3.7-1.2-5.3-2c-1.6-0.8-2.4-1.9-2.4-3.4
						c0-1.3,0.3-2.6,0.9-3.7c8,0.6,16,0.9,24,0.9c3.8,0,7.2,0,10.3-0.1c3-0.1,6.2-0.3,9.4-0.7c0.4,0.6,0.6,1.2,0.7,2
						s0.1,1.3,0.1,1.7c0,2.5-1.2,3.8-3.7,4c-2.1,0.4-3.8,0.8-5.3,1.3c-1.4,0.5-2.7,1.2-3.8,2.1c-1.1,1-2.1,2.3-3,4s-1.9,4-3,6.8
						l-39.6,102.1c-1.5,0.4-3,0.6-4.6,0.6c-1.5,0-2.7-0.5-3.6-1.4c-0.9-1-2.1-3.6-3.9-8l-31.9-77.6l-33.6,86.4
						c-1.9,0.4-3.5,0.6-4.8,0.6c-2.1,0-3.8-1.3-5-3.9c-1.2-2.6-2.6-5.7-4.1-9.3l-36.8-89.5c-1.1-2.8-2.2-5.1-3.1-6.8
						c-1-1.7-1.9-3-3-4c-1-1-2.3-1.6-3.7-2c-1.4-0.4-3.1-0.8-5-1.1c-2.5-0.6-3.7-2-3.7-4.3c0-1.3,0.3-2.6,0.9-3.7
						c3.8,0.4,7.9,0.6,12.3,0.7c4.4,0.1,8.8,0.1,13.4,0.1h9.7c4.2,0,8.1-0.1,11.7-0.3c3.6-0.2,7.3-0.4,11.1-0.6
						c0.4,0.6,0.6,1.2,0.7,2c0.1,0.8,0.1,1.3,0.1,1.7c0,2.3-1.2,3.5-3.7,3.7c-8.7,1.3-13.1,3.4-13.1,6.3c0,2.5,2.3,9.5,6.8,21.1
						l22,55l34.2-89.3c0.8-2.1,1.9-3.1,3.4-3.1c0.6,0,1.4,0.2,2.6,0.6L1901.9,307.3z"/>
				</g>
			</g>
		</g>
	</g>
</g>
</svg>
