<?xml version="1.0" encoding="UTF-8" standalone="no"?>
<!-- Created with Inkscape (http://www.inkscape.org/) -->

<svg
   xmlns:dc="http://purl.org/dc/elements/1.1/"
   xmlns:cc="http://creativecommons.org/ns#"
   xmlns:rdf="http://www.w3.org/1999/02/22-rdf-syntax-ns#"
   xmlns:svg="http://www.w3.org/2000/svg"
   xmlns="http://www.w3.org/2000/svg"
   xmlns:sodipodi="http://sodipodi.sourceforge.net/DTD/sodipodi-0.dtd"
   xmlns:inkscape="http://www.inkscape.org/namespaces/inkscape"
   width="73.122017mm"
   height="143.80663mm"
   viewBox="0 0 73.122017 143.80663"
   version="1.1"
   id="svg3354"
   inkscape:version="0.92.2 (5c3e80d, 2017-08-06)"
   sodipodi:docname="Pixelated Spartron.svg">
  <defs
     id="defs3348" />
  <sodipodi:namedview
     id="base"
     pagecolor="#ffffff"
     bordercolor="#666666"
     borderopacity="1.0"
     inkscape:pageopacity="0.0"
     inkscape:pageshadow="2"
     inkscape:zoom="0.35"
     inkscape:cx="-10.388081"
     inkscape:cy="340.332"
     inkscape:document-units="mm"
     inkscape:current-layer="layer1"
     showgrid="false"
     fit-margin-top="0"
     fit-margin-left="0"
     fit-margin-right="0"
     fit-margin-bottom="0"
     inkscape:window-width="1920"
     inkscape:window-height="1057"
     inkscape:window-x="1592"
     inkscape:window-y="-8"
     inkscape:window-maximized="1" />
  <metadata
     id="metadata3351">
    <rdf:RDF>
      <cc:Work
         rdf:about="">
        <dc:format>image/svg+xml</dc:format>
        <dc:type
           rdf:resource="http://purl.org/dc/dcmitype/StillImage" />
        <dc:title></dc:title>
      </cc:Work>
    </rdf:RDF>
  </metadata>
  <g
     inkscape:label="Layer 1"
     inkscape:groupmode="layer"
     id="layer1"
     transform="translate(26.73363,-95.072879)">
    <g
       transform="matrix(0.92122225,0,0,0.92122225,-172.97766,194.77589)"
       id="g29844">
      <path
         inkscape:connector-curvature="0"
         id="rect5663-92-7-1-03-2"
         transform="scale(0.26458333)"
         d="m 750,-219.05469 v 10 10 10 10 10 h 10 v 10 h 10 10 v 10 h 10 10 v 10 h 10 10 v 10 h 10 10 v 10 h 10 10 v -10 -10 h -10 v -10 -10 h -10 v -10 -10 h -10 v -10 h -10 -10 v -10 h -10 -10 v -10 h -10 -10 -10 v -10 z"
         style="opacity:1;vector-effect:none;fill:#85b2d2;fill-opacity:1;fill-rule:nonzero;stroke:none;stroke-width:70.67716217;stroke-linecap:round;stroke-linejoin:round;stroke-miterlimit:4;stroke-dasharray:none;stroke-dashoffset:0;stroke-opacity:1;paint-order:normal" />
      <path
         inkscape:connector-curvature="0"
         id="rect5663-92-7-1-06-159-2"
         transform="scale(0.26458333)"
         d="m 750,-169.05469 v 10 10 10 10 10 10 10.000002 10 10 10 10 10 10 10 10 10.0000005 10 h 10 v -10 h 10 V -19.054688 h 10 v -10 -10 -10 h 10 10 10 10 10 10 10 v 10 10 10 10.0000005 h -10 -10 v 10 h -10 -10 v 9.9999995 h -10 -10 v 10 10 10 10 10 10 10 10 9.999998 h 10 v -9.999998 h 10 10 v -10 h 10 10 v -10 h 10 10 v -10 h 10 10 v -10 -10 -10 -10 -10 -9.9999995 -10 -10.0000005 -10 -10 -10 h 10 10 v -10 -10 -10 -10 -10 h -10 -10 v -10.000002 h -10 -10 v -10 h -10 -10 v -10 h -10 -10 v -10 h -10 -10 v -10 h -10 -10 v -10 h -10 -10 v -10 z"
         style="opacity:1;vector-effect:none;fill:#2b71ad;fill-opacity:1;fill-rule:nonzero;stroke:none;stroke-width:70.67716217;stroke-linecap:round;stroke-linejoin:round;stroke-miterlimit:4;stroke-dasharray:none;stroke-dashoffset:0;stroke-opacity:1;paint-order:normal" />
      <path
         inkscape:connector-curvature="0"
         id="rect5663-92-7-1-03-9-5"
         transform="scale(0.26458333)"
         d="m 740,-219.05469 v 10 h -10 -10 -10 v 10 h -10 -10 v 10 h -10 -10 v 10 h -10 v 10 10 h -10 v 10 10 h -10 v 10 10 h 10 10 v -10 h 10 10 v -10 h 10 10 v -10 h 10 10 v -10 h 10 10 v -10 h 10 v -10 -10 -10 -10 -10 z"
         style="opacity:1;vector-effect:none;fill:#9fd6fc;fill-opacity:1;fill-rule:nonzero;stroke:none;stroke-width:70.67716217;stroke-linecap:round;stroke-linejoin:round;stroke-miterlimit:4;stroke-dasharray:none;stroke-dashoffset:0;stroke-opacity:1;paint-order:normal" />
      <path
         inkscape:connector-curvature="0"
         id="rect5663-92-7-1-06-159-0-7"
         transform="scale(0.26458333)"
         d="m 740,-169.05469 v 10 h -10 -10 v 10 h -10 -10 v 10 h -10 -10 v 10 h -10 -10 v 10 h -10 -10 v 10 h -10 -10 v 10.000002 h -10 -10 v 10 10 10 10 10 h 10 10 v 10 10 10 10.0000005 10 9.9999995 10 10 10 10 10 h 10 10 v 10 h 10 10 v 10 h 10 10 v 10 h 10 10 v 9.999998 h 10 v -9.999998 -10 -10 -10 -10 -10 -10 -10 -10 H 700 690 V 0.9453125 h -10 -10 v -10 h -10 -10 v -10.0000005 -10 -10 -10 h 10 10 10 10 10 10 10 v 10 10 10 h 10 v 10.0000005 h 10 v 10 h 10 v -10 -10.0000005 -10 -10 -10 -10 -10 -10 -10 -10 -10.000002 -10 -10 -10 -10 -10 -10 z"
         style="opacity:1;vector-effect:none;fill:#3387d0;fill-opacity:1;fill-rule:nonzero;stroke:none;stroke-width:70.67716217;stroke-linecap:round;stroke-linejoin:round;stroke-miterlimit:4;stroke-dasharray:none;stroke-dashoffset:0;stroke-opacity:1;paint-order:normal" />
      <path
         inkscape:connector-curvature="0"
         id="rect5663-92-7-1-06-941-1-8-9-68"
         transform="scale(0.26458333)"
         d="m 650,-49.054688 v 10 10 10 10.0000005 h 10 10 v -10.0000005 -10 -10 -10 h -10 z"
         style="opacity:1;vector-effect:none;fill:#e4dad1;fill-opacity:1;fill-rule:nonzero;stroke:none;stroke-width:70.67716217;stroke-linecap:round;stroke-linejoin:round;stroke-miterlimit:4;stroke-dasharray:none;stroke-dashoffset:0;stroke-opacity:1;paint-order:normal" />
      <path
         inkscape:connector-curvature="0"
         id="rect5663-92-7-1-06-941-1-8-9-5-5-90"
         transform="scale(0.26458333)"
         d="m 670,-49.054688 v 10 10 10 10.0000005 10 h 10 v -10 -10.0000005 -10 -10 -10 z"
         style="opacity:1;vector-effect:none;fill:#b4a19a;fill-opacity:1;fill-rule:nonzero;stroke:none;stroke-width:70.67716217;stroke-linecap:round;stroke-linejoin:round;stroke-miterlimit:4;stroke-dasharray:none;stroke-dashoffset:0;stroke-opacity:1;paint-order:normal" />
      <path
         inkscape:connector-curvature="0"
         id="rect5663-92-7-1-06-941-1-8-9-5-5-42-0"
         transform="scale(0.26458333)"
         d="m 820,-49.054688 v 10 10 10 10.0000005 10 h 10 v -10 -10.0000005 -10 -10 -10 z"
         style="opacity:1;vector-effect:none;fill:#b4a19a;fill-opacity:1;fill-rule:nonzero;stroke:none;stroke-width:70.67716217;stroke-linecap:round;stroke-linejoin:round;stroke-miterlimit:4;stroke-dasharray:none;stroke-dashoffset:0;stroke-opacity:1;paint-order:normal" />
      <path
         inkscape:connector-curvature="0"
         id="rect5663-92-7-1-06-941-1-8-9-9-8"
         transform="scale(0.26458333)"
         d="m 830,-49.054688 v 10 10 10 10.0000005 h 10 10 v -10.0000005 -10 -10 -10 h -10 z"
         style="opacity:1;vector-effect:none;fill:#e4dad1;fill-opacity:1;fill-rule:nonzero;stroke:none;stroke-width:70.67716217;stroke-linecap:round;stroke-linejoin:round;stroke-miterlimit:4;stroke-dasharray:none;stroke-dashoffset:0;stroke-opacity:1;paint-order:normal" />
      <path
         inkscape:connector-curvature="0"
         id="rect5663-92-7-1-06-941-1-8-9-5-5-6-9-0"
         transform="scale(0.26458333)"
         d="m 710,70.945312 v 10 h 10 10 10 10 10 10 10 10 v -10 h -10 -10 -10 -10 -10 -10 -10 z"
         style="opacity:1;vector-effect:none;fill:#b4a19a;fill-opacity:1;fill-rule:nonzero;stroke:none;stroke-width:70.67716217;stroke-linecap:round;stroke-linejoin:round;stroke-miterlimit:4;stroke-dasharray:none;stroke-dashoffset:0;stroke-opacity:1;paint-order:normal" />
      <path
         inkscape:connector-curvature="0"
         id="rect5663-92-7-1-06-941-1-8-9-5-5-6-80-0"
         transform="scale(0.26458333)"
         d="m 690,-29.054688 v 10 10.0000005 h 10 10 v -10.0000005 -10 h -10 z m 100,0 v 10 10.0000005 h 10 10 v -10.0000005 -10 h -10 z m -70,40 v 10 10 h 10 v 10 h 10 10 10 10 v -10 h 10 v -10 -10 h -10 v 10 h -10 -10 -10 -10 v -10 z"
         style="opacity:1;vector-effect:none;fill:#5ce9f1;fill-opacity:1;fill-rule:nonzero;stroke:none;stroke-width:70.67716217;stroke-linecap:round;stroke-linejoin:round;stroke-miterlimit:4;stroke-dasharray:none;stroke-dashoffset:0;stroke-opacity:1;paint-order:normal" />
      <path
         inkscape:connector-curvature="0"
         id="rect5663-92-7-1-06-941-1-8-9-5-5-6-57-0-3-853-5"
         transform="scale(0.26458333)"
         d="m 680,-49.054688 v 10 10 10 10.0000005 10 h 10 v 9.9999995 h 10 10 v 10 10 10 10 10 10 h 10 10 10 10 10 10 10 10 v -10 -10 -10 -10 -10 -10 h 10 10 V 0.9453125 h 10 v -10 -10.0000005 -10 -10 -10 h -10 -10 -10 -10 v 10 10 10 h -10 v 10.0000005 h -10 v 10 h -10 -10 v -10 H 730 V -19.054688 h -10 v -10 -10 -10 h -10 -10 -10 z m 10,20 h 10 10 v 10 10.0000005 H 700 690 V -19.054688 Z m 100,0 h 10 10 v 10 10.0000005 H 800 790 V -19.054688 Z m -70,40 h 10 v 10 h 10 10 10 10 v -10 h 10 v 10 10 h -10 v 10 h -10 -10 -10 -10 v -10 h -10 v -10 z"
         style="opacity:1;vector-effect:none;fill:#032842;fill-opacity:1;fill-rule:nonzero;stroke:none;stroke-width:70.67716217;stroke-linecap:round;stroke-linejoin:round;stroke-miterlimit:4;stroke-dasharray:none;stroke-dashoffset:0;stroke-opacity:1;paint-order:normal" />
      <path
         inkscape:connector-curvature="0"
         id="rect5663-92-7-1-06-941-1-8-9-5-5-6-57-0-3-2-31-6-55-3-1"
         transform="scale(0.26458333)"
         d="m 810,100.94531 v 10 h -10 -10 -10 -10 -10 -10 -10 -10 -10 v 10 h 10 10 10 10 10 10 10 10 10 v 10 h 10 10 10 v -10 h 10 v -10 h -10 v -10 h -10 -10 z"
         style="opacity:1;vector-effect:none;fill:#8c7b71;fill-opacity:1;fill-rule:nonzero;stroke:none;stroke-width:70.67716217;stroke-linecap:round;stroke-linejoin:round;stroke-miterlimit:4;stroke-dasharray:none;stroke-dashoffset:0;stroke-opacity:1;paint-order:normal" />
      <path
         inkscape:connector-curvature="0"
         id="rect5663-92-7-1-06-941-1-8-9-5-5-6-57-0-3-2-31-4"
         transform="scale(0.26458333)"
         d="m 630,60.945312 v 10 10 10 9.999998 10 10 10 h 10 10 10 v 10 h 10 10 10 10 10 10 10 10 10 10 10 10 10 10 10 10 10 10 v -10 h -10 -10 -10 v -10 h -10 -10 -10 -10 -10 -10 -10 -10 -10 v -10 h 10 10 10 10 10 10 10 10 10 v -10 h 10 10 10 v 10 h 10 v 10 h -10 v 10 h 10 10 10 v -10 -10 -10 -9.999998 -10 -10 -10 h -10 v 10 h -10 -10 v 10 h -10 -10 v 10 h -10 -10 v 9.999998 h -10 v -9.999998 -10 h -10 -10 -10 -10 -10 -10 -10 -10 v 10 9.999998 h -10 v -9.999998 h -10 -10 v -10 h -10 -10 v -10 h -10 -10 v -10 z"
         style="opacity:1;vector-effect:none;fill:#e4dad1;fill-opacity:1;fill-rule:nonzero;stroke:none;stroke-width:70.67716217;stroke-linecap:round;stroke-linejoin:round;stroke-miterlimit:4;stroke-dasharray:none;stroke-dashoffset:0;stroke-opacity:1;paint-order:normal" />
      <path
         inkscape:connector-curvature="0"
         id="rect5663-92-7-1-06-941-1-8-9-5-5-6-57-0-3-2-31-6-30-6-77"
         transform="scale(0.26458333)"
         d="m 630,130.94531 v 10 10 h 10 v 10 h 10 10 10 10 10 10 10 10 10 10 10 10 10 10 10 10 10 10 10 10 10 10 v -10 h 10 v -10 -10 h -10 -10 -10 v 10 h -10 -10 -10 -10 -10 -10 -10 -10 -10 -10 -10 -10 -10 -10 -10 -10 -10 -10 v -10 h -10 -10 z"
         style="opacity:1;vector-effect:none;fill:#c5bcb4;fill-opacity:1;fill-rule:nonzero;stroke:none;stroke-width:70.67716217;stroke-linecap:round;stroke-linejoin:round;stroke-miterlimit:4;stroke-dasharray:none;stroke-dashoffset:0;stroke-opacity:1;paint-order:normal" />
      <path
         inkscape:connector-curvature="0"
         id="rect5663-92-7-1-06-941-1-8-9-5-5-6-57-0-3-2-31-6-30-6-33-79"
         transform="scale(0.26458333)"
         d="m 650,160.94531 v 10 h 10 v 10 h 10 10 10 10 10 10 10 10 10 10 10 10 10 10 10 10 10 10 v -10 h 10 v -10 h -10 -10 -10 -10 -10 -10 -10 -10 -10 -10 -10 -10 -10 -10 -10 -10 -10 -10 -10 z"
         style="opacity:1;vector-effect:none;fill:#928d90;fill-opacity:1;fill-rule:nonzero;stroke:none;stroke-width:70.67716217;stroke-linecap:round;stroke-linejoin:round;stroke-miterlimit:4;stroke-dasharray:none;stroke-dashoffset:0;stroke-opacity:1;paint-order:normal" />
      <path
         inkscape:connector-curvature="0"
         id="rect5663-81"
         transform="scale(0.26458333)"
         d="m 750,-409.05469 v 10 10 10 10 10 10 10 10 10 10 10 10 10 10 10 10 10 10 10 h 10 v 10 h 10 10 v -10 -10 -10 -10 -10 -10 -10 h 10 v -10 -10 -10 -10 -10 h 10 v -10 -10 -10 -10 h -10 v -10 h -10 v -10 h -10 v -10 h -10 v -10 z"
         style="opacity:1;vector-effect:none;fill:#2b71ad;fill-opacity:1;fill-rule:nonzero;stroke:none;stroke-width:70.67716217;stroke-linecap:round;stroke-linejoin:round;stroke-miterlimit:4;stroke-dasharray:none;stroke-dashoffset:0;stroke-opacity:1;paint-order:normal" />
      <path
         inkscape:connector-curvature="0"
         id="rect5663-56-3"
         transform="scale(0.26458333)"
         d="m 740,-409.05469 v 10 h -10 v 10 h -10 v 10 h -10 v 10 h -10 v 10 10 10 10 h 10 v 10 10 10 10 10 h 10 v 10 10 10 10 10 10 10 h 10 10 v -10 h 10 v -10 -10 -10 -10 -10 -10 -10 -10 -10 -10 -10 -10 -10 -10 -10 -10 -10 -10 -10 z"
         style="opacity:1;vector-effect:none;fill:#3387d0;fill-opacity:1;fill-rule:nonzero;stroke:none;stroke-width:70.67716217;stroke-linecap:round;stroke-linejoin:round;stroke-miterlimit:4;stroke-dasharray:none;stroke-dashoffset:0;stroke-opacity:1;paint-order:normal" />
    </g>
  </g>
</svg>
