<?xml version="1.0" encoding="UTF-8" standalone="no"?>
<!-- Created with Inkscape (http://www.inkscape.org/) -->

<svg
   xmlns:dc="http://purl.org/dc/elements/1.1/"
   xmlns:cc="http://creativecommons.org/ns#"
   xmlns:rdf="http://www.w3.org/1999/02/22-rdf-syntax-ns#"
   xmlns:svg="http://www.w3.org/2000/svg"
   xmlns="http://www.w3.org/2000/svg"
   xmlns:xlink="http://www.w3.org/1999/xlink"
   xmlns:sodipodi="http://sodipodi.sourceforge.net/DTD/sodipodi-0.dtd"
   xmlns:inkscape="http://www.inkscape.org/namespaces/inkscape"
   width="470.3121mm"
   height="61.09137mm"
   viewBox="0 0 470.3121 61.09137"
   version="1.1"
   id="svg1972"
   inkscape:version="0.92.2 (5c3e80d, 2017-08-06)"
   sodipodi:docname="Title.svg">
  <defs
     id="defs1966">
    <linearGradient
       inkscape:collect="always"
       xlink:href="#linearGradient1182"
       id="linearGradient1176"
       x1="244.95813"
       y1="-69.602394"
       x2="244.95813"
       y2="-20.928411"
       gradientUnits="userSpaceOnUse" />
    <linearGradient
       inkscape:collect="always"
       id="linearGradient1182">
      <stop
         style="stop-color:#e0f3fb;stop-opacity:1"
         offset="0"
         id="stop1178" />
      <stop
         id="stop1184"
         offset="0.37343156"
         style="stop-color:#96c1e5;stop-opacity:1" />
      <stop
         style="stop-color:#2e73b8;stop-opacity:1"
         offset="0.53347367"
         id="stop1186" />
      <stop
         style="stop-color:#2b71ad;stop-opacity:1"
         offset="1"
         id="stop1180" />
    </linearGradient>
    <inkscape:path-effect
       effect="perspective-envelope"
       up_left_point="77.050811,-69.450299"
       up_right_point="424.34681,-69.450299"
       down_left_point="54.101631,-20.65354"
       down_right_point="447.29599,-20.65354"
       id="path-effect1172-5"
       is_visible="true"
       deform_type="perspective"
       horizontal_mirror="false"
       vertical_mirror="true"
       overflow_perspective="false" />
    <linearGradient
       inkscape:collect="always"
       xlink:href="#linearGradient1182"
       id="linearGradient2631"
       gradientUnits="userSpaceOnUse"
       x1="244.95813"
       y1="-69.602394"
       x2="244.95813"
       y2="-20.928411" />
    <linearGradient
       inkscape:collect="always"
       xlink:href="#linearGradient1182"
       id="linearGradient2633"
       gradientUnits="userSpaceOnUse"
       x1="244.95813"
       y1="-69.602394"
       x2="244.95813"
       y2="-20.928411" />
    <linearGradient
       inkscape:collect="always"
       xlink:href="#linearGradient1182"
       id="linearGradient2635"
       gradientUnits="userSpaceOnUse"
       x1="244.95813"
       y1="-69.602394"
       x2="244.95813"
       y2="-20.928411" />
    <linearGradient
       inkscape:collect="always"
       xlink:href="#linearGradient1182"
       id="linearGradient2637"
       gradientUnits="userSpaceOnUse"
       x1="244.95813"
       y1="-69.602394"
       x2="244.95813"
       y2="-20.928411" />
    <linearGradient
       inkscape:collect="always"
       xlink:href="#linearGradient1182"
       id="linearGradient2639"
       gradientUnits="userSpaceOnUse"
       x1="244.95813"
       y1="-69.602394"
       x2="244.95813"
       y2="-20.928411" />
    <linearGradient
       inkscape:collect="always"
       xlink:href="#linearGradient1182"
       id="linearGradient2641"
       gradientUnits="userSpaceOnUse"
       x1="244.95813"
       y1="-69.602394"
       x2="244.95813"
       y2="-20.928411" />
    <linearGradient
       inkscape:collect="always"
       xlink:href="#linearGradient1182"
       id="linearGradient2643"
       gradientUnits="userSpaceOnUse"
       x1="244.95813"
       y1="-69.602394"
       x2="244.95813"
       y2="-20.928411" />
    <linearGradient
       inkscape:collect="always"
       xlink:href="#linearGradient1182"
       id="linearGradient2645"
       gradientUnits="userSpaceOnUse"
       x1="244.95813"
       y1="-69.602394"
       x2="244.95813"
       y2="-20.928411" />
    <linearGradient
       inkscape:collect="always"
       xlink:href="#linearGradient1182"
       id="linearGradient2647"
       gradientUnits="userSpaceOnUse"
       x1="244.95813"
       y1="-69.602394"
       x2="244.95813"
       y2="-20.928411" />
  </defs>
  <sodipodi:namedview
     id="base"
     pagecolor="#ffffff"
     bordercolor="#666666"
     borderopacity="1.0"
     inkscape:pageopacity="0.0"
     inkscape:pageshadow="2"
     inkscape:zoom="0.35"
     inkscape:cx="231.63592"
     inkscape:cy="-84.551743"
     inkscape:document-units="mm"
     inkscape:current-layer="layer1"
     showgrid="false"
     fit-margin-top="0"
     fit-margin-left="0"
     fit-margin-right="0"
     fit-margin-bottom="0"
     inkscape:window-width="1920"
     inkscape:window-height="1057"
     inkscape:window-x="1592"
     inkscape:window-y="-8"
     inkscape:window-maximized="1" />
  <metadata
     id="metadata1969">
    <rdf:RDF>
      <cc:Work
         rdf:about="">
        <dc:format>image/svg+xml</dc:format>
        <dc:type
           rdf:resource="http://purl.org/dc/dcmitype/StillImage" />
        <dc:title></dc:title>
      </cc:Work>
    </rdf:RDF>
  </metadata>
  <g
     inkscape:label="Layer 1"
     inkscape:groupmode="layer"
     id="layer1"
     transform="translate(-19.5999,-26.817411)">
    <g
       id="g3092"
       transform="translate(0.75595189,-371.2619)"
       style="stroke:none;stroke-width:1;stroke-miterlimit:4;stroke-dasharray:none;stroke-opacity:1">
      <g
         style="fill:#15121b;fill-opacity:1;stroke:none;stroke-width:1;stroke-miterlimit:4;stroke-dasharray:none;stroke-opacity:1"
         transform="translate(8.509004,611.20325)"
         id="g2210">
        <path
           inkscape:connector-curvature="0"
           style="font-style:normal;font-variant:normal;font-weight:normal;font-stretch:normal;font-size:96px;line-height:1.25;font-family:Games;-inkscape-font-specification:'Games, Normal';font-variant-ligatures:normal;font-variant-caps:normal;font-variant-numeric:normal;font-feature-settings:normal;text-align:start;letter-spacing:0px;word-spacing:0px;writing-mode:lr-tb;text-anchor:start;fill:#15121b;fill-opacity:1;stroke:none;stroke-width:3.77952766;stroke-miterlimit:4;stroke-dasharray:none;stroke-opacity:1"
           d="m 1374.4922,-805.50781 c -0.5334,0 -1.0685,0.097 -1.6055,0.29101 h -96.0215 l 40.5254,229.85938 h 59.2656 l -13.3828,-64.87305 -4.8281,-23.41211 h 8.4922 l 59.1074,88.28516 h 66.1797 l -64.9394,-92.35742 c 12.2081,-4.72895 21.1498,-13.00396 26.8183,-24.73047 2.5972,-5.04329 4.142,-10.49458 4.6406,-16.34571 0.09,-0.43196 0.1777,-0.86337 0.2676,-1.29492 0.09,-0.43132 0.077,-0.86202 -0.037,-1.29297 0.2368,-0.64603 0.3869,-1.61495 0.4512,-2.90429 l 0.1445,-2.89453 c 0.089,-0.42804 0.077,-0.85559 -0.037,-1.28321 -0.1145,-0.42742 -0.1279,-0.8542 -0.039,-1.28125 0.089,-0.42682 0.077,-0.85285 -0.037,-1.27929 -0.1716,-0.63927 -0.2118,-1.17197 -0.123,-1.59766 l -0.1719,-0.63867 c 0.01,-1.48728 -0.1587,-2.86574 -0.5,-4.13672 -0.1383,-1.26924 -0.3057,-2.64286 -0.5,-4.11914 -0.6461,-3.15549 -1.4916,-6.29988 -2.5351,-9.4336 -0.9509,-3.53846 -2.4806,-7.37425 -4.5879,-11.50195 l -0.084,-0.30859 -1.8867,-3.69727 -0.084,-0.30664 c -7.1349,-12.61625 -16.5509,-23.26246 -28.2364,-32.0039 -1.3768,-0.79038 -2.4341,-1.4804 -3.1718,-2.07227 l -0.6602,-0.29688 c -4.0202,-2.75588 -8.4424,-5.20805 -13.2656,-7.36132 -4.6169,-2.14802 -9.3957,-3.80543 -14.3399,-4.97266 -4.7433,-1.16568 -9.1489,-1.74805 -13.2226,-1.74805 -0.5301,-0.19398 -1.0623,-0.29101 -1.5957,-0.29101 z m -34.1133,54.29492 h 44.9961 c 3.7997,0 7.315,1.34268 10.5527,4.03125 3.2474,2.69658 5.3471,6.02581 6.295,9.99609 0.952,3.98771 0.4412,7.35873 -1.5391,10.10743 -1.9863,2.75705 -4.9103,4.13867 -8.7695,4.13867 h -45.7032 z"
           transform="scale(0.26458333)"
           id="path1129-7-1" />
        <path
           inkscape:connector-curvature="0"
           style="font-style:normal;font-variant:normal;font-weight:normal;font-stretch:normal;font-size:96px;line-height:1.25;font-family:Games;-inkscape-font-specification:'Games, Normal';font-variant-ligatures:normal;font-variant-caps:normal;font-variant-numeric:normal;font-feature-settings:normal;text-align:start;letter-spacing:0px;word-spacing:0px;writing-mode:lr-tb;text-anchor:start;fill:#15121b;fill-opacity:1;stroke:none;stroke-width:1;stroke-miterlimit:4;stroke-dasharray:none;stroke-opacity:1"
           d="m 331.51945,-152.03257 c 0,0 -16.03534,0 -16.03534,0 0,0 -7.54604,-24.90238 -7.54604,-24.90238 0,0 -2.30176,24.90238 -2.30176,24.90238 0,0 -16.03533,0 -16.03533,0 0,0 -15.34766,-60.93716 -15.34766,-60.93716 0,0 14.24522,0 14.24522,0 0,0 5.997,21.35479 5.997,21.35479 0,0 2.62714,-21.35479 2.62714,-21.35479 0,0 14.24523,0 14.24523,0 0,0 7.05313,21.35479 7.05313,21.35479 0,0 1.57099,-21.35479 1.57099,-21.35479 0,0 14.29626,-0.154 14.29626,-0.154 0,0 -2.76884,61.09116 -2.76884,61.09116 z"
           id="path1127-2-6" />
        <path
           inkscape:connector-curvature="0"
           style="font-style:normal;font-variant:normal;font-weight:normal;font-stretch:normal;font-size:96px;line-height:1.25;font-family:Games;-inkscape-font-specification:'Games, Normal';font-variant-ligatures:normal;font-variant-caps:normal;font-variant-numeric:normal;font-feature-settings:normal;text-align:start;letter-spacing:0px;word-spacing:0px;writing-mode:lr-tb;text-anchor:start;fill:#15121b;fill-opacity:1;stroke:none;stroke-width:1;stroke-miterlimit:4;stroke-dasharray:none;stroke-opacity:1"
           d="m 219.7008,-185.72706 c 0.49259,0.69194 0.94881,1.53064 1.36887,2.51762 0.47649,0.99094 0.84111,2.04454 1.09325,3.16156 0.30841,1.12209 0.50573,2.279 0.59121,3.47119 0.14542,1.13788 0.15846,2.19053 0.0383,3.15685 0,0 -1.42219,21.28862 -1.42219,21.28862 0,0 -15.68378,0 -15.68378,0 0,0 2.06029,-21.28862 2.06029,-21.28862 0.11104,-1.14708 -0.18433,-2.10899 -0.88401,-2.88782 -0.64217,-0.77641 -1.48763,-1.16371 -2.53785,-1.16371 0,0 -14.92425,0 -14.92425,0 0,0 -1.0981,8.16953 -1.0981,8.16953 0,0 -2.30796,17.17062 -2.30796,17.17062 0,0 -15.68378,0 -15.68378,0 0,0 10.00108,-60.83851 10.00108,-60.83851 0,0 13.86021,0 13.86021,0 0,0 -1.92123,14.29341 -1.92123,14.29341 0,0 -0.75707,5.63242 -0.75707,5.63242 0,0 14.45748,0 14.45748,0 0.74965,0 1.42055,-0.2792 2.0117,-0.83663 0.58977,-0.55615 0.92249,-1.22182 0.99897,-1.99612 0,0 1.68841,-17.09308 1.68841,-17.09308 0,0 13.93722,0 13.93722,0 0,0 -1.17322,17.09308 -1.17322,17.09308 1.6e-4,0.7743 -0.1103,1.60668 -0.33197,2.49774 -0.1689,0.89437 -0.44779,1.82018 -0.83738,2.77775 -0.3332,0.90472 -0.71963,1.78439 -1.1595,2.63873 -0.44143,0.85734 -0.90306,1.60281 -1.38469,2.23537 z"
           id="path1123-2-3" />
        <path
           inkscape:connector-curvature="0"
           style="font-style:normal;font-variant:normal;font-weight:normal;font-stretch:normal;font-size:96px;line-height:1.25;font-family:Games;-inkscape-font-specification:'Games, Normal';font-variant-ligatures:normal;font-variant-caps:normal;font-variant-numeric:normal;font-feature-settings:normal;text-align:start;letter-spacing:0px;word-spacing:0px;writing-mode:lr-tb;text-anchor:start;fill:#15121b;fill-opacity:1;stroke:none;stroke-width:1;stroke-miterlimit:4;stroke-dasharray:none;stroke-opacity:1"
           d="m 65.916901,-169.48629 c 0,0 -6.457936,17.15789 -6.457936,17.15789 0,0 -15.764976,0 -15.764976,0 0,0 10.293788,-25.32152 10.293788,-25.32152 0,0 -16.742309,0 -16.742309,0 0,0 -3.593309,8.16363 -3.593309,8.16363 0,0 -7.552231,17.15789 -7.552231,17.15789 0,0 -15.764976,0 -15.764976,0 0,0 28.592122,-60.79533 28.592122,-60.79533 0,0 13.932574,0 13.932574,0 0,0 -6.287143,14.28374 -6.287143,14.28374 0,0 -2.477455,5.62853 -2.477455,5.62853 0,0 16.218858,0 16.218858,0 0,0 8.094797,-19.91227 8.094797,-19.91227 0,0 13.932576,0 13.932576,0 0,0 -5.376153,14.28374 -5.376153,14.28374 0,0 -2.118477,5.62853 -2.118477,5.62853 0,0 -5.857103,15.56154 -5.857103,15.56154 0,0 -3.072647,8.16363 -3.072647,8.16363 z"
           id="path2175" />
        <path
           inkscape:connector-curvature="0"
           style="font-style:normal;font-variant:normal;font-weight:normal;font-stretch:normal;font-size:96px;line-height:1.25;font-family:Games;-inkscape-font-specification:'Games, Normal';font-variant-ligatures:normal;font-variant-caps:normal;font-variant-numeric:normal;font-feature-settings:normal;text-align:start;letter-spacing:0px;word-spacing:0px;writing-mode:lr-tb;text-anchor:start;fill:#15121b;fill-opacity:1;stroke:none;stroke-width:3.77952766;stroke-miterlimit:4;stroke-dasharray:none;stroke-opacity:1"
           d="m 393.14844,-804.3418 c -9.12185,0 -18.25527,1.74991 -27.42774,5.25977 -9.14105,3.32783 -17.82675,8.04582 -26.07226,14.17969 -8.10616,6.17676 -15.44862,13.4057 -22.0293,21.70898 -6.4428,8.38103 -11.43137,17.35877 -14.94922,26.95117 l -59.13867,161.25781 h 13.55273 12.13477 7.57422 13.12109 12.89453 l 24.66016,-73.22851 h 64.37695 l -22.18554,73.22851 h 13.1875 12.5 7.57422 14.27148 11.74414 l 44.01953,-161.25781 c 2.61857,-9.5924 3.27366,-18.57014 1.99414,-26.95117 -1.06987,-8.30328 -3.78794,-15.53222 -8.13867,-21.70898 -4.32053,-6.13387 -9.98447,-10.85186 -16.99609,-14.17969 -6.92663,-3.50986 -14.84364,-5.25977 -23.77149,-5.25977 z m -17.80078,54.0586 h 33.91406 c 3.60147,0 6.29082,1.34187 8.07226,4.0332 1.98751,2.69938 2.38374,6.03341 1.17969,10.00781 l -8.11914,26.80469 h -62.30664 l 9.02539,-26.80469 c 1.33838,-3.9744 3.76724,-7.30843 7.28125,-10.00781 3.50351,-2.69133 7.15147,-4.0332 10.95313,-4.0332 z"
           transform="scale(0.26458333)"
           id="path2171" />
        <path
           inkscape:connector-curvature="0"
           style="font-style:normal;font-variant:normal;font-weight:normal;font-stretch:normal;font-size:96px;line-height:1.25;font-family:Games;-inkscape-font-specification:'Games, Normal';font-variant-ligatures:normal;font-variant-caps:normal;font-variant-numeric:normal;font-feature-settings:normal;text-align:start;letter-spacing:0px;word-spacing:0px;writing-mode:lr-tb;text-anchor:start;fill:#15121b;fill-opacity:1;stroke:none;stroke-width:1;stroke-miterlimit:4;stroke-dasharray:none;stroke-opacity:1"
           d="m 168.50763,-169.30184 c 0,0 -2.9967,17.26927 -2.9967,17.26927 0,0 -27.53895,0 -27.53895,0 -2.73066,0 -5.15507,-0.55851 -7.26646,-1.67197 -2.02868,-1.17379 -3.68397,-2.76299 -4.96529,-4.75996 -1.2715,-1.98166 -2.08142,-4.26396 -2.43436,-6.83873 -0.29308,-2.54903 -0.0583,-5.25639 0.69571,-8.11661 0,0 5.67934,-21.54398 5.67934,-21.54398 0.66859,-2.53624 1.74309,-4.91013 3.21838,-7.1261 1.51389,-2.19541 3.28453,-4.10636 5.31179,-5.73952 2.01317,-1.62183 4.15544,-2.86974 6.43077,-3.74963 2.33027,-0.92803 4.69827,-1.39066 7.11098,-1.39066 0,0 24.33237,0 24.33237,0 0,0 -2.48029,14.29341 -2.48029,14.29341 0,0 -25.08451,0 -25.08451,0 -0.95258,0 -1.88094,0.355 -2.78711,1.06659 -0.85575,0.71372 -1.40693,1.59507 -1.65245,2.64591 0,0 -5.03358,21.54398 -5.03358,21.54398 -0.26925,1.15235 -0.13319,2.12686 0.41037,2.92143 0.60143,0.79709 1.40849,1.19657 2.41976,1.19657 0,0 26.63023,0 26.63023,0 z"
           id="path2163" />
        <path
           inkscape:connector-curvature="0"
           style="font-style:normal;font-variant:normal;font-weight:normal;font-stretch:normal;font-size:96px;line-height:1.25;font-family:Games;-inkscape-font-specification:'Games, Normal';font-variant-ligatures:normal;font-variant-caps:normal;font-variant-numeric:normal;font-feature-settings:normal;text-align:start;letter-spacing:0px;word-spacing:0px;writing-mode:lr-tb;text-anchor:start;fill:#15121b;fill-opacity:1;stroke:none;stroke-width:1;stroke-miterlimit:4;stroke-dasharray:none;stroke-opacity:1"
           d="m 273.84871,-169.30184 c 0,0 0.59794,17.26927 0.59794,17.26927 0,0 -27.53894,0 -27.53894,0 -2.73065,0 -5.27131,-0.55851 -7.61449,-1.67197 -2.27299,-1.17379 -4.25909,-2.76299 -5.95609,-4.75996 -1.68398,-1.98166 -2.96896,-4.26396 -3.85785,-6.83873 -0.82368,-2.54903 -1.15243,-5.25639 -0.99379,-8.11661 0,0 1.19491,-21.54398 1.19491,-21.54398 0.14067,-2.53624 0.72103,-4.91013 1.73506,-7.1261 1.05692,-2.19541 2.42978,-4.10636 4.11707,-5.73952 1.6756,-1.62183 3.55812,-2.86974 5.6503,-3.74963 2.1371,-0.92803 4.40881,-1.39066 6.82152,-1.39066 0,0 24.33237,0 24.33237,0 0,0 0.49491,14.29341 0.49491,14.29341 0,0 -25.08451,0 -25.08451,0 -0.95258,0 -1.80705,0.355 -2.56509,1.06659 -0.70718,0.71372 -1.07492,1.59507 -1.1017,2.64591 0,0 -0.54916,21.54398 -0.54916,21.54398 -0.0294,1.15235 0.30954,2.12686 1.01849,2.92143 0.76734,0.79709 1.65755,1.19657 2.66884,1.19657 0,0 26.63021,0 26.63021,0 z"
           id="path2155" />
        <path
           inkscape:connector-curvature="0"
           style="font-style:normal;font-variant:normal;font-weight:normal;font-stretch:normal;font-size:96px;line-height:1.25;font-family:Games;-inkscape-font-specification:'Games, Normal';font-variant-ligatures:normal;font-variant-caps:normal;font-variant-numeric:normal;font-feature-settings:normal;text-align:start;letter-spacing:0px;word-spacing:0px;writing-mode:lr-tb;text-anchor:start;fill:#15121b;fill-opacity:1;stroke:none;stroke-width:1;stroke-miterlimit:4;stroke-dasharray:none;stroke-opacity:1"
           d="m 433.65612,-195.04695 c 0,0 7.95087,21.53636 7.95087,21.53636 1.05557,2.85919 1.54772,5.56556 1.46682,8.11366 -0.0478,2.51073 -0.59992,4.7598 -1.66209,6.73999 -1.07038,1.99548 -2.58644,3.58349 -4.5486,4.7564 -1.99342,1.11262 -4.32911,1.67071 -7.00066,1.67071 0,0 -5.74963,0 -5.74963,0 0,0 -3.8331,0 -3.8331,0 -2.72963,0 -5.45429,-0.55809 -8.1653,-1.67071 -2.66085,-1.17291 -5.17249,-2.76092 -7.53018,-4.7564 -2.33962,-1.98019 -4.37108,-4.22926 -6.09508,-6.73999 -1.66796,-2.5481 -2.89357,-5.25447 -3.6825,-8.11366 0,0 -5.94255,-21.53636 -5.94255,-21.53636 0,0 -4.9667,-17.99979 -4.9667,-17.99979 0,0 13.8579,0 13.8579,0 0,0 5.50622,17.99979 5.50622,17.99979 0,0 6.58808,21.53636 6.58808,21.53636 0.35239,1.15193 1.01407,2.12609 1.98614,2.92037 1.03124,0.7968 2.05363,1.19614 3.06472,1.19614 0,0 3.70733,0 3.70733,0 0,0 5.561,0 5.561,0 1.06725,0 1.83198,-0.39934 2.29308,-1.19614 0.45966,-0.79428 0.4929,-1.76844 0.10216,-2.92037 0,0 -7.30534,-21.53636 -7.30534,-21.53636 0,0 -6.1057,-17.99979 -6.1057,-17.99979 0,0 6.08208,0 6.08208,0 0,0 1.69374,0 1.69374,0 0,0 6.08208,0 6.08208,0 0,0 6.64521,17.99979 6.64521,17.99979 z"
           id="path2139" />
        <path
           inkscape:connector-curvature="0"
           style="font-style:normal;font-variant:normal;font-weight:normal;font-stretch:normal;font-size:96px;line-height:1.25;font-family:Games;-inkscape-font-specification:'Games, Normal';font-variant-ligatures:normal;font-variant-caps:normal;font-variant-numeric:normal;font-feature-settings:normal;text-align:start;letter-spacing:0px;word-spacing:0px;writing-mode:lr-tb;text-anchor:start;fill:#15121b;fill-opacity:1;stroke:none;stroke-width:1;stroke-miterlimit:4;stroke-dasharray:none;stroke-opacity:1"
           d="m 465.87318,-213.12373 c 0,0 1.77044,0 1.77044,0 0,0 1.9244,0 1.9244,0 0,0 4.07969,0 4.07969,0 0,0 0.077,0 0.077,0 0,0 6.71765,14.28374 6.71765,14.28374 0,0 0.11068,23.61136 0.11068,23.61136 0,0 0.094,14.94172 0.094,14.94172 0,0 -0.018,7.95851 -0.018,7.95851 0,0 -17.41986,0 -17.41986,0 0,0 1.36231,-46.51159 1.36231,-46.51159 0,0 -27.77393,0 -27.77393,0 0,0 -5.40946,-14.28374 -5.40946,-14.28374 0,0 12.16213,0 12.16213,0 0,0 5.15737,0 5.15737,0 0,0 13.93258,0 13.93258,0 0,0 3.23298,0 3.23298,0 z"
           id="path2135" />
      </g>
      <g
         style="fill:url(#linearGradient1176);fill-opacity:1;stroke:none;stroke-width:0.79875326;stroke-miterlimit:4;stroke-dasharray:none;stroke-opacity:1"
         transform="matrix(1.2519511,0,0,1.2519511,-49.027778,485.0278)"
         inkscape:path-effect="#path-effect1172-5"
         id="g1170">
        <path
           inkscape:original-d="m 93.361788,-33.392209 v 12.529838 H 80.76234 V -39.657128 H 66.701079 v 6.264919 12.529838 H 54.101631 v -48.587927 h 12.599448 v 12.529838 4.733494 H 80.76234 v -17.263332 h 12.599448 v 12.529838 4.733494 12.529838 z m -5.499206,7.100242 v -1.601035 -17.263332 -1.531425 -15.731908 -1.531425 h -1.601035 v 17.263333 H 61.201873 v -15.731908 -1.531425 h -1.601035 v 37.659125 h 1.601035 v -1.601035 -17.263332 h 25.059674 v 18.864367 z"
           inkscape:connector-curvature="0"
           id="path1117"
           style="font-style:normal;font-variant:normal;font-weight:normal;font-stretch:normal;font-size:96px;line-height:1.25;font-family:Games;-inkscape-font-specification:'Games, Normal';font-variant-ligatures:normal;font-variant-caps:normal;font-variant-numeric:normal;font-feature-settings:normal;text-align:start;letter-spacing:0px;word-spacing:0px;writing-mode:lr-tb;text-anchor:start;fill:url(#linearGradient2631);fill-opacity:1;stroke:none;stroke-width:0.79875326;stroke-miterlimit:4;stroke-dasharray:none;stroke-opacity:1"
           d="m 98.609023,-34.594757 c 0,0 -5.158297,13.704921 -5.158297,13.704921 0,0 -12.592326,0 -12.592326,0 0,0 8.222197,-20.225645 8.222197,-20.225645 0,0 -13.372974,0 -13.372974,0 0,0 -2.870167,6.520724 -2.870167,6.520724 0,0 -6.032369,13.704921 -6.032369,13.704921 0,0 -12.592326,0 -12.592326,0 0,0 22.83805,-48.560463 22.83805,-48.560463 0,0 11.128689,0 11.128689,0 0,0 -5.021876,11.409184 -5.021876,11.409184 0,0 -1.978875,4.495801 -1.978875,4.495801 0,0 12.954865,0 12.954865,0 0,0 6.465746,-15.904985 6.465746,-15.904985 0,0 11.12869,0 11.12869,0 0,0 -4.29422,11.409184 -4.29422,11.409184 0,0 -1.69214,4.495801 -1.69214,4.495801 0,0 -4.67838,12.429833 -4.67838,12.429833 0,0 -2.454287,6.520724 -2.454287,6.520724 z m -8.297189,7.653637 c 0,0 0.682093,-1.75103 0.682093,-1.75103 0,0 7.00236,-17.976058 7.00236,-17.976058 0,0 0.59164,-1.518825 0.59164,-1.518825 0,0 5.822463,-14.947104 5.822463,-14.947104 0,0 0.54307,-1.394138 0.54307,-1.394138 0,0 -1.43299,0 -1.43299,0 0,0 -6.428125,16.341242 -6.428125,16.341242 0,0 -23.409097,0 -23.409097,0 0,0 6.775762,-14.947104 6.775762,-14.947104 0,0 0.631985,-1.394138 0.631985,-1.394138 0,0 -1.432994,0 -1.432994,0 0,0 -17.18282,37.587155 -17.18282,37.587155 0,0 1.576953,0 1.576953,0 0,0 0.79377,-1.75103 0.79377,-1.75103 0,0 8.148836,-17.976058 8.148836,-17.976058 0,0 23.500148,0 23.500148,0 0,0 -7.760007,19.727088 -7.760007,19.727088 0,0 1.576953,0 1.576953,0 z" />
        <path
           inkscape:original-d="m 120.92417,-69.171857 q 3.20207,0 6.05609,1.252983 2.85402,1.183374 5.01193,3.341291 2.15792,2.157916 3.34129,5.011935 1.25299,2.854018 1.25299,6.056088 v 32.78641 h -5.49921 v -32.78641 -0.348051 -0.348051 q -0.0696,-0.208831 -0.0696,-0.626492 -0.27844,-1.879476 -1.18337,-3.48051 -0.83533,-1.601035 -2.22753,-2.784409 -1.32259,-1.252984 -3.06285,-1.879476 -1.67065,-0.696102 -3.61973,-0.696102 h -7.86595 q -1.94909,0 -3.68935,0.696102 -1.74025,0.626492 -3.13246,1.879476 -1.32259,1.183374 -2.22752,2.784409 -0.83532,1.601034 -1.04416,3.48051 -0.0696,0.208831 -0.0696,0.487272 0,0.13922 -0.0696,0.20883 0,0 0,0.139221 v 0.487271 32.78641 h -5.429592 v -32.78641 q 0,-3.20207 1.183373,-6.056088 1.252984,-2.854019 3.341289,-5.011935 2.15792,-2.157917 5.01194,-3.341291 2.85402,-1.252983 6.1257,-1.252983 z m 3.13246,28.679407 h 5.4296 v 19.7693 h -5.4296 v -14.200483 h -14.13087 v 14.200483 h -5.49921 v -19.7693 h 5.49921 z m 5.4296,-13.01711 v 5.847258 1.392204 1.601035 2.575578 h -5.4296 -14.13087 -5.49921 v -0.139221 -2.436357 -1.601035 -1.392204 -5.847258 q 0,-1.740255 0.6961,-3.27168 0.6961,-1.601035 1.80987,-2.784408 1.18337,-1.183374 2.71479,-1.809866 1.60104,-0.696102 3.41091,-0.696102 h 7.86595 q 1.67064,0 3.13246,0.626492 1.46181,0.556882 2.57558,1.531425 1.11376,0.974543 1.80986,2.366747 0.76571,1.392204 0.97454,2.923629 0.0696,0.13922 0.0696,0.556881 v 0.348052 z m -5.4296,0 q 0,-1.322594 -0.97454,-2.227527 -0.90494,-0.904932 -2.15792,-0.904932 h -7.86595 q -1.3226,0 -2.22753,0.904932 -0.90493,0.904933 -0.90493,2.227527 v 5.847258 h 14.13087 z"
           inkscape:connector-curvature="0"
           id="path1119"
           style="font-style:normal;font-variant:normal;font-weight:normal;font-stretch:normal;font-size:96px;line-height:1.25;font-family:Games;-inkscape-font-specification:'Games, Normal';font-variant-ligatures:normal;font-variant-caps:normal;font-variant-numeric:normal;font-feature-settings:normal;text-align:start;letter-spacing:0px;word-spacing:0px;writing-mode:lr-tb;text-anchor:start;fill:url(#linearGradient2633);fill-opacity:1;stroke:none;stroke-width:0.79875326;stroke-miterlimit:4;stroke-dasharray:none;stroke-opacity:1"
           d="m 135.99662,-69.204197 c 1.88678,0 3.5599,0.369769 5.02375,1.11153 1.48181,0.70329 2.67899,1.700727 3.59208,2.997042 0.91947,1.305374 1.49389,2.832787 1.71999,4.587571 0.27041,1.771221 0.13206,3.668675 -0.42134,5.695904 0,0 -9.30312,34.079815 -9.30312,34.079815 0,0 -5.49817,0 -5.49817,0 0,0 9.75145,-34.079815 9.75145,-34.079815 0,0 0.095,-0.331994 0.095,-0.331994 0,0 0.0948,-0.33142 0.0948,-0.33142 -0.005,-0.132408 0.0309,-0.330848 0.10658,-0.595115 0.16981,-1.184702 0.1236,-2.275126 -0.13682,-3.272823 -0.21707,-0.992477 -0.63811,-1.851289 -1.26218,-2.578219 -0.56731,-0.766646 -1.31428,-1.339585 -2.24123,-1.720576 -0.87062,-0.422417 -1.88709,-0.633269 -3.05088,-0.633269 0,0 -7.04512,0 -7.04512,0 -1.1638,0 -2.33595,0.210852 -3.51846,0.633269 -1.17072,0.380991 -2.30517,0.95393 -3.40492,1.720576 -1.04743,0.72693 -2.01806,1.585742 -2.91235,2.578219 -0.85677,0.997697 -1.55845,2.088121 -2.10417,3.272823 -0.0892,0.132088 -0.16493,0.286306 -0.2273,0.462708 -0.0312,0.08826 -0.0759,0.154484 -0.13405,0.198645 0,0 -0.0469,0.132546 -0.0469,0.132546 0,0 -0.16436,0.46463 -0.16436,0.46463 0,0 -12.05552,34.079815 -12.05552,34.079815 0,0 -5.428565,0 -5.428565,0 0,0 12.498165,-34.079815 12.498165,-34.079815 0.74345,-2.027229 1.79783,-3.924683 3.15943,-5.695904 1.39074,-1.754784 2.94235,-3.282197 4.65548,-4.587571 1.74258,-1.296315 3.578,-2.293752 5.50984,-2.997042 1.93848,-0.741761 3.86872,-1.11153 5.79651,-1.11153 0,0 6.95235,0 6.95235,0 z m -5.48236,27.235154 c 0,0 5.15273,0 5.15273,0 0,0 -6.15791,21.236708 -6.15791,21.236708 0,0 -5.42858,0 -5.42858,0 0,0 4.68854,-15.47605 4.68854,-15.47605 0,0 -13.60506,0 -13.60506,0 0,0 -5.21169,15.47605 -5.21169,15.47605 0,0 -5.49817,0 -5.49817,0 0,0 7.43102,-21.236708 7.43102,-21.236708 0,0 5.21879,0 5.21879,0 0,0 13.41033,0 13.41033,0 z m 8.87679,-12.843107 c 0,0 -1.64257,5.664705 -1.64257,5.664705 0,0 -0.39825,1.373468 -0.39825,1.373468 0,0 -0.46149,1.591511 -0.46149,1.591511 0,0 -0.75032,2.587629 -0.75032,2.587629 0,0 -5.13162,0 -5.13162,0 0,0 -13.35537,0 -13.35537,0 0,0 -5.19741,0 -5.19741,0 0,0 0.0493,-0.140744 0.0493,-0.140744 0,0 0.8562,-2.446885 0.8562,-2.446885 0,0 0.55689,-1.591511 0.55689,-1.591511 0,0 0.4806,-1.373468 0.4806,-1.373468 0,0 1.98215,-5.664705 1.98215,-5.664705 0.38645,-1.104417 0.95958,-2.136791 1.71818,-3.098234 0.76984,-0.999981 1.61704,-1.865269 2.54195,-2.59767 0.96323,-0.729575 1.96928,-1.285589 3.01931,-1.669563 1.1039,-0.425721 2.19735,-0.638221 3.28223,-0.638221 0,0 7.07259,0 7.07259,0 1.00142,0 1.88188,0.191239 2.64253,0.574302 0.77502,0.341155 1.40848,0.811255 1.90049,1.411264 0.49356,0.601919 0.8244,1.335405 0.99191,2.201978 0.21056,0.870543 0.23982,1.788915 0.0865,2.755782 0.0169,0.08814 -0.013,0.26454 -0.0898,0.529447 0,0 -0.0962,0.331651 -0.0962,0.331651 0,0 -0.0578,0.199264 -0.0578,0.199264 z m -4.98592,0 c 0.25446,-0.839937 0.17078,-1.544407 -0.24926,-2.114884 -0.37648,-0.568776 -0.94487,-0.852529 -1.706,-0.852529 0,0 -7.16735,0 -7.16735,0 -0.80343,0 -1.57453,0.283753 -2.31495,0.852529 -0.74264,0.570477 -1.25576,1.274947 -1.53861,2.114884 0,0 -1.90764,5.664705 -1.90764,5.664705 0,0 13.16766,0 13.16766,0 0,0 1.71615,-5.664705 1.71615,-5.664705 z" />
        <path
           inkscape:original-d="m 178.16008,-33.252988 v 12.599448 h -21.99683 q -3.27168,0 -6.1257,-1.183374 -2.78441,-1.252983 -4.94232,-3.4109 -2.15792,-2.157917 -3.4109,-5.011935 -1.18338,-2.854019 -1.18338,-6.125699 V -53.64878 q 0,-3.20207 1.18338,-6.056089 1.25298,-2.854018 3.4109,-5.011935 2.15791,-2.157916 4.94232,-3.34129 2.85402,-1.252984 6.1257,-1.252984 h 21.99683 v 12.529838 h -21.99683 q -1.25298,0 -2.22753,0.904933 -0.90493,0.904933 -0.90493,2.227527 v 17.263332 q 0,1.322594 0.90493,2.227527 0.97455,0.904933 2.22753,0.904933 z m -3.13246,7.100241 v -1.601035 h -18.86437 q -8.63167,0 -8.63167,-8.631666 V -53.64878 q 0,-8.631667 8.63167,-8.631667 h 18.86437 v -1.531424 h -18.86437 q -10.16309,0 -10.16309,10.163091 v 17.263332 q 0,10.232701 10.16309,10.232701 z"
           inkscape:connector-curvature="0"
           id="path1121"
           style="font-style:normal;font-variant:normal;font-weight:normal;font-stretch:normal;font-size:96px;line-height:1.25;font-family:Games;-inkscape-font-specification:'Games, Normal';font-variant-ligatures:normal;font-variant-caps:normal;font-variant-numeric:normal;font-feature-settings:normal;text-align:start;letter-spacing:0px;word-spacing:0px;writing-mode:lr-tb;text-anchor:start;fill:url(#linearGradient2635);fill-opacity:1;stroke:none;stroke-width:0.79875326;stroke-miterlimit:4;stroke-dasharray:none;stroke-opacity:1"
           d="m 180.5537,-34.447421 c 0,0 -2.39362,13.793881 -2.39362,13.793881 0,0 -21.99683,0 -21.99683,0 -2.18112,0 -4.11763,-0.446113 -5.80411,-1.335488 -1.62041,-0.93757 -2.94258,-2.206949 -3.96604,-3.802036 -1.01561,-1.582857 -1.66254,-3.40585 -1.94445,-5.462454 -0.2341,-2.036048 -0.0466,-4.198559 0.5557,-6.483173 0,0 4.53639,-17.208325 4.53639,-17.208325 0.53404,-2.02583 1.3923,-3.92198 2.57069,-5.691992 1.20923,-1.753589 2.62353,-3.279968 4.24281,-4.584462 1.60803,-1.295442 3.31917,-2.29221 5.1366,-2.99503 1.86131,-0.741267 3.75276,-1.110789 5.67992,-1.110789 0,0 19.43556,0 19.43556,0 0,0 -1.98114,11.416905 -1.98114,11.416905 0,0 -20.03634,0 -20.03634,0 -0.76087,0 -1.5024,0.283558 -2.22621,0.851944 -0.68353,0.570083 -1.12379,1.274067 -1.3199,2.113424 0,0 -4.02059,17.208325 -4.02059,17.208325 -0.21506,0.920443 -0.10638,1.698837 0.32779,2.333506 0.48039,0.636673 1.12503,0.955764 1.93279,0.955764 0,0 21.27098,0 21.27098,0 z m -4.41559,7.659271 c 0,0 0.31721,-1.752328 0.31721,-1.752328 0,0 -18.50845,0 -18.50845,0 -5.64588,0 -7.7008,-3.111922 -6.19921,-9.196213 0,0 4.24697,-17.208325 4.24697,-17.208325 1.33579,-5.412481 4.57536,-8.061866 9.74677,-8.061866 0,0 16.95307,0 16.95307,0 0,0 0.25254,-1.395081 0.25254,-1.395081 0,0 -16.89011,0 -16.89011,0 -6.06631,0 -9.87592,3.100095 -11.46806,9.456947 0,0 -4.31002,17.208325 -4.31002,17.208325 -1.81163,7.233188 0.5958,10.948541 7.27176,10.948541 0,0 18.58753,0 18.58753,0 z" />
        <path
           inkscape:original-d="m 215.67237,-26.988069 h 1.60103 v -9.397379 -0.626492 -0.20883 -0.208831 q -0.20883,-1.740255 -0.90493,-3.13246 -0.0696,-0.20883 -0.20883,-0.487271 -0.55688,-1.044153 -1.04415,-1.601035 -1.67065,-2.227527 -4.17662,-3.20207 2.36675,-0.974543 3.89818,-3.27168 l 0.0696,-0.06961 q 0.13922,-0.278441 0.27844,-0.487271 0.20883,-0.278441 0.34805,-0.626492 l 0.20883,-0.417661 q 0,-0.06961 0.0696,-0.139221 0,-0.06961 0,-0.13922 0.0696,-0.06961 0.0696,-0.139221 0.55688,-1.322594 0.55688,-2.366747 0.0696,-0.348051 0.0696,-0.904933 v -9.397378 h -1.60103 v 9.397378 0.06961 q 0,0.27844 0,0.556881 0,0.278441 -0.0696,0.556882 v 0.06961 q -0.0696,0.139221 -0.0696,0.278441 0,0.13922 -0.0696,0.278441 -0.0696,0.556882 -0.41767,1.252984 -0.0696,0.13922 -0.13922,0.348051 -0.0696,0.13922 -0.13922,0.348051 -0.0696,0.06961 -0.13922,0.13922 0,0.06961 -0.0696,0.139221 -0.0696,0.06961 -0.0696,0.13922 0,0 -0.0696,0.06961 -1.04415,1.601035 -2.78441,2.575578 -1.74025,0.974543 -3.82856,0.974543 h -12.52984 -5.4992 v -15.662298 -1.531424 h -1.53143 v 37.589514 h 1.53143 v -1.531425 -17.263332 h 5.4992 12.52984 q 2.08831,0 3.82856,0.904933 1.80987,0.835322 2.99324,2.366747 0.34805,0.487271 0.62649,0.974543 0.27845,0.417661 0.55689,0.974543 0.13922,0.417661 0.20883,0.835322 0.13922,0.417662 0.27844,0.835323 0.13922,0.417661 0.13922,0.835322 0,0.417662 0,0.904933 z m 3.75895,-19.073198 q 0.6961,0.835322 1.32259,2.018696 0.69611,1.183374 1.11377,2.505968 0.48727,1.322594 0.6961,2.714798 0.27844,1.322594 0.20883,2.436357 v 15.662298 h -12.52984 v -15.662298 q 0,-1.322594 -0.97454,-2.227527 -0.90493,-0.904932 -2.22753,-0.904932 h -12.52984 v 6.264919 12.529838 h -12.52983 v -48.587928 h 12.52983 v 12.529838 4.733495 h 12.52984 q 0.97454,0 1.67065,-0.696103 0.6961,-0.696102 0.6961,-1.670645 v -14.896585 h 12.59945 v 14.896585 q 0.0696,0.974543 -0.13922,2.088307 -0.13922,1.113763 -0.55688,2.297137 -0.34806,1.113763 -0.83533,2.157916 -0.48727,1.044153 -1.04415,1.809866 z"
           inkscape:connector-curvature="0"
           id="path1123"
           style="font-style:normal;font-variant:normal;font-weight:normal;font-stretch:normal;font-size:96px;line-height:1.25;font-family:Games;-inkscape-font-specification:'Games, Normal';font-variant-ligatures:normal;font-variant-caps:normal;font-variant-numeric:normal;font-feature-settings:normal;text-align:start;letter-spacing:0px;word-spacing:0px;writing-mode:lr-tb;text-anchor:start;fill:url(#linearGradient2637);fill-opacity:1;stroke:none;stroke-width:0.79875326;stroke-miterlimit:4;stroke-dasharray:none;stroke-opacity:1"
           d="m 216.26315,-27.704272 c 0,0 1.57403,0 1.57403,0 0,0 0.8022,-10.032419 0.8022,-10.032419 0,0 0.0521,-0.651441 0.0521,-0.651441 0,0 0.0173,-0.216676 0.0173,-0.216676 0,0 0.0173,-0.216443 0.0173,-0.216443 -0.037,-1.198205 -0.23776,-2.270467 -0.60126,-3.218758 -0.0324,-0.141853 -0.0848,-0.30722 -0.15716,-0.496043 -0.29282,-0.706486 -0.57652,-1.246421 -0.85149,-1.621159 -0.92018,-1.491867 -2.13207,-2.557197 -3.63716,-3.202835 1.53581,-0.643515 2.84508,-1.718955 3.92531,-3.219192 0,0 0.0704,-0.06792 0.0704,-0.06792 0.10161,-0.180999 0.20121,-0.339234 0.2988,-0.474761 0.14435,-0.180557 0.26898,-0.383481 0.37389,-0.608704 0,0 0.22715,-0.404741 0.22715,-0.404741 0.004,-0.04492 0.029,-0.08983 0.0756,-0.134726 0,0 0.0112,-0.134632 0.0112,-0.134632 0.0466,-0.04486 0.0718,-0.0897 0.0755,-0.134538 0.41297,-0.849903 0.64613,-1.607177 0.70069,-2.272892 0.0607,-0.221393 0.10553,-0.508822 0.13442,-0.861991 0,0 0.71387,-8.727822 0.71387,-8.727822 0,0 -1.43348,0 -1.43348,0 0,0 -0.74729,8.727822 -0.74729,8.727822 0,0 -0.006,0.06617 -0.006,0.06617 0,0 -0.0454,0.53018 -0.0454,0.53018 -0.0152,0.177053 -0.0516,0.35427 -0.10948,0.531651 0,0 -0.006,0.06656 -0.006,0.06656 -0.0503,0.08878 -0.0792,0.177607 -0.0869,0.266471 -0.008,0.08891 -0.0366,0.177852 -0.087,0.266841 -0.0734,0.356364 -0.23646,0.758063 -0.48942,1.20538 -0.0506,0.08959 -0.10329,0.201631 -0.15793,0.336169 -0.0507,0.08974 -0.10347,0.201983 -0.15821,0.336756 -0.0469,0.04494 -0.0937,0.0899 -0.14064,0.134866 -0.004,0.04498 -0.0294,0.08996 -0.0763,0.134961 -0.0469,0.04501 -0.0724,0.09003 -0.0764,0.135055 0,0 -0.0704,0.06756 -0.0704,0.06756 -0.73838,1.038926 -1.6778,1.87864 -2.81809,2.516518 -1.14403,0.639974 -2.36782,0.96075 -3.66856,0.96075 0,0 -11.70661,0 -11.70661,0 0,0 -5.1379,0 -5.1379,0 0,0 2.1971,-14.888631 2.1971,-14.888631 0,0 0.20587,-1.395081 0.20587,-1.395081 0,0 -1.37116,0 -1.37116,0 0,0 -5.67684,37.537314 -5.67684,37.537314 0,0 1.50867,0 1.50867,0 0,0 0.2473,-1.67583 0.2473,-1.67583 0,0 2.65462,-17.989069 2.65462,-17.989069 0,0 5.1588,0 5.1588,0 0,0 11.75423,0 11.75423,0 1.30603,0 2.47373,0.300769 3.50547,0.903694 1.08292,0.558191 1.95098,1.351683 2.6044,2.383316 0.19066,0.329379 0.35964,0.659308 0.5069,0.989787 0.1516,0.283707 0.29934,0.615213 0.44328,0.994755 0.064,0.285133 0.10596,0.570676 0.1259,0.856629 0,0 0.19291,0.86033 0.19291,0.86033 0.0645,0.287603 0.0847,0.575621 0.0605,0.864055 0,0 -0.0788,0.940291 -0.0788,0.940291 0,0 -0.84065,10.03242 -0.84065,10.03242 z m 5.18126,-19.862848 c 0.39346,0.552687 0.75787,1.222606 1.09339,2.010953 0.3806,0.791521 0.67184,1.633084 0.87324,2.52531 0.24634,0.896269 0.40395,1.820355 0.47223,2.772621 0.11615,0.908889 0.12657,1.749699 0.0306,2.521545 0,0 -1.13598,17.004356 -1.13598,17.004356 0,0 -12.52747,0 -12.52747,0 0,0 1.64566,-17.004356 1.64566,-17.004356 0.0887,-0.916236 -0.14723,-1.684562 -0.7061,-2.306656 -0.51294,-0.620159 -1.18825,-0.929515 -2.02712,-0.929515 0,0 -11.92079,0 -11.92079,0 0,0 -0.87711,6.525441 -0.87711,6.525441 0,0 -1.84349,13.715086 -1.84349,13.715086 0,0 -12.52747,0 -12.52747,0 0,0 7.98839,-48.594954 7.98839,-48.594954 0,0 11.07089,0 11.07089,0 0,0 -1.53459,11.416905 -1.53459,11.416905 0,0 -0.60471,4.498909 -0.60471,4.498909 0,0 11.54796,0 11.54796,0 0.59878,0 1.13467,-0.223012 1.60685,-0.668261 0.47108,-0.444221 0.73684,-0.975932 0.79793,-1.594405 0,0 1.34862,-13.653148 1.34862,-13.653148 0,0 11.1324,0 11.1324,0 0,0 -0.93711,13.653148 -0.93711,13.653148 1.3e-4,0.618473 -0.0881,1.283343 -0.26516,1.995083 -0.13491,0.714381 -0.35768,1.453868 -0.66886,2.218736 -0.26615,0.722646 -0.57481,1.425286 -0.92616,2.107688 -0.35259,0.684803 -0.72132,1.280251 -1.10602,1.785514 z" />
        <path
           inkscape:original-d="m 265.17284,-33.252988 v 12.599448 h -21.99682 q -3.27168,0 -6.1257,-1.183374 -2.78441,-1.252983 -4.94233,-3.4109 -2.15791,-2.157917 -3.4109,-5.011935 -1.18337,-2.854019 -1.18337,-6.125699 V -53.64878 q 0,-3.20207 1.18337,-6.056089 1.25299,-2.854018 3.4109,-5.011935 2.15792,-2.157916 4.94233,-3.34129 2.85402,-1.252984 6.1257,-1.252984 h 21.99682 v 12.529838 h -21.99682 q -1.25299,0 -2.22753,0.904933 -0.90493,0.904933 -0.90493,2.227527 v 17.263332 q 0,1.322594 0.90493,2.227527 0.97454,0.904933 2.22753,0.904933 z m -3.13246,7.100241 v -1.601035 h -18.86436 q -8.63167,0 -8.63167,-8.631666 V -53.64878 q 0,-8.631667 8.63167,-8.631667 h 18.86436 v -1.531424 h -18.86436 q -10.1631,0 -10.1631,10.163091 v 17.263332 q 0,10.232701 10.1631,10.232701 z"
           inkscape:connector-curvature="0"
           id="path1125"
           style="font-style:normal;font-variant:normal;font-weight:normal;font-stretch:normal;font-size:96px;line-height:1.25;font-family:Games;-inkscape-font-specification:'Games, Normal';font-variant-ligatures:normal;font-variant-caps:normal;font-variant-numeric:normal;font-feature-settings:normal;text-align:start;letter-spacing:0px;word-spacing:0px;writing-mode:lr-tb;text-anchor:start;fill:url(#linearGradient2639);fill-opacity:1;stroke:none;stroke-width:0.79875326;stroke-miterlimit:4;stroke-dasharray:none;stroke-opacity:1"
           d="m 264.69523,-34.447421 c 0,0 0.47761,13.793881 0.47761,13.793881 0,0 -21.99682,0 -21.99682,0 -2.18112,0 -4.21048,-0.446113 -6.0821,-1.335488 -1.81556,-0.93757 -3.40196,-2.206949 -4.75745,-3.802036 -1.34508,-1.582857 -2.37146,-3.40585 -3.08147,-5.462454 -0.65791,-2.036048 -0.9205,-4.198559 -0.79379,-6.483173 0,0 0.95444,-17.208325 0.95444,-17.208325 0.11236,-2.02583 0.57592,-3.92198 1.38588,-5.691992 0.84422,-1.753589 1.9408,-3.279968 3.28853,-4.584462 1.33839,-1.295442 2.84206,-2.29221 4.51319,-2.99503 1.70702,-0.741267 3.52155,-1.110789 5.44871,-1.110789 0,0 19.43556,0 19.43556,0 0,0 0.39531,11.416905 0.39531,11.416905 0,0 -20.03633,0 -20.03633,0 -0.76088,0 -1.44339,0.283558 -2.04887,0.851944 -0.56487,0.570083 -0.8586,1.274067 -0.87999,2.113424 0,0 -0.43864,17.208325 -0.43864,17.208325 -0.0235,0.920443 0.24724,1.698837 0.81352,2.333506 0.61291,0.636673 1.32397,0.955764 2.13174,0.955764 0,0 21.27097,0 21.27097,0 z m -2.82129,7.659271 c 0,0 -0.0475,-1.752328 -0.0475,-1.752328 0,0 -18.50845,0 -18.50845,0 -5.64587,0 -8.34855,-3.111922 -8.11342,-9.196213 0,0 0.66501,-17.208325 0.66501,-17.208325 0.20916,-5.412481 2.89726,-8.061866 8.06867,-8.061866 0,0 16.95306,0 16.95306,0 0,0 -0.0378,-1.395081 -0.0378,-1.395081 0,0 -16.8901,0 -16.8901,0 -6.06632,0 -9.23064,3.100095 -9.49959,9.456947 0,0 -0.72805,17.208325 -0.72805,17.208325 -0.30602,7.233188 2.87477,10.948541 9.55074,10.948541 0,0 18.58752,0 18.58752,0 z" />
        <path
           inkscape:original-d="m 293.56619,-63.3246 h 0.90494 l 8.00517,37.798345 h 3.68934 l 8.35323,-39.329769 h -1.60104 l -8.00517,37.728734 h -1.11376 l -8.07479,-37.728734 h -3.4109 l -8.07478,37.798345 h -1.11377 l -8.07478,-37.867956 h -1.53143 l 8.35323,39.39938 h 3.61973 z m 17.19373,42.67106 h -12.80828 l -3.96778,-18.446706 -3.89818,18.446706 h -12.80827 l -10.37193,-48.657538 h 12.87789 l 3.89817,18.446706 3.89818,-18.446706 h 12.87789 l 3.89817,18.446706 3.89817,-18.446706 12.9475,-0.13922 z"
           inkscape:connector-curvature="0"
           id="path1127"
           style="font-style:normal;font-variant:normal;font-weight:normal;font-stretch:normal;font-size:96px;line-height:1.25;font-family:Games;-inkscape-font-specification:'Games, Normal';font-variant-ligatures:normal;font-variant-caps:normal;font-variant-numeric:normal;font-feature-settings:normal;text-align:start;letter-spacing:0px;word-spacing:0px;writing-mode:lr-tb;text-anchor:start;fill:url(#linearGradient2641);fill-opacity:1;stroke:none;stroke-width:0.79875326;stroke-miterlimit:4;stroke-dasharray:none;stroke-opacity:1"
           d="m 289.1253,-63.959199 c 0,0 0.81119,0 0.81119,0 0,0 11.8654,37.860826 11.8654,37.860826 0,0 3.64128,0 3.64128,0 0,0 2.25228,-39.248856 2.25228,-39.248856 0,0 -1.42987,0 -1.42987,0 0,0 -2.28709,37.490666 -2.28709,37.490666 0,0 -1.09456,0 -1.09456,0 0,0 -11.97377,-37.490666 -11.97377,-37.490666 0,0 -3.04622,0 -3.04622,0 0,0 -4.19733,37.566798 -4.19733,37.566798 0,0 -1.09478,0 -1.09478,0 0,0 -10.12914,-37.629646 -10.12914,-37.629646 0,0 -1.36747,0 -1.36747,0 0,0 10.39043,39.311704 10.39043,39.311704 0,0 3.57258,0 3.57258,0 0,0 4.08707,-37.860826 4.08707,-37.860826 z m 21.63462,43.305659 c 0,0 -12.80828,0 -12.80828,0 0,0 -6.02742,-19.890855 -6.02742,-19.890855 0,0 -1.83854,19.890855 -1.83854,19.890855 0,0 -12.80827,0 -12.80827,0 0,0 -12.259,-48.673749 -12.259,-48.673749 0,0 11.37842,0 11.37842,0 0,0 4.79012,17.057201 4.79012,17.057201 0,0 2.09844,-17.057201 2.09844,-17.057201 0,0 11.37842,0 11.37842,0 0,0 5.63371,17.057201 5.63371,17.057201 0,0 1.25484,-17.057201 1.25484,-17.057201 0,0 11.41918,-0.12301 11.41918,-0.12301 0,0 -2.21162,48.796759 -2.21162,48.796759 z" />
        <path
           inkscape:original-d="m 355.93151,-54.832154 q 0.0696,0.208831 0.0696,0.556882 0,0.348051 0,0.556882 v 0.696102 q 0,0.13922 -0.0696,0.348051 0,0.13922 0,0.278441 -0.0696,0.13922 -0.0696,0.13922 0,0.13922 -0.0696,0.278441 0,0.13922 0,0.278441 -0.13922,0.556881 -0.27845,0.835322 -0.13922,0.417661 -0.20883,0.556882 -0.0696,0.278441 -0.34805,0.696102 -0.27844,0.626492 -0.76571,1.183374 -1.18337,1.531424 -2.99324,2.436357 -1.74025,0.904933 -3.82856,0.904933 h -10.44153 -5.49921 v -17.263333 h 15.94074 q 1.25298,-0.06961 2.78441,0.487272 1.60103,0.556881 2.57558,1.322594 1.3922,1.113763 2.15791,2.645188 0.83533,1.461814 1.04416,3.062849 z m -5.4296,1.113764 q 0,-1.322595 -0.90493,-2.227527 -0.90494,-0.904933 -2.22753,-0.904933 h -10.44153 v 6.264919 h 10.44153 q 1.32259,0 2.22753,-0.904933 0.90493,-0.904932 0.90493,-2.227526 z m 7.03063,-1.113764 q -0.0696,-0.348051 -0.13922,-0.626492 0,-0.278441 -0.0696,-0.556881 -0.20883,-0.904933 -0.48727,-1.601035 l -0.20883,-0.417662 q -0.13922,-0.27844 -0.27844,-0.487271 -0.13922,-0.208831 -0.27844,-0.487272 l -0.20883,-0.417661 q -0.20883,-0.348051 -0.48728,-0.556882 -0.20883,-0.27844 -0.41766,-0.626491 -0.13922,0 -0.13922,-0.139221 l -0.20883,-0.20883 h -0.0696 q -0.41766,-0.417662 -0.6961,-0.626492 -0.13922,-0.139221 -0.13922,-0.139221 -0.6961,-0.556882 -1.87948,-1.183373 -0.27844,-0.139221 -0.48727,-0.208831 l -0.41766,-0.208831 q -0.27844,-0.06961 -0.55688,-0.13922 -0.20883,-0.06961 -0.48727,-0.139221 -1.39221,-0.348051 -2.43636,-0.348051 h -0.0696 -15.94074 -1.53142 v 37.659125 h 1.53142 v -1.531425 -2.505967 -13.225941 h 5.49921 5.29037 l 8.56206,17.263333 h 1.74026 L 343.95855,-43.5553 h 3.4109 q 2.15792,0 3.82856,-0.696102 0.27844,-0.13922 0.27844,-0.13922 2.22753,-0.904933 3.75895,-2.854019 0.20883,-0.20883 0.27844,-0.348051 0.0696,-0.06961 0.0696,-0.06961 0.13922,-0.139221 0.27844,-0.417661 0.0696,-0.139221 0.0696,-0.139221 0.0696,-0.06961 0.13922,-0.20883 0.20883,-0.208831 0.27844,-0.348051 v -0.139221 q 0.0696,0 0.0696,-0.06961 0.0696,-0.139221 0.13922,-0.278441 0.0696,-0.208831 0.13922,-0.348051 0.0696,-0.06961 0.0696,-0.06961 0,-0.06961 0.0696,-0.139221 0,-0.20883 0.13922,-0.348051 v -0.13922 q 0.0696,-0.139221 0.0696,-0.139221 0,-0.06961 0,-0.06961 0.0696,-0.06961 0.0696,-0.13922 0.34805,-0.974543 0.41766,-2.018696 0.13922,-1.044153 0,-2.088307 z m -10.16309,-14.548534 q 0.41766,-0.139221 0.76571,0 1.46182,0 3.06285,0.417661 1.67065,0.417661 3.13246,1.183374 1.53143,0.765712 2.7148,1.740255 0.13922,0.06961 0.13922,0.06961 0.20883,0.208831 0.62649,0.487272 3.34129,3.062849 4.66389,7.378682 v 0.06961 l 0.20883,0.835323 v 0.06961 q 0.34805,1.392204 0.34805,2.575578 0.0696,1.044153 0,2.088306 -0.0696,0.487272 -0.13922,0.904933 0,0.417661 -0.13922,0.904933 v 0.13922 q -0.0696,0.139221 -0.0696,0.348051 0,0.139221 -0.0696,0.278441 -0.0696,0.139221 -0.0696,0.278441 0,0.13922 -0.0696,0.278441 l -0.20883,0.626492 q -0.13923,0.417661 -0.27845,0.626492 0,0.13922 -0.0696,0.27844 -0.0696,0.139221 -0.13922,0.278441 -0.6961,1.879476 -2.01869,3.480511 -2.92363,3.689341 -7.37868,5.151156 l 8.97971,18.098655 H 347.3695 l -8.56206,-17.263333 h -1.87947 v 4.733494 12.529839 h -12.52984 v -48.587928 z"
           inkscape:connector-curvature="0"
           id="path1129"
           style="font-style:normal;font-variant:normal;font-weight:normal;font-stretch:normal;font-size:96px;line-height:1.25;font-family:Games;-inkscape-font-specification:'Games, Normal';font-variant-ligatures:normal;font-variant-caps:normal;font-variant-numeric:normal;font-feature-settings:normal;text-align:start;letter-spacing:0px;word-spacing:0px;writing-mode:lr-tb;text-anchor:start;fill:url(#linearGradient2643);fill-opacity:1;stroke:none;stroke-width:0.79875326;stroke-miterlimit:4;stroke-dasharray:none;stroke-opacity:1"
           d="m 347.01565,-56.070679 c 0.0757,0.132088 0.14138,0.308348 0.19694,0.5289 0,0 0.1336,0.530365 0.1336,0.530365 0,0 0.16752,0.665023 0.16752,0.665023 0.0224,0.08884 0.029,0.199957 0.0199,0.333377 0,0 0.0672,0.267119 0.0672,0.267119 0,0 -0.0305,0.133698 -0.0305,0.133698 0.0224,0.08918 0.0235,0.178408 0.003,0.267675 0,0 0.0674,0.268048 0.0674,0.268048 0.004,0.357978 -0.0139,0.626897 -0.0547,0.806386 -0.0183,0.269545 -0.0376,0.449451 -0.058,0.539467 0.002,0.180157 -0.049,0.40559 -0.15347,0.676456 -0.0708,0.407009 -0.21205,0.792193 -0.42397,1.155419 -0.48744,1.00238 -1.22288,1.803428 -2.20668,2.400626 -0.94331,0.599028 -2.06895,0.89923 -3.37475,0.89923 0,0 -9.79345,0 -9.79345,0 0,0 -5.1579,0 -5.1579,0 0,0 -3.18104,-16.471631 -3.18104,-16.471631 0,0 14.32323,0 14.32323,0 0.74066,-0.04241 1.60949,0.106077 2.60796,0.445923 1.04206,0.340461 1.91333,0.74556 2.61372,1.215713 1.00659,0.685957 1.85978,1.503779 2.55945,2.455162 0.73453,0.912608 1.293,1.87339 1.67426,2.883044 0,0 -2e-5,0 -2e-5,0 z m -4.71667,1.059265 c -0.20033,-0.839068 -0.64409,-1.542809 -1.33039,-2.112696 -0.68426,-0.56819 -1.42713,-0.851651 -2.23014,-0.851651 0,0 -9.50928,0 -9.50928,0 0,0 1.23255,5.975218 1.23255,5.975218 0,0 9.65854,0 9.65854,0 0.81561,0 1.43378,-0.29199 1.85356,-0.874651 0.41851,-0.580904 0.52636,-1.293468 0.32516,-2.13622 z m 6.18206,-1.059265 c -0.0987,-0.219944 -0.1916,-0.417678 -0.27885,-0.59327 -0.0448,-0.17543 -0.1107,-0.350699 -0.19772,-0.525807 -0.27174,-0.567995 -0.54719,-1.069044 -0.82647,-1.503668 0,0 -0.28874,-0.390315 -0.28874,-0.390315 -0.12813,-0.173215 -0.25068,-0.324648 -0.36767,-0.454353 -0.11691,-0.129616 -0.23918,-0.280722 -0.3668,-0.453268 0,0 -0.2867,-0.387653 -0.2867,-0.387653 -0.18001,-0.21502 -0.37002,-0.38686 -0.57009,-0.515638 -0.16872,-0.171567 -0.34264,-0.364393 -0.52171,-0.578414 -0.0838,0 -0.13628,-0.04278 -0.15758,-0.128297 0,0 -0.23617,-0.19228 -0.23617,-0.19228 0,0 -0.0627,0 -0.0627,0 -0.31448,-0.25607 -0.57095,-0.447894 -0.76964,-0.575668 0,0 -0.15679,-0.127688 -0.15679,-0.127688 -0.50103,-0.340077 -1.15224,-0.700735 -1.95306,-1.081854 -0.18699,-0.08459 -0.34799,-0.148005 -0.48304,-0.19027 0,0 -0.42016,-0.190077 -0.42016,-0.190077 0,0 -0.52937,-0.126611 -0.52937,-0.126611 -0.1348,-0.04218 -0.29036,-0.08436 -0.46666,-0.126526 -0.88095,-0.210685 -1.63257,-0.315939 -2.25561,-0.315939 0,0 -0.0623,0 -0.0623,0 0,0 -14.26764,0 -14.26764,0 0,0 -1.37069,0 -1.37069,0 0,0 7.12124,37.587155 7.12124,37.587155 0,0 1.50839,0 1.50839,0 0,0 -0.32353,-1.675208 -0.32353,-1.675208 0,0 -0.52375,-2.712039 -0.52375,-2.712039 0,0 -2.65337,-13.739296 -2.65337,-13.739296 0,0 5.17803,0 5.17803,0 0,0 4.9814,0 4.9814,0 0,0 12.40178,18.126543 12.40178,18.126543 0,0 1.71409,0 1.71409,0 0,0 -12.47728,-18.126543 -12.47728,-18.126543 0,0 3.21169,0 3.21169,0 1.35459,0 2.50091,-0.232772 3.43727,-0.697493 0,0 0.22816,-0.139201 0.22816,-0.139201 1.24803,-0.602071 2.18934,-1.547749 2.82366,-2.832062 0.0955,-0.137105 0.15347,-0.251285 0.17384,-0.342582 0,0 0.0477,-0.06844 0.0477,-0.06844 0.0636,-0.09122 0.11568,-0.227974 0.15628,-0.41016 0,0 0.0304,-0.136529 0.0304,-0.136529 0.0317,-0.04549 0.0577,-0.1137 0.078,-0.204612 0.0951,-0.136289 0.15269,-0.249791 0.17289,-0.340544 0,0 -0.0344,-0.136051 -0.0344,-0.136051 0.0431,0 0.0589,-0.02267 0.0474,-0.06799 0.0202,-0.09062 0.0403,-0.181189 0.0605,-0.27172 0.009,-0.135718 0.0231,-0.248743 0.0432,-0.339115 0,0 0.0473,-0.06775 0.0473,-0.06775 -0.0115,-0.04515 -0.001,-0.0903 0.0301,-0.135434 -0.0344,-0.135338 -0.02,-0.248047 0.043,-0.338168 0,0 -0.0344,-0.135102 -0.0344,-0.135102 0,0 0.0301,-0.135008 0.0301,-0.135008 0,0 -0.0172,-0.06747 -0.0172,-0.06747 0.0315,-0.04497 0.0415,-0.08992 0.0301,-0.134866 0.0543,-0.628136 0.0172,-1.276558 -0.11082,-1.94505 -0.085,-0.666177 -0.25481,-1.33005 -0.509,-1.991633 0,0 -0.0168,-0.06603 -0.0168,-0.06603 z m -12.38193,-13.318125 c 0.22697,-0.08199 0.4524,-0.08199 0.67644,0 0.86093,0 1.79213,0.123051 2.79458,0.369399 1.04487,0.246676 2.05478,0.596699 3.0305,1.050655 1.01932,0.455069 1.95374,0.973552 2.80336,1.555975 0,0 0.1399,0.06251 0.1399,0.06251 0.15591,0.125085 0.3793,0.271123 0.67028,0.438164 2.46957,1.847386 4.45956,4.097105 5.96742,6.763387 0,0 0.0174,0.06497 0.0174,0.06497 0,0 0.39897,0.781432 0.39897,0.781432 0,0 0.0175,0.06526 0.0175,0.06526 0.44535,0.872338 0.76897,1.68282 0.96993,2.430631 0.22054,0.662268 0.3992,1.326831 0.53575,1.993701 0.0411,0.312 0.0762,0.602166 0.10543,0.870401 0.0721,0.268607 0.10742,0.560022 0.10591,0.874346 0,0 0.0362,0.134866 0.0362,0.134866 -0.0188,0.08996 -0.0102,0.202477 0.026,0.337579 0.0241,0.09012 0.0268,0.180283 0.008,0.270488 -0.0188,0.09025 -0.0162,0.180535 0.008,0.270866 0.0242,0.09037 0.0268,0.180787 0.008,0.271245 0,0 -0.0305,0.611691 -0.0305,0.611691 -0.0136,0.272482 -0.0454,0.477095 -0.0954,0.613624 0.0242,0.09107 0.0269,0.182186 0.008,0.273343 -0.019,0.0912 -0.0379,0.182444 -0.0569,0.273729 -0.10538,1.236556 -0.43164,2.388534 -0.98052,3.454366 -1.19796,2.47825 -3.08779,4.226952 -5.66782,5.226353 0,0 13.72417,19.518714 13.72417,19.518714 0,0 -13.98638,0 -13.98638,0 0,0 -12.49147,-18.658075 -12.49147,-18.658075 0,0 -1.79487,0 -1.79487,0 0,0 1.02068,4.948072 1.02068,4.948072 0,0 2.82807,13.710003 2.82807,13.710003 0,0 -12.52512,0 -12.52512,0 0,0 -8.56445,-48.577704 -8.56445,-48.577704 0,0 20.29321,0 20.29321,0 z" />
        <path
           inkscape:original-d="m 405.02628,-53.71839 v 17.263332 q 0,3.27168 -1.25298,6.125699 -1.18337,2.784408 -3.34129,4.942325 -2.15792,2.157916 -5.01194,3.4109 -2.85401,1.183374 -6.05608,1.183374 h -4.59428 -3.06285 q -3.27168,0 -6.1257,-1.183374 -2.7844,-1.252984 -4.94232,-3.4109 -2.15792,-2.157917 -3.4109,-4.942325 -1.18338,-2.854019 -1.18338,-6.125699 V -53.71839 -69.380688 h 12.52984 v 15.662298 17.263332 q 0,1.322594 0.90494,2.227527 0.97454,0.904932 2.22752,0.904932 h 3.06285 4.59428 q 1.32259,0 2.22752,-0.904932 0.90494,-0.904933 0.90494,-2.227527 V -53.71839 -69.380688 h 5.4992 1.53143 5.4992 z m -5.4992,17.263332 v -11.624905 -5.638427 -9.67582 h -1.53143 v 9.67582 4.107002 13.15633 q 0,8.631666 -8.63166,8.631666 h -4.59428 -3.06285 q -8.63166,0 -8.63166,-8.631666 v -13.852432 -3.4109 -9.67582 h -1.53143 v 9.67582 4.455053 12.808279 q 0,10.232701 10.16309,10.232701 h 3.06285 4.59428 q 10.16309,0 10.16309,-10.232701 z"
           inkscape:connector-curvature="0"
           id="path1131"
           style="font-style:normal;font-variant:normal;font-weight:normal;font-stretch:normal;font-size:96px;line-height:1.25;font-family:Games;-inkscape-font-specification:'Games, Normal';font-variant-ligatures:normal;font-variant-caps:normal;font-variant-numeric:normal;font-feature-settings:normal;text-align:start;letter-spacing:0px;word-spacing:0px;writing-mode:lr-tb;text-anchor:start;fill:url(#linearGradient2645);fill-opacity:1;stroke:none;stroke-width:0.79875326;stroke-miterlimit:4;stroke-dasharray:none;stroke-opacity:1"
           d="m 392.34192,-55.011414 c 0,0 6.35078,17.202236 6.35078,17.202236 0.84314,2.283786 1.23625,4.445508 1.17163,6.480811 -0.0382,2.005456 -0.47919,3.801911 -1.3276,5.383592 -0.85497,1.593897 -2.06593,2.862325 -3.63321,3.799193 -1.59225,0.888706 -3.45789,1.334482 -5.5918,1.334482 0,0 -4.59254,0 -4.59254,0 0,0 -3.0617,0 -3.0617,0 -2.1803,0 -4.35663,-0.445776 -6.52206,-1.334482 -2.12536,-0.936868 -4.13154,-2.205296 -6.01475,-3.799193 -1.86878,-1.581681 -3.49142,-3.378136 -4.86847,-5.383592 -1.33229,-2.035303 -2.31125,-4.197025 -2.94141,-6.480811 0,0 -4.74663,-17.202236 -4.74663,-17.202236 0,0 -3.96717,-14.37739 -3.96717,-14.37739 0,0 11.06905,0 11.06905,0 0,0 4.39811,14.37739 4.39811,14.37739 0,0 5.26225,17.202236 5.26225,17.202236 0.28147,0.92011 0.80999,1.698221 1.58643,2.33266 0.82371,0.636441 1.64035,0.955415 2.44796,0.955415 0,0 2.96124,0 2.96124,0 0,0 4.44187,0 4.44187,0 0.85247,0 1.4633,-0.318974 1.8316,-0.955415 0.36716,-0.634439 0.39371,-1.41255 0.0816,-2.33266 0,0 -5.83516,-17.202236 -5.83516,-17.202236 0,0 -4.87695,-14.37739 -4.87695,-14.37739 0,0 4.85808,0 4.85808,0 0,0 1.35288,0 1.35288,0 0,0 4.85808,0 4.85808,0 0,0 5.30789,14.37739 5.30789,14.37739 z m 1.07727,17.202236 c 0,0 -4.18277,-11.748427 -4.18277,-11.748427 0,0 -1.94171,-5.453809 -1.94171,-5.453809 0,0 -3.20821,-9.011101 -3.20821,-9.011101 0,0 -1.37254,0 -1.37254,0 0,0 3.17519,9.011101 3.17519,9.011101 0,0 1.39439,3.957249 1.39439,3.957249 0,0 4.66707,13.244987 4.66707,13.244987 2.14311,6.082074 0.41682,9.19285 -5.228,9.19285 0,0 -4.50677,0 -4.50677,0 0,0 -3.00451,0 -3.00451,0 -5.64482,0 -9.37791,-3.110776 -11.15844,-9.19285 0,0 -4.0755,-13.921443 -4.0755,-13.921443 0,0 -0.96045,-3.280793 -0.96045,-3.280793 0,0 -2.638,-9.011101 -2.638,-9.011101 0,0 -1.37254,0 -1.37254,0 0,0 2.60498,9.011101 2.60498,9.011101 0,0 1.24202,4.296364 1.24202,4.296364 0,0 3.73091,12.905872 3.73091,12.905872 2.09025,7.23055 6.50128,10.944529 13.176,10.944529 0,0 3.01734,0 3.01734,0 0,0 4.52602,0 4.52602,0 6.67472,0 8.6898,-3.713979 6.11552,-10.944529 z" />
        <path
           inkscape:original-d="m 440.19575,-69.450298 h 1.60104 1.74026 3.68934 0.0696 v 12.529838 l -9.18855,19.142808 -5.35999,11.207244 -2.78441,5.708037 H 416.041 l 17.33294,-36.058089 h -24.36357 v -12.529838 h 10.99841 4.66389 12.59945 z m 1.60104,11.276854 v -5.847258 h -10.02387 -1.60104 -15.66229 -1.60104 v 1.601035 h 27.2872 v 3.898172 l -15.38385,32.159918 h 1.74025 l 11.27686,-23.597862 1.3922,-2.784409 z"
           inkscape:connector-curvature="0"
           id="path1133"
           style="font-style:normal;font-variant:normal;font-weight:normal;font-stretch:normal;font-size:96px;line-height:1.25;font-family:Games;-inkscape-font-specification:'Games, Normal';font-variant-ligatures:normal;font-variant-caps:normal;font-variant-numeric:normal;font-feature-settings:normal;text-align:start;letter-spacing:0px;word-spacing:0px;writing-mode:lr-tb;text-anchor:start;fill:url(#linearGradient2647);fill-opacity:1;stroke:none;stroke-width:0.79875326;stroke-miterlimit:4;stroke-dasharray:none;stroke-opacity:1"
           d="m 418.0754,-69.450299 c 0,0 1.41414,0 1.41414,0 0,0 1.53712,0 1.53712,0 0,0 3.25867,0 3.25867,0 0,0 0.0615,0 0.0615,0 0,0 5.36575,11.409184 5.36575,11.409184 0,0 0.0884,18.859647 0.0884,18.859647 0,0 0.0751,11.934747 0.0751,11.934747 0,0 -0.0144,6.356885 -0.0144,6.356885 0,0 -13.91417,0 -13.91417,0 0,0 1.08815,-37.151279 1.08815,-37.151279 0,0 -22.18452,0 -22.18452,0 0,0 -4.32082,-11.409184 -4.32082,-11.409184 0,0 9.71454,0 9.71454,0 0,0 4.11947,0 4.11947,0 0,0 11.12869,0 11.12869,0 0,0 2.58235,0 2.58235,0 z m 6.09378,10.236634 c 0,0 -2.45841,-5.377734 -2.45841,-5.377734 0,0 -8.97028,0 -8.97028,0 0,0 -1.43275,0 -1.43275,0 0,0 -14.01605,0 -14.01605,0 0,0 -1.43276,0 -1.43276,0 0,0 0.56547,1.457262 0.56547,1.457262 0,0 24.51421,0 24.51421,0 0,0 1.63015,3.596045 1.63015,3.596045 0,0 -0.40757,32.520529 -0.40757,32.520529 0,0 1.71376,0 1.71376,0 0,0 0.19355,-24.375126 0.19355,-24.375126 0,0 0.078,-2.687047 0.078,-2.687047 0,0 0.0227,-5.133929 0.0227,-5.133929 z" />
      </g>
    </g>
  </g>
</svg>
