<svg xmlns="http://www.w3.org/2000/svg" viewBox="0 0 1579.69 198.11"><defs><style>.cls-1{fill:#2c72b0;fill-rule:evenodd;}.cls-2{fill:#9fd6fc;}</style></defs><title>Asset 8</title><g id="Layer_2" data-name="Layer 2"><g id="content"><path class="cls-1" d="M198.11.1V10.53H192.9V21h-5.21v5.22h0V36.59h-5.22V47h-5.21v5.22h0V62.66H125.12V47h5.22V36.59h5.21V26.17h5.21V10.53H146V.1H88.63V10.53H83.42V21H78.2V31.38H73v5.21h0V47H67.78V57.45H62.56V67.88H57.35V78.3H52.14V88.73H46.92V99.16H41.71v10.42H36.49v15.64H31.28v10.33H26.07V146H20.85v10.43H15.64v10.42H10.43v10.43H5.21V192.9H0v5.21H62.56V192.9h5.22V182.47H73V166.83H78.2V156.41h5.22v-5.22h0V146h5.21V130.34h5.21V119.91h57.35v10.43H146v10.42h-5.22v15.65h-5.21v10.42h-5.21v15.64h-5.22V192.9h-5.21v5.21h62.56V192.9h5.22V182.47h0v-5.21h5.21V166.83h5.21v-5.21h0V151.19h5.22V140.76h5.21V125.22h5.21V109.58H219V93.94h5.21V83.52h5.21V67.88h5.22V52.24h5.21V36.59H245V26.17h0V21h5.22V10.53h5.21V5.31h0V.1Zm26.07,26.07H219V36.59h-5.22V52.24h-5.21V67.88h-5.21V78.3h-5.22V93.94H192.9v15.64h-5.21V120h-5.22v15.54h-5.21v15.64h-5.21v10.43h-5.22v15.64h-5.21V166.83h0V156.41h5.21V146h5.22V130.34h5.21V114.7h5.21v-5.22h0v-5.21h5.22V93.84H78.2v15.64H73v10.43H67.78v10.43H62.56v10.42H57.35v10.43H52.14v15.64H46.92v10.43H41.71V161.62h5.21v-5.21h0V146h5.22V135.65h5.21V125.22h5.21V114.8h5.22V104.37H73V99.16h0V88.73H78.2V78.3h5.22V67.88h5.21V57.45h5.21V47h0V41.81h5.22V36.59h0V31.38h5.21V21H114.7v5.22h-5.22V36.59h-5.21V47H99.06V62.66H93.84v5.22h0v5.21H88.63V83.52H83.42v5.21H192.9V83.52h0V73.09h5.21V67.88h0V62.66h5.22V52.24h0v-5h5.21V36.59h0V31.27h5.21v-5.1h0V21h10.43Zm182.47,78.2h-5.21v20.85h-5.21V146H391v20.85H385.8v15.64h0v5.22h-5.21v10.42H354.52V182.47h5.21V161.62H365V140.76h5.21V125.22h5.21V104.37h5.22V83.52h5.21V62.66H391V41.81H385.8V36.59h0V31.38h-5.21V26.17H370.16V21H312.81v5.22H297.17v5.21H292v5.21h-5.22v5.22h-5.21V47h-5.21v5.22H271.1V67.88h-5.21V83.52h-5.21V93.94h0v5.22h-5.22V114.8h-5.21v15.64H245V146h-5.21v15.64h-5.21v15.64h-5.22V192.9h-5.21v5.21H198.11V192.9h5.22V177.26h5.21V161.62h5.21V146H219V130.44h5.21V114.8h5.21V99.16h5.22V83.52h5.21V67.88H245V52.24h5.22V41.81h5.21V36.59h5.22V31.38h5.21V26.17h5.21V21h5.22V15.74h10.42V10.53H292V5.31H307.6V.1h78.2V5.31h10.43v5.22h5.21v5.21h5.21V26.17h5.22v5.21h0v5.21h5.21v5.22h0V57.45h0v5.21h-5.21V83.52h-5.22v20.85ZM318,26.17v5.21H302.38v5.21h-5.21v5.22H292V47h-5.22v5.22h-5.21v5.21h-5.21V73.09H271.1V88.73h-5.21v15.64h-5.21v5.21H370.16v-5.21h0V99.16h5.21V78.3h5.22V57.45h5.21V47h-5.21V41.81h0V36.59h-5.22V31.38H365V26.17Zm41.71,31.28h-5.21V78.3h-5.21v5.22H297.17V73.09h5.21V57.45h5.22V52.24h52.13Zm-5.21,119.81h-5.21v20.85H323.24V177.26h5.21V156.41h5.21V140.76H276.32v10.43H271.1v15.64h-5.21v15.64h-5.21v15.64H234.61V182.47h5.21V166.83H245V151.19h5.22V135.55h5.21V120h5.22V114.8H370.16V120H365v5.21h0v10.43h-5.22v5.11h0v15.65h-5.21v20.85Zm219,0V146H474.43v-5.22h-5.21V120h5.21V93.94h5.21V73.09h0V67.88h5.22V52.24H589.13V41.81h0V36.59h0V31.38h5.21V15.74h0V5.31h0V.1H484.86V5.31H469.22v5.22H458.79v5.21h-5.21V21h-5.22v5.22h-5.21v5.21h-5.22v5.21h-5.21V47h-5.21V57.45h0V67.88h-5.22V88.73h-5.21V114.8h-5.21v20.75h-5.22v20.86h5.22v15.64h5.21v5.21h0v5.21h5.21v5.22h5.22v5.21h10.42v5.21H568.27V187.69h5.22v-5.22h0Zm-15.64,0H458.79v-5.21H443.15v-5.22h-5.22V156.41h0v-5.22h0V114.8h5.22V88.73h5.21V67.88h5.22V47h5.21V36.59H464V31.38h5.22V26.17h15.64V21H578.7v5.22H490.07v5.21H474.43v5.21h-5.21v5.22H464V52.24h-5.21V73.09h-5.21V93.94h-5.22V120h-5.21v41.61h5.21v5.21H464v5.22h93.85ZM719.46,5.31V21h0v5.22h0V52.24h-5.21V67.88H656.9V47h5.22V36.59h0V21h0V15.74h0V.1H610V10.53h-5.21V36.59h0V47h-5.22V93.94h-5.21v10.43h0V120h0v5.21h0v10.33h-5.21v36.5h-5.22v26.06h62.56V177.26h0v-36.5h5.21V120h62.56v36.4h0v5.21h0v36.49H771.6V109.58h-5.21V99.16h-5.22V93.94H756V88.73h5.21V83.52h5.22V73.09h5.21V.1H719.46Zm10.43,73h5.21V73.09h0V67.88h5.22V52.24h0V47h0V31.38h0V26.17h5.21V21h5.22V31.38h-5.22V73.09h-5.21V83.52H735.1v5.21H724.68v5.21h5.21v5.22h5.21v5.21h5.22v5.21h5.21v62.47h-5.21V161.62h0v-5.21h0V114.8H735.1v-5.22h-5.21v-5.21h-5.21V99.16h-5.22V93.94H630.83v5.22h-5.21v41.6h-5.21v36.5h-5.22V135.65h5.22V125.22h0V120h0V104.37h0V93.94h5.21V41.81h5.21V36.59h0V21h5.22V36.59h0V47h-5.22V88.73h88.63V83.52h10.43ZM964.5,151.19h-5.21V146H860.23v-5.22H849.8V52.24H855V47h93.84V41.81h0V36.59h0V.1H834.16V5.31H823.73v5.22H813.31v5.21h-5.22V21h-5.21V31.38h-5.21v5.21h0v5.22h-5.22v114.6h5.22v10.42h5.21v5.22h5.21v5.21h5.22v5.21h5.21v5.22h5.21v5.21h10.43v5.21H964.5V182.47h0v-5.21h0V166.83h0v-5.21h0v-5.21h0Zm-15.64,26.07H849.8v-5.21H834.16v-5.22H829v-5.21h-5.22V151.19h-5.21V36.59h5.21V31.38H829V26.17h10.43V21h93.84v5.22H844.59v5.21H834.16v5.21H829v5.22h-5.22V146H829v10.43h5.21v5.21h5.21v5.21H855v5.22h93.84ZM1173,.1H1120.9V5.31h0v5.22h0V26.17h0V36.59h0V67.88h-5.21V57.45h-5.21V52.24h0V41.81h-5.22V31.38h-5.21V21h-5.21V15.74h0V10.53h-5.22V.1h-52.13V15.74h0V21h-5.22v5.22h0V57.45h0v5.21h0v5.22h-5.21V52.24h-5.21V36.59h-5.22V31.38h0V26.17h0V21h-5.21V5.31h-5.21V.1H954.07V5.31h0V15.74h5.22V31.38h5.21v5.21h0V47h5.21V62.66h5.22V73.09h0V78.3h5.21V93.94h5.21v15.64h5.22v15.64h5.21v15.54H1001V146h0v5.21h0v5.22h5.22v15.64h5.21v10.42h5.21v15.64h62.57V161.62h0v-5.21h5.21V125.22h5.21V146h5.22v5.21h0v5.22h5.21v15.64h5.21v10.42h5.22v15.64H1173V120h0V114.8h0V104.37h0V99.16h0V93.94h0V88.73h0V10.53h0V5.31h0ZM1147,135.65V146h0v5.21h0v5.22h0v5.21h0v15.64h-15.64v-5.21h-5.21V156.41h-5.22V146h-5.21V130.44h-5.21V120h-5.22V104.37h-5.21V93.94h-5.21V83.52h-5.22V67.88h-5.21V57.45h-5.21V52.24h0V47h0V41.81H1074V31.38h-5.21V26.17h-5.21v5.21h0V41.81h0V47h0v5.22h0V62.66h0v5.22h0v5.21h0V78.3h0v5.22h-5.22V146h0v5.21h0v5.22h-5.21v20.85h-15.64V166.83h-5.22V156.41h0v-5.22h-5.21V135.55h-5.21V125.22h-5.22V109.58h-5.21V93.94h-5.21V78.3H1001V73.09h0V67.88h-5.21V52.24h-5.21V36.59h-5.22V21h5.22v5.22h0v5.21h5.21V47H1001V62.66h5.22V73.09h5.21V88.73h5.21v5.21h0v5.22h0v5.21h5.22V120h5.21v10.43h5.21v5.21h0V146h5.22v5.21h0v5.22h0v5.21h5.21v10.43h5.22V161.62h0v-5.21h0v-5.22h5.21V146h0V120h0V99.16h0V93.94h0V88.73h0V78.3h5.21V67.88h0V62.66h0V57.45h0V26.17h0V21H1074v5.22h5.22V36.59h5.21V52.24h5.21V62.66h5.22v5.22h0v5.21h0V78.3h5.21V88.73h5.21v15.64h5.22V114.8h5.21V120h0v5.21h5.21v15.54h5.22V146h0v5.21h5.21v15.64h5.21v5.22h5.22v-36.5h0v-5.11h0V114.8h0V104.37h0V99.16h0V93.94h0V73.09h0V57.45h0V47h0V41.81h0V15.74H1147V26.17h0V36.59h0V88.73h0v5.21h0v41.71Zm177.26-46.92h5.21V83.52h5.22V73.09h0V57.45h-5.22V52.24h0V47h-5.21V41.81H1319V36.59h-10.43V31.38H1293V26.17h-73v5.21h5.21v5.21h0V47h5.22V67.88h5.21V78.3h0V88.73h5.21v5.21h83.42Zm-15.64-26.07V73.09h-52.13V52.24h-5.22V47h46.92v5.22h5.22v5.21h5.21Zm88.63,125H1392v-5.22h-5.22v-5.21h-5.21v-5.21h-5.21v-5.22h-5.22v-5.21h-5.21V151.19h-5.21V146h-5.22v-5.22h-5.21v-5.21h-5.22V125.22h-5.21V120h5.21V114.8h5.22v-5.22h5.21v-5.21h5.22V99.16h5.21V93.94h0V88.73h0V57.45h-5.21V41.81h-5.22V36.59h-5.21V31.38h-5.22V26.17h-5.21V21h-10.43V15.74h-5.21V10.53H1313.8V5.31h-10.42V.1H1183.47V5.31h5.21V26.17h0v5.21h5.21V52.24h5.22V73.09h5.21V93.94h5.21v5.22h0v5.21h0V114.8h5.22V120h0v15.64H1220v5.11h0V146h0v5.21h5.21v5.22h0v5.21h0v10.43h5.22v26.06H1293V187.69h-5.21V177.26h0V166.83h-5.22v-5.21h0v-5.21h0v-5.22h0V146h-5.21V125.22h5.21v5.22h5.22v10.32H1293V146h5.21v5.21h5.22v5.22h5.21v5.21h5.21v5.21h0v5.22H1319v5.21h5.21v5.21h5.21v5.22h5.22v10.42h67.77V192.9h-5.21Zm-41.71-10.43h-10.43v-5.21h-5.21v-5.22h-5.21v-5.21h0v-5.21h-5.22v-5.22h-5.21V146H1319v-5.22h-5.22V130.44h-5.21v-5.22h-5.21V120h-5.22V114.8h0v-5.22H1293v-5.21h-5.21V99.16h-46.93v5.21h0v5.21H1246v20.86h5.21V146h5.22v5.21h0v15.64h5.21v10.43h-5.21v-5.21h-5.22V151.19H1246V135.55h-5.22V114.8h-5.21V93.94h-5.21V73.09h-5.22V52.24H1220V36.59h-5.21V21h83.41v5.22h15.64v5.21h10.43v5.21h5.21v5.22h5.22V52.24h5.21V88.73h-5.21v5.21h-5.22v5.22h-31.28v5.21h5.22V114.8h5.21V120h5.21v5.21H1319v10.43h5.21v5.11h5.21V146h5.22v5.21h5.21v10.43h5.21v5.21h5.22v5.22h5.21Zm224.18-10.43V146h-5.21v-5.22h0V130.44h-5.21v-5.22h0V120h-5.22V114.8h0v-5.22h-5.21V93.94h-5.21V83.52h-5.22V78.3h0V73.09h-5.21V62.66H1538V52.24h-5.21V41.81h-5.21V26.17h-5.22V15.74h-5.21V5.31h-5.21V.1h-52.14V5.31H1465V15.74h5.21V31.38h5.21V47h5.22V57.45h5.21V67.88h5.21V78.3h5.22V88.73h5.21V99.16h0v5.21h5.21V114.8h5.22V120h0v10.43h5.21v10.32h-5.21V146h-41.71v-5.22h-10.43V130.34h-5.21V119.91h-5.21V104.27h-5.22V99.06h0V93.84h-5.21V78.2h-5.22V67.78h-5.21V52.14h-5.21V36.49h-5.22V26.07h-5.21V10.43h-5.21V0h-52.14V15.64h5.22V26.07h0v5.21h5.21V41.71h5.21V62.56h5.22v5.22h0V78.2h5.21V88.63h5.21v15.64H1392V114.7h0v5.21h5.21v15.64h5.21V146h5.22v5.21h5.21v5.22h5.21v5.21h5.22v5.21h5.21v5.22h5.21v5.21h5.22v5.21h5.21v5.22h10.43v5.21H1465v5.21h93.84V192.9h5.21v-5.21h5.22v-5.22h5.21V172.05h5.21v-5.22ZM1553.63,146v20.85h-5.22v5.22h-5.21v5.21h-73v-5.21h-15.64v-5.22h-5.21v-5.21h-10.43V151.19h-5.22V146h-5.21V135.55h-5.21v-5.21h0v-5.22h0v-5.21h-5.22V109.48h-5.21V93.84h-5.21V78.2h-5.22V62.56h-5.21V52.14H1392V46.92h0V41.71h0V36.49h-5.22V26.07h0V20.85H1392v5.22h0v5.21h5.21V46.92h5.21V57.35h5.22V73h5.21V88.63h5.21v15.64h5.22V114.7h5.21v15.64h5.21v10.42h5.22V146h5.21v10.43h10.43v5.21h5.21v5.21h15.64v5.22H1538v-5.22h5.22v-5.21h5.21V146h-5.21v-5.22h0V130.44H1538V120h-5.21V104.37h-5.21V93.94h-5.22V83.52h-5.21V73.09h-5.21V62.66h-5.22V47h-5.21V36.59h-5.21V26.17h5.21v5.21h5.21V41.81h5.22V57.45h5.21V67.88h5.21V78.3h5.22V88.73h5.21V99.16H1538V114.8h5.22v10.42h5.21v15.54h5.22Z"/><rect class="cls-2" x="1240.85" y="99.97" width="46.92" height="1.98"/><polygon class="cls-2" points="1235.64 87.35 1329.48 87.35 1329.48 83.53 1334.69 83.53 1334.69 83.04 1235.64 83.04 1235.64 83.53 1235.64 87.35"/><polygon class="cls-2" points="1418.11 90.89 1418.11 93.86 1418.11 94.18 1444.18 94.18 1444.18 93.86 1438.96 93.86 1438.96 90.89 1418.11 90.89"/><polygon class="cls-2" points="1303.41 109.54 1303.41 109.6 1303.41 110.6 1350.33 110.6 1350.33 109.6 1355.55 109.6 1355.55 109.54 1303.41 109.54"/><rect class="cls-2" x="1423.32" y="109.54" width="26.07" height="1.06"/><path class="cls-2" d="M1334.69,80.78V73.11h0V57.46h-5.21V52.25h0V47h-5.21V41.82h-5.22V36.61h-10.42V31.4H1293V26.18h-73V31.4h5.21v5.21h0V47h5.21V67.89h5.22V78.32h0v2.46ZM1251.28,47h46.92v5.21h5.21v5.21h5.22V73.11h-52.14V52.25h-5.21Z"/><polygon class="cls-2" points="192.94 87.35 192.94 83.53 192.94 83.53 192.94 83.04 88.67 83.04 88.67 83.53 83.45 83.53 83.45 87.35 192.94 87.35"/><polygon class="cls-2" points="318.06 26.18 318.06 31.4 302.42 31.4 302.42 36.61 297.2 36.61 297.2 41.82 291.99 41.82 291.99 47.04 286.78 47.04 286.78 52.25 281.56 52.25 281.56 57.47 276.35 57.47 276.35 62.68 276.35 67.89 276.35 73.11 271.14 73.11 271.14 78.32 271.14 80.78 297.2 80.78 297.2 78.32 297.2 73.11 302.42 73.11 302.42 67.89 302.42 62.68 302.42 57.47 307.63 57.47 307.63 52.25 359.77 52.25 359.77 57.47 354.55 57.47 354.55 62.68 354.55 67.89 354.55 73.11 354.55 78.32 349.34 78.32 349.34 80.78 375.41 80.78 375.41 78.32 380.62 78.32 380.62 73.11 380.62 67.89 380.62 62.68 380.62 57.47 385.83 57.47 385.83 52.25 385.83 47.04 380.62 47.04 380.62 41.82 380.62 41.82 380.62 36.61 375.41 36.61 375.41 31.4 364.98 31.4 364.98 26.18 318.06 26.18"/><rect class="cls-2" x="78.24" y="99.97" width="109.48" height="1.98"/><polygon class="cls-2" points="271.14 87.35 375.41 87.35 375.41 83.53 375.41 83.04 349.34 83.04 349.34 83.53 297.2 83.53 297.2 83.04 271.14 83.04 271.14 83.53 271.14 87.35"/><polygon class="cls-2" points="1063.59 78.32 1063.59 80.78 1089.66 80.78 1089.66 78.32 1089.66 73.11 1089.66 67.89 1084.44 67.89 1084.44 62.68 1084.44 57.47 1079.23 57.47 1079.23 52.25 1079.23 52.25 1079.23 47.04 1079.23 47.04 1079.23 41.82 1074.02 41.82 1074.02 36.61 1074.02 31.4 1068.8 31.4 1068.8 26.18 1063.59 26.18 1063.59 31.4 1063.59 31.4 1063.59 36.61 1063.59 41.82 1063.59 41.82 1063.59 47.04 1063.59 47.04 1063.59 52.25 1063.59 52.25 1063.59 57.47 1063.59 62.68 1063.59 62.68 1063.59 67.89 1063.59 67.89 1063.59 73.11 1063.59 73.11 1063.59 78.32 1063.59 78.32"/><polygon class="cls-2" points="1058.38 83.53 1058.38 87.35 1094.87 87.35 1094.87 83.53 1089.66 83.53 1089.66 83.04 1063.59 83.04 1063.59 83.53 1058.38 83.53"/><polygon class="cls-2" points="818.56 90.89 792.49 90.89 792.49 93.96 792.49 94.18 818.56 94.18 818.56 93.96 818.56 90.89"/><polygon class="cls-2" points="443.18 90.89 417.12 90.89 417.12 93.96 417.12 94.18 443.18 94.18 443.18 93.96 443.18 90.89"/><polygon class="cls-2" points="406.69 90.89 380.62 90.89 380.62 93.96 380.62 94.18 406.69 94.18 406.69 93.96 406.69 90.89"/><polygon class="cls-2" points="479.68 93.96 479.68 90.89 453.61 90.89 453.61 93.96 448.4 93.96 448.4 94.18 474.46 94.18 474.46 93.96 479.68 93.96"/><polygon class="cls-2" points="625.66 93.96 625.66 90.89 599.59 90.89 599.59 93.96 594.38 93.96 594.38 94.18 620.44 94.18 620.44 93.96 625.66 93.96"/><polygon class="cls-2" points="375.41 90.89 265.92 90.89 265.92 93.96 265.92 94.18 375.41 94.18 375.41 93.96 375.41 90.89"/><rect class="cls-2" x="229.43" y="99.97" width="26.07" height="1.98"/><polygon class="cls-2" points="755.99 93.96 755.99 90.89 724.71 90.89 724.71 93.96 729.93 93.96 729.93 94.18 761.21 94.18 761.21 93.96 755.99 93.96"/><polygon class="cls-2" points="1053.16 93.96 1053.16 90.89 1016.67 90.89 1016.67 93.96 1016.67 93.96 1016.67 94.18 1053.16 94.18 1053.16 93.96 1053.16 93.96"/><polygon class="cls-2" points="1094.87 93.96 1094.87 90.89 1058.38 90.89 1058.38 93.96 1058.38 94.18 1100.09 94.18 1100.09 93.96 1094.87 93.96"/><polygon class="cls-2" points="1141.79 93.96 1141.79 90.89 1105.3 90.89 1105.3 93.96 1105.3 94.18 1141.79 94.18 1141.79 93.96 1141.79 93.96"/><polygon class="cls-2" points="849.84 90.89 823.77 90.89 823.77 93.96 823.77 94.18 849.84 94.18 849.84 93.96 849.84 90.89"/><polygon class="cls-2" points="255.5 109.54 229.43 109.54 229.43 109.6 229.43 110.6 255.5 110.6 255.5 109.6 255.5 109.54"/><polygon class="cls-2" points="1173.08 93.96 1173.08 90.89 1147.01 90.89 1147.01 93.96 1147.01 93.96 1147.01 94.18 1173.07 94.18 1173.07 93.96 1173.08 93.96"/><polygon class="cls-2" points="260.71 93.96 260.71 90.89 234.64 90.89 234.64 93.96 234.64 94.18 260.71 94.18 260.71 93.96 260.71 93.96"/><polygon class="cls-2" points="67.81 110.6 67.81 109.6 67.81 109.54 41.74 109.54 41.74 109.6 36.53 109.6 36.53 110.6 67.81 110.6"/><polygon class="cls-2" points="73.02 94.18 73.02 93.96 73.02 90.89 46.96 90.89 46.96 93.96 46.96 94.18 73.02 94.18"/><polygon class="cls-2" points="125.16 52.25 125.16 47.04 130.37 47.04 130.37 41.82 130.37 36.61 135.59 36.61 135.59 31.4 135.59 26.18 140.8 26.18 140.8 20.97 140.8 15.76 140.8 10.54 146.01 10.54 146.01 5.33 146.01 0.12 88.67 0.12 88.67 5.33 88.67 10.54 83.45 10.54 83.45 15.76 83.45 20.97 78.24 20.97 78.24 26.18 78.24 31.4 73.02 31.4 73.02 36.61 73.02 36.61 73.02 41.82 73.02 47.04 67.81 47.04 67.81 52.25 67.81 57.47 62.6 57.47 62.6 62.68 62.6 67.89 57.38 67.89 57.38 73.11 57.38 78.32 52.17 78.32 52.17 80.78 78.24 80.78 78.24 78.32 83.45 78.32 83.45 73.11 83.45 67.89 88.67 67.89 88.67 62.68 88.67 57.47 93.88 57.47 93.88 52.25 93.88 47.04 93.88 47.04 93.88 41.82 99.09 41.82 99.09 36.61 99.09 36.61 99.09 31.4 104.31 31.4 104.31 26.18 104.31 20.97 114.73 20.97 114.73 26.18 109.52 26.18 109.52 31.4 109.52 36.61 104.31 36.61 104.31 41.82 104.31 47.04 99.09 47.04 99.09 52.25 99.09 57.47 99.09 62.68 93.88 62.68 93.88 67.89 93.88 67.89 93.88 73.11 88.67 73.11 88.67 78.32 88.67 80.78 192.94 80.78 192.94 78.32 192.94 73.11 198.15 73.11 198.15 67.89 198.15 67.89 198.15 62.68 203.36 62.68 203.36 57.47 203.36 52.25 203.36 52.25 203.36 47.26 208.58 47.26 208.58 41.94 208.58 36.61 208.57 36.61 208.57 31.29 213.79 31.29 213.79 26.18 213.79 26.18 213.79 20.97 224.22 20.97 224.22 26.18 219 26.18 219 31.4 219 36.61 213.79 36.61 213.79 41.82 213.79 47.04 213.79 52.25 208.58 52.25 208.58 57.47 208.58 62.68 208.58 67.89 203.36 67.89 203.36 73.11 203.36 78.32 198.15 78.32 198.15 80.78 229.43 80.78 229.43 78.32 229.43 73.11 229.43 67.89 234.64 67.89 234.64 62.68 234.64 57.47 234.64 52.25 239.86 52.25 239.86 47.04 239.86 41.82 239.86 36.61 245.07 36.61 245.07 31.4 245.07 26.18 245.07 26.18 245.07 20.97 250.28 20.97 250.28 15.76 250.28 10.54 255.5 10.54 255.5 5.33 255.5 5.33 255.5 0.12 198.15 0.12 198.15 5.33 198.15 10.54 192.94 10.54 192.94 15.76 192.94 20.97 192.93 20.97 187.72 20.97 187.72 26.18 187.72 26.18 187.72 31.29 187.72 36.61 182.51 36.61 182.51 41.94 182.51 47.04 177.29 47.04 177.29 52.25 177.29 52.25 177.29 57.47 177.29 62.68 125.16 62.68 125.16 57.47 125.16 52.25"/><polygon class="cls-2" points="78.24 87.35 78.24 83.53 78.24 83.04 52.17 83.04 52.17 83.53 52.17 87.35 78.24 87.35"/><polygon class="cls-2" points="662.15 5.33 662.15 0.12 610.02 0.12 610.02 5.33 610.02 10.54 604.8 10.54 604.8 15.76 604.8 20.97 604.8 26.18 604.8 31.4 604.8 36.61 604.8 36.61 604.8 41.82 604.8 47.04 599.59 47.04 599.59 52.25 599.59 57.47 599.59 62.68 599.59 67.89 599.59 73.11 599.59 78.32 599.59 80.78 625.66 80.78 625.66 78.32 625.66 73.11 625.66 67.89 625.66 62.68 625.66 57.47 625.66 52.25 625.66 47.04 625.66 41.82 630.87 41.82 630.87 36.61 630.87 36.61 630.87 31.4 630.87 26.18 630.87 20.97 636.08 20.97 636.08 26.18 636.08 31.4 636.08 36.61 636.08 36.61 636.08 41.82 636.08 47.04 630.87 47.04 630.87 52.25 630.87 57.47 630.87 62.68 630.87 67.89 630.87 73.11 630.87 78.32 630.87 80.78 729.93 80.78 729.93 78.32 735.14 78.32 735.14 73.11 735.14 73.11 735.14 67.89 740.35 67.89 740.35 62.68 740.35 57.47 740.35 52.25 740.35 52.25 740.35 47.04 740.35 47.04 740.35 41.82 740.35 36.61 740.35 31.4 740.35 31.4 740.35 26.18 745.57 26.18 745.57 20.97 750.78 20.97 750.78 26.18 750.78 31.4 745.57 31.4 745.57 36.61 745.57 41.82 745.57 47.04 745.57 52.25 745.57 57.47 745.57 62.68 745.57 67.89 745.57 73.11 740.35 73.11 740.35 78.32 740.35 80.78 766.42 80.78 766.42 78.32 766.42 73.11 771.63 73.11 771.63 67.89 771.63 62.68 771.63 57.47 771.63 52.25 771.63 47.04 771.63 41.82 771.63 36.61 771.63 31.4 771.63 26.18 771.63 20.97 771.63 15.76 771.63 10.54 771.63 5.33 771.63 0.12 719.5 0.12 719.5 5.33 719.5 10.54 719.5 15.76 719.5 20.97 719.5 20.97 719.5 26.18 719.5 26.18 719.5 31.4 719.5 36.61 719.5 41.82 719.5 47.04 719.5 52.25 714.29 52.25 714.29 57.47 714.29 62.68 714.29 67.89 656.94 67.89 656.94 62.68 656.94 57.47 656.94 52.25 656.94 47.04 662.15 47.04 662.15 41.82 662.15 36.61 662.15 36.61 662.15 31.4 662.15 26.18 662.15 20.97 662.15 20.97 662.15 15.76 662.15 15.76 662.15 10.54 662.15 5.33"/><polygon class="cls-2" points="427.54 67.89 422.33 67.89 422.33 73.11 422.33 78.32 422.33 80.78 448.4 80.78 448.4 78.32 448.4 73.11 448.4 67.89 453.61 67.89 453.61 62.68 453.61 57.47 453.61 52.25 453.61 47.04 458.82 47.04 458.82 41.82 458.82 36.61 464.04 36.61 464.04 31.4 469.25 31.4 469.25 26.18 484.89 26.18 484.89 20.97 578.74 20.97 578.74 26.18 490.11 26.18 490.11 31.4 474.46 31.4 474.46 36.61 469.25 36.61 469.25 41.82 464.04 41.82 464.04 47.04 464.04 52.25 458.82 52.25 458.82 57.47 458.82 62.68 458.82 67.89 458.82 73.11 453.61 73.11 453.61 78.32 453.61 80.78 479.68 80.78 479.68 78.32 479.68 73.11 479.68 73.11 479.68 67.89 484.89 67.89 484.89 62.68 484.89 57.47 484.89 52.25 589.16 52.25 589.16 47.04 589.16 41.82 589.16 41.82 589.16 36.61 589.16 36.61 589.16 31.4 594.38 31.4 594.38 26.18 594.38 20.97 594.38 15.76 594.38 15.76 594.38 10.54 594.38 5.33 594.38 5.33 594.38 0.12 484.89 0.12 484.89 5.33 469.25 5.33 469.25 10.54 458.82 10.54 458.82 15.76 453.61 15.76 453.61 20.97 448.4 20.97 448.4 26.18 443.18 26.18 443.18 31.4 437.97 31.4 437.97 36.61 432.76 36.61 432.76 41.82 432.76 47.04 427.54 47.04 427.54 52.25 427.54 57.47 427.54 57.47 427.54 62.68 427.54 67.89"/><polygon class="cls-2" points="307.63 0.12 307.63 5.33 291.99 5.33 291.99 10.54 286.78 10.54 286.78 15.76 276.35 15.76 276.35 20.97 271.14 20.97 271.14 26.18 265.92 26.18 265.92 31.4 260.71 31.4 260.71 36.61 255.5 36.61 255.5 41.82 250.28 41.82 250.28 47.04 250.28 52.25 245.07 52.25 245.07 57.47 245.07 62.68 245.07 67.89 239.86 67.89 239.86 73.11 239.86 78.32 239.86 80.78 265.92 80.78 265.92 78.32 265.92 73.11 265.92 67.89 271.14 67.89 271.14 62.68 271.14 57.47 271.14 52.25 276.35 52.25 276.35 47.04 281.56 47.04 281.56 41.82 286.78 41.82 286.78 36.61 291.99 36.61 291.99 31.4 297.2 31.4 297.2 26.18 312.85 26.18 312.85 20.97 370.19 20.97 370.19 26.18 380.62 26.18 380.62 31.4 385.83 31.4 385.83 36.61 385.83 36.61 385.83 41.82 391.05 41.82 391.05 47.04 391.05 52.25 391.05 57.47 391.05 62.68 385.83 62.68 385.83 67.89 385.83 73.11 385.83 78.32 385.83 80.78 411.9 80.78 411.9 78.32 411.9 73.11 411.9 67.89 411.9 62.68 417.12 62.68 417.12 57.47 417.12 57.47 417.12 52.25 417.12 47.04 417.12 41.82 417.12 41.82 417.12 36.61 411.9 36.61 411.9 31.4 411.9 31.4 411.9 26.18 406.69 26.18 406.69 20.97 406.69 15.76 401.48 15.76 401.48 10.54 396.26 10.54 396.26 5.33 385.83 5.33 385.83 0.12 307.63 0.12"/><rect class="cls-2" x="73.02" y="109.54" width="109.48" height="1.06"/><polygon class="cls-2" points="792.49 41.82 792.49 47.04 792.49 52.25 792.49 57.47 792.49 62.68 792.49 67.89 792.49 73.11 792.49 78.32 792.49 80.78 818.56 80.78 818.56 78.32 818.56 73.11 818.56 67.89 818.56 62.68 818.56 57.47 818.56 52.25 818.56 47.04 818.56 41.82 818.56 36.61 823.77 36.61 823.77 31.4 828.98 31.4 828.98 26.18 839.41 26.18 839.41 20.97 933.25 20.97 933.25 26.18 844.62 26.18 844.62 31.4 839.41 31.4 834.2 31.4 834.2 36.61 828.98 36.61 828.98 41.82 823.77 41.82 823.77 47.04 823.77 52.25 823.77 57.47 823.77 62.68 823.77 67.89 823.77 73.11 823.77 78.32 823.77 80.78 849.84 80.78 849.84 78.32 849.84 73.11 849.84 67.89 849.84 62.68 849.84 57.47 849.84 52.25 855.05 52.25 855.05 47.04 948.89 47.04 948.89 41.82 948.89 41.82 948.89 36.61 948.89 36.61 948.89 31.4 948.89 26.18 948.89 20.97 948.89 15.76 948.89 10.54 948.89 5.33 948.89 0.12 834.2 0.12 834.2 5.33 823.77 5.33 823.77 10.54 813.34 10.54 813.34 15.76 808.13 15.76 808.13 20.97 802.91 20.97 802.91 26.18 802.91 31.4 797.7 31.4 797.7 36.61 797.7 36.61 797.7 41.82 792.49 41.82"/><polygon class="cls-2" points="1532.81 90.89 1532.81 93.96 1532.81 94.18 1558.87 94.18 1558.87 93.96 1553.66 93.96 1553.66 90.89 1532.81 90.89"/><polygon class="cls-2" points="1548.45 73.11 1543.23 73.11 1543.23 67.89 1543.23 62.68 1538.02 62.68 1538.02 57.47 1538.02 52.25 1532.81 52.25 1532.81 47.04 1532.81 41.82 1527.59 41.82 1527.59 36.61 1527.59 31.4 1527.59 26.18 1522.38 26.18 1522.38 20.97 1522.38 15.76 1517.17 15.76 1517.17 10.54 1517.17 5.33 1511.95 5.33 1511.95 0.12 1459.82 0.12 1459.82 5.33 1465.03 5.33 1465.03 10.54 1465.03 15.76 1470.24 15.76 1470.24 20.97 1470.24 26.18 1470.24 31.4 1475.46 31.4 1475.46 36.61 1475.46 41.82 1475.46 47.04 1480.67 47.04 1480.67 52.25 1480.67 57.47 1485.88 57.47 1485.88 62.68 1485.88 67.89 1491.1 67.89 1491.1 73.11 1491.1 78.32 1496.31 78.32 1496.31 80.78 1517.17 80.78 1517.17 78.32 1517.17 73.11 1511.95 73.11 1511.95 67.89 1511.95 62.68 1506.74 62.68 1506.74 57.47 1506.74 52.25 1506.74 47.04 1501.53 47.04 1501.53 41.82 1501.53 36.61 1496.31 36.61 1496.31 31.4 1496.31 26.18 1501.53 26.18 1501.53 31.4 1506.74 31.4 1506.74 36.61 1506.74 41.82 1511.95 41.82 1511.95 47.04 1511.95 52.25 1511.95 57.47 1517.17 57.47 1517.17 62.68 1517.17 67.89 1522.38 67.89 1522.38 73.11 1522.38 78.32 1527.59 78.32 1527.59 80.78 1548.45 80.78 1548.45 78.32 1548.45 78.32 1548.45 73.11"/><polygon class="cls-2" points="1527.59 83.04 1527.59 83.53 1527.59 87.35 1553.66 87.35 1553.66 83.53 1548.45 83.53 1548.45 83.04 1527.59 83.04"/><polygon class="cls-2" points="1173.07 109.54 1147.01 109.54 1147.01 109.6 1147.01 110.6 1173.07 110.6 1173.07 109.6 1173.07 109.54"/><polygon class="cls-2" points="1538.02 109.54 1538.02 109.6 1538.02 110.6 1564.09 110.6 1564.09 109.6 1558.87 109.6 1558.87 109.54 1538.02 109.54"/><polygon class="cls-2" points="1501.53 90.89 1501.53 93.96 1501.53 94.18 1527.59 94.18 1527.59 93.96 1522.38 93.96 1522.38 90.89 1501.53 90.89"/><rect class="cls-2" x="792.49" y="99.97" width="26.07" height="1.98"/><polygon class="cls-2" points="1006.24 80.78 1006.24 78.32 1001.03 78.32 1001.03 73.11 1001.03 73.11 1001.03 67.89 995.82 67.89 995.82 62.68 995.82 57.47 995.82 52.25 990.6 52.25 990.6 47.04 990.6 41.82 990.6 36.61 985.39 36.61 985.39 31.4 985.39 26.18 985.39 20.97 990.6 20.97 990.6 26.18 990.6 26.18 990.6 31.4 995.82 31.4 995.82 36.61 995.82 41.82 995.82 47.04 1001.03 47.04 1001.03 52.25 1001.03 57.47 1001.03 62.68 1006.24 62.68 1006.24 67.89 1006.24 73.11 1011.46 73.11 1011.46 78.32 1011.46 80.78 1053.16 80.78 1053.16 78.32 1058.38 78.32 1058.38 73.11 1058.38 67.89 1058.38 67.89 1058.38 62.68 1058.38 62.68 1058.38 57.47 1058.38 57.47 1058.38 52.25 1058.38 47.04 1058.38 41.82 1058.38 36.61 1058.38 31.4 1058.38 26.18 1058.38 26.18 1058.38 20.97 1074.02 20.97 1074.02 26.18 1079.23 26.18 1079.23 31.4 1079.23 36.61 1084.44 36.61 1084.44 41.82 1084.44 47.04 1084.44 52.25 1089.66 52.25 1089.66 57.47 1089.66 62.68 1094.87 62.68 1094.87 67.89 1094.87 67.89 1094.87 73.11 1094.87 73.11 1094.87 78.32 1100.09 78.32 1100.09 80.78 1141.79 80.78 1141.79 78.32 1141.79 73.11 1141.79 73.11 1141.79 67.89 1141.79 62.68 1141.79 57.47 1141.79 57.47 1141.79 52.25 1141.79 47.04 1141.79 47.04 1141.79 41.82 1141.79 41.82 1141.79 36.61 1141.79 31.4 1141.79 26.18 1141.79 20.97 1141.79 15.76 1147.01 15.76 1147.01 20.97 1147.01 26.18 1147.01 26.18 1147.01 31.4 1147.01 36.61 1147.01 36.61 1147.01 41.82 1147.01 47.04 1147.01 52.25 1147.01 57.47 1147.01 62.68 1147.01 67.89 1147.01 73.11 1147.01 78.32 1147.01 80.78 1173.07 80.78 1173.07 78.32 1173.07 73.11 1173.07 67.89 1173.07 62.68 1173.07 57.47 1173.07 52.25 1173.07 47.04 1173.07 41.82 1173.07 36.61 1173.07 31.4 1173.07 26.18 1173.07 20.97 1173.07 15.76 1173.07 10.54 1173.08 10.54 1173.08 5.33 1173.07 5.33 1173.07 0.12 1120.94 0.12 1120.94 5.33 1120.94 5.33 1120.94 10.54 1120.94 10.54 1120.94 15.76 1120.94 20.97 1120.94 26.18 1120.94 26.18 1120.94 31.4 1120.94 36.61 1120.94 36.61 1120.94 41.82 1120.94 47.04 1120.94 52.25 1120.94 57.47 1120.94 62.68 1120.94 67.89 1115.73 67.89 1115.73 62.68 1115.73 57.47 1110.51 57.47 1110.51 52.25 1110.51 52.25 1110.51 47.04 1110.51 41.82 1105.3 41.82 1105.3 36.61 1105.3 31.4 1100.09 31.4 1100.09 26.18 1100.09 20.97 1094.87 20.97 1094.87 15.76 1094.87 15.76 1094.87 10.54 1089.66 10.54 1089.66 5.33 1089.66 0.12 1037.52 0.12 1037.52 5.33 1037.52 10.54 1037.52 15.76 1037.52 15.76 1037.52 20.97 1032.31 20.97 1032.31 26.18 1032.31 26.18 1032.31 31.4 1032.31 36.61 1032.31 41.82 1032.31 47.04 1032.31 52.25 1032.31 57.47 1032.31 57.47 1032.31 62.68 1032.31 62.68 1032.31 67.89 1027.1 67.89 1027.1 62.68 1027.1 57.47 1027.1 52.25 1021.88 52.25 1021.88 47.04 1021.88 41.82 1021.88 36.61 1016.67 36.61 1016.67 31.4 1016.67 31.4 1016.67 26.18 1016.67 26.18 1016.67 20.97 1011.46 20.97 1011.46 15.76 1011.46 10.54 1011.46 5.33 1006.24 5.33 1006.24 0.12 954.11 0.12 954.11 5.33 954.11 5.33 954.11 10.54 954.11 15.76 959.32 15.76 959.32 20.97 959.32 26.18 959.32 31.4 964.53 31.4 964.53 36.61 964.53 36.61 964.53 41.82 964.53 47.04 969.75 47.04 969.75 52.25 969.75 57.47 969.75 62.68 974.96 62.68 974.96 67.89 974.96 73.11 974.96 73.11 974.96 78.32 980.17 78.32 980.17 80.78 1006.24 80.78"/><rect class="cls-2" x="735.14" y="99.97" width="31.28" height="1.98"/><rect class="cls-2" x="594.37" y="99.97" width="26.07" height="1.98"/><polygon class="cls-2" points="1021.88 109.54 1021.88 109.6 1021.88 110.6 1053.16 110.6 1053.16 109.6 1053.16 109.54 1021.88 109.54"/><rect class="cls-2" x="417.12" y="99.97" width="26.07" height="1.98"/><rect class="cls-2" x="823.77" y="99.97" width="26.07" height="1.98"/><polygon class="cls-2" points="1407.68 0.02 1355.55 0.02 1355.55 5.23 1355.55 10.44 1355.55 15.66 1360.76 15.66 1360.76 20.87 1360.76 26.08 1360.76 26.08 1360.76 31.3 1365.97 31.3 1365.97 36.51 1365.97 41.72 1371.19 41.72 1371.19 46.94 1371.19 52.15 1371.19 57.37 1371.19 62.58 1376.4 62.58 1376.4 67.79 1376.4 67.79 1376.4 73 1376.4 78.22 1381.62 78.22 1381.62 80.78 1407.68 80.78 1407.68 78.22 1402.47 78.22 1402.47 73 1402.47 67.79 1402.47 62.58 1397.26 62.58 1397.26 57.37 1397.26 52.15 1392.04 52.15 1392.04 46.94 1392.04 46.94 1392.04 41.72 1392.04 41.72 1392.04 36.51 1386.83 36.51 1386.83 31.3 1386.83 26.08 1386.83 26.08 1386.83 20.87 1392.04 20.87 1392.04 26.08 1392.04 26.08 1392.04 31.3 1397.26 31.3 1397.26 36.51 1397.26 41.72 1397.26 46.94 1402.47 46.94 1402.47 52.15 1402.47 57.37 1407.68 57.37 1407.68 62.58 1407.68 67.79 1407.68 73 1412.9 73 1412.9 78.22 1412.9 80.78 1438.96 80.78 1438.96 78.22 1433.75 78.22 1433.75 73 1433.75 67.79 1428.54 67.79 1428.54 62.58 1428.54 57.37 1428.54 52.15 1423.32 52.15 1423.32 46.94 1423.32 41.72 1423.32 36.51 1418.11 36.51 1418.11 31.3 1418.11 26.08 1412.9 26.08 1412.9 20.87 1412.9 15.66 1412.9 10.44 1407.68 10.44 1407.68 5.23 1407.68 0.02"/><polygon class="cls-2" points="1204.36 80.78 1230.42 80.78 1230.42 78.32 1230.42 73.11 1225.21 73.11 1225.21 67.89 1225.21 62.68 1225.21 57.47 1225.21 52.25 1220 52.25 1220 47.04 1220 41.82 1220 36.61 1214.78 36.61 1214.78 31.4 1214.78 26.18 1214.78 20.97 1298.2 20.97 1298.2 26.18 1313.84 26.18 1313.84 31.4 1324.27 31.4 1324.27 36.61 1329.48 36.61 1329.48 41.82 1334.69 41.82 1334.69 47.04 1334.69 52.25 1339.91 52.25 1339.91 57.47 1339.91 62.68 1339.91 67.89 1339.91 73.11 1339.91 78.32 1339.91 80.78 1365.97 80.78 1365.97 78.32 1365.97 73.11 1365.97 67.89 1365.97 62.68 1365.97 57.47 1360.76 57.47 1360.76 52.25 1360.76 47.04 1360.76 41.82 1355.55 41.82 1355.55 36.61 1350.33 36.61 1350.33 31.4 1345.12 31.4 1345.12 26.18 1339.91 26.18 1339.91 20.97 1329.48 20.97 1329.48 15.76 1324.27 15.76 1324.27 10.54 1313.84 10.54 1313.84 5.33 1303.41 5.33 1303.41 0.12 1183.5 0.12 1183.5 5.33 1188.71 5.33 1188.71 10.54 1188.71 15.76 1188.71 20.97 1188.71 26.18 1188.71 26.18 1188.71 31.4 1193.93 31.4 1193.93 36.61 1193.93 41.82 1193.93 47.04 1193.93 52.25 1199.14 52.25 1199.14 57.47 1199.14 62.68 1199.14 67.89 1199.14 73.11 1204.36 73.11 1204.36 78.32 1204.36 80.78"/><polygon class="cls-2" points="1496.31 83.04 1496.31 83.53 1496.31 87.35 1522.38 87.35 1522.38 83.53 1517.17 83.53 1517.17 83.04 1496.31 83.04"/><polygon class="cls-2" points="1110.51 109.54 1110.51 109.6 1110.51 110.6 1141.79 110.6 1141.79 109.6 1141.79 109.54 1110.51 109.54"/><polygon class="cls-2" points="1298.2 109.6 1292.98 109.6 1292.98 109.54 1240.85 109.54 1240.85 109.6 1246.06 109.6 1246.06 110.6 1298.2 110.6 1298.2 109.6"/><rect class="cls-2" x="380.62" y="99.97" width="26.07" height="1.98"/><polygon class="cls-2" points="1006.24 93.96 1006.24 90.89 980.17 90.89 980.17 93.96 985.39 93.96 985.39 94.18 1011.46 94.18 1011.46 93.96 1006.24 93.96"/><rect class="cls-2" x="1209.57" y="99.97" width="26.07" height="1.98"/><rect class="cls-2" x="1105.3" y="99.97" width="36.49" height="1.98"/><rect class="cls-2" x="1392.04" y="109.54" width="26.07" height="1.06"/><rect class="cls-2" x="1147.01" y="99.97" width="26.07" height="1.98"/><polygon class="cls-2" points="1412.9 83.43 1412.9 87.35 1438.96 87.35 1438.96 83.43 1438.96 83.04 1412.9 83.04 1412.9 83.43"/><polygon class="cls-2" points="1506.74 109.54 1506.74 109.6 1506.74 110.6 1532.81 110.6 1532.81 109.6 1532.81 109.54 1506.74 109.54"/><rect class="cls-2" x="1501.53" y="99.97" width="26.07" height="1.98"/><rect class="cls-2" x="985.39" y="99.97" width="26.07" height="1.98"/><rect class="cls-2" x="625.66" y="99.97" width="99.06" height="1.98"/><rect class="cls-2" x="448.4" y="99.97" width="26.07" height="1.98"/><rect class="cls-2" x="1058.38" y="99.97" width="41.71" height="1.98"/><rect class="cls-2" x="265.92" y="99.97" width="104.27" height="1.98"/><rect class="cls-2" x="41.74" y="99.97" width="31.28" height="1.98"/><rect class="cls-2" x="1016.67" y="99.97" width="36.49" height="1.98"/><polygon class="cls-2" points="474.46 109.54 448.4 109.54 448.4 109.6 448.4 110.6 474.46 110.6 474.46 109.6 474.46 109.54"/><polygon class="cls-2" points="1016.67 110.6 1016.67 109.6 1011.46 109.6 1011.46 109.54 985.39 109.54 985.39 109.6 990.6 109.6 990.6 110.6 1016.67 110.6"/><polygon class="cls-2" points="849.84 109.54 823.77 109.54 823.77 109.6 823.77 110.6 849.84 110.6 849.84 109.6 849.84 109.54"/><polygon class="cls-2" points="1105.3 109.6 1105.3 109.54 1058.38 109.54 1058.38 109.6 1058.38 110.6 1105.3 110.6 1105.3 109.6"/><polygon class="cls-2" points="1235.64 109.6 1235.64 109.54 1209.57 109.54 1209.57 109.6 1209.57 110.6 1235.64 110.6 1235.64 109.6"/><polygon class="cls-2" points="818.56 109.6 818.56 109.54 792.49 109.54 792.49 109.6 792.49 110.6 818.56 110.6 818.56 109.6"/><rect class="cls-2" x="1538.02" y="99.97" width="20.85" height="1.98"/><polygon class="cls-2" points="401.48 109.6 401.48 109.54 375.41 109.54 375.41 109.6 375.41 110.6 401.48 110.6 401.48 109.6"/><rect class="cls-2" x="260.71" y="109.54" width="109.48" height="0.06"/><polygon class="cls-2" points="443.18 109.6 443.18 109.54 417.12 109.54 417.12 109.6 417.12 110.6 443.18 110.6 443.18 109.6"/><polygon class="cls-2" points="213.79 109.6 219 109.6 219 109.54 192.94 109.54 192.94 109.6 187.72 109.6 187.72 110.6 213.79 110.6 213.79 109.6"/><polygon class="cls-2" points="735.14 109.6 729.93 109.6 729.93 109.54 625.66 109.54 625.66 109.6 625.66 110.6 735.14 110.6 735.14 109.6"/><polygon class="cls-2" points="771.63 110.6 771.63 109.6 766.42 109.6 766.42 109.54 740.35 109.54 740.35 109.6 745.57 109.6 745.57 110.6 771.63 110.6"/><polygon class="cls-2" points="620.44 109.6 620.44 109.54 594.38 109.54 594.38 109.6 594.38 110.6 620.44 110.6 620.44 109.6"/><polygon class="cls-2" points="1011.46 83.53 1011.46 87.35 1053.16 87.35 1053.16 83.53 1053.16 83.04 1011.46 83.04 1011.46 83.53"/><polygon class="cls-2" points="1339.91 83.53 1339.91 87.35 1365.97 87.35 1365.97 83.53 1365.97 83.04 1339.91 83.04 1339.91 83.53"/><polygon class="cls-2" points="1204.36 83.53 1204.36 87.35 1230.42 87.35 1230.42 83.53 1230.42 83.04 1204.36 83.04 1204.36 83.53"/><rect class="cls-2" x="1418.11" y="99.97" width="26.07" height="1.98"/><polygon class="cls-2" points="1381.62 83.04 1381.62 83.43 1381.62 87.35 1407.68 87.35 1407.68 83.43 1407.68 83.04 1381.62 83.04"/><polygon class="cls-2" points="1147.01 83.53 1147.01 87.35 1173.07 87.35 1173.07 83.53 1173.07 83.04 1147.01 83.04 1147.01 83.53"/><polygon class="cls-2" points="1100.09 83.53 1100.09 87.35 1141.79 87.35 1141.79 83.53 1141.79 83.04 1100.09 83.04 1100.09 83.53"/><rect class="cls-2" x="192.93" y="99.97" width="26.07" height="1.98"/><rect class="cls-2" x="1240.85" y="90.89" width="83.42" height="3.07"/><polygon class="cls-2" points="1235.64 94.18 1235.64 93.96 1230.42 93.96 1230.42 90.89 1204.36 90.89 1204.36 93.96 1209.57 93.96 1209.57 94.18 1235.64 94.18"/><polygon class="cls-2" points="1329.48 93.96 1329.48 94.18 1365.97 94.18 1365.97 93.96 1365.97 93.96 1365.97 90.89 1334.69 90.89 1334.69 93.96 1329.48 93.96"/><rect class="cls-2" x="630.87" y="93.96" width="88.63" height="0.22"/><rect class="cls-2" x="1298.2" y="99.97" width="62.56" height="1.98"/><rect class="cls-2" x="1386.83" y="99.97" width="26.07" height="1.98"/><polygon class="cls-2" points="1386.83 90.89 1386.83 93.86 1386.83 94.18 1412.9 94.18 1412.9 93.86 1407.68 93.86 1407.68 90.89 1386.83 90.89"/><polygon class="cls-2" points="239.86 83.53 234.64 83.53 234.64 87.35 260.71 87.35 260.71 83.53 265.92 83.53 265.92 83.04 239.86 83.04 239.86 83.53"/><polygon class="cls-2" points="980.17 83.53 980.17 87.35 1006.24 87.35 1006.24 83.53 1006.24 83.04 980.17 83.04 980.17 83.53"/><polygon class="cls-2" points="422.33 83.53 422.33 87.35 448.4 87.35 448.4 83.53 448.4 83.04 422.33 83.04 422.33 83.53"/><polygon class="cls-2" points="385.83 83.53 380.62 83.53 380.62 87.35 406.69 87.35 406.69 83.53 411.9 83.53 411.9 83.04 385.83 83.04 385.83 83.53"/><polygon class="cls-2" points="192.94 93.96 192.94 94.18 219 94.18 219 93.96 224.22 93.96 224.22 90.89 198.15 90.89 198.15 93.96 192.94 93.96"/><rect class="cls-2" x="78.24" y="93.86" width="109.48" height="0.32"/><polygon class="cls-2" points="198.15 83.53 198.15 87.35 224.22 87.35 224.22 83.53 229.43 83.53 229.43 83.04 198.15 83.04 198.15 83.53"/><polygon class="cls-2" points="792.49 83.53 792.49 87.35 818.56 87.35 818.56 83.53 818.56 83.04 792.49 83.04 792.49 83.53"/><polygon class="cls-2" points="740.35 83.53 735.14 83.53 735.14 87.35 761.21 87.35 761.21 83.53 766.42 83.53 766.42 83.04 740.35 83.04 740.35 83.53"/><polygon class="cls-2" points="453.61 83.53 453.61 87.35 479.68 87.35 479.68 83.53 479.68 83.04 453.61 83.04 453.61 83.53"/><polygon class="cls-2" points="823.77 83.53 823.77 87.35 849.84 87.35 849.84 83.53 849.84 83.04 823.77 83.04 823.77 83.53"/><polygon class="cls-2" points="599.59 83.53 599.59 87.35 625.66 87.35 625.66 83.53 625.66 83.04 599.59 83.04 599.59 83.53"/><polygon class="cls-2" points="630.87 83.53 630.87 87.35 719.5 87.35 719.5 83.53 729.93 83.53 729.93 83.04 630.87 83.04 630.87 83.53"/></g></g></svg>