<?xml version="1.0" encoding="UTF-8" standalone="no"?>
<!-- Created with Inkscape (http://www.inkscape.org/) -->

<svg
   xmlns:dc="http://purl.org/dc/elements/1.1/"
   xmlns:cc="http://creativecommons.org/ns#"
   xmlns:rdf="http://www.w3.org/1999/02/22-rdf-syntax-ns#"
   xmlns:svg="http://www.w3.org/2000/svg"
   xmlns="http://www.w3.org/2000/svg"
   xmlns:sodipodi="http://sodipodi.sourceforge.net/DTD/sodipodi-0.dtd"
   xmlns:inkscape="http://www.inkscape.org/namespaces/inkscape"
   width="116.41667mm"
   height="60.85416mm"
   viewBox="0 0 116.41667 60.85416"
   version="1.1"
   id="svg19051"
   inkscape:version="0.92.2 (5c3e80d, 2017-08-06)"
   sodipodi:docname="white button up.svg">
  <defs
     id="defs19045" />
  <sodipodi:namedview
     id="base"
     pagecolor="#ffffff"
     bordercolor="#666666"
     borderopacity="1.0"
     inkscape:pageopacity="0.0"
     inkscape:pageshadow="2"
     inkscape:zoom="0.98994949"
     inkscape:cx="386.80979"
     inkscape:cy="78.286603"
     inkscape:document-units="mm"
     inkscape:current-layer="layer1"
     showgrid="false"
     fit-margin-top="0"
     fit-margin-left="0"
     fit-margin-right="0"
     fit-margin-bottom="0"
     inkscape:window-width="1920"
     inkscape:window-height="1057"
     inkscape:window-x="1912"
     inkscape:window-y="112"
     inkscape:window-maximized="1" />
  <metadata
     id="metadata19048">
    <rdf:RDF>
      <cc:Work
         rdf:about="">
        <dc:format>image/svg+xml</dc:format>
        <dc:type
           rdf:resource="http://purl.org/dc/dcmitype/StillImage" />
        <dc:title></dc:title>
      </cc:Work>
    </rdf:RDF>
  </metadata>
  <g
     inkscape:label="Layer 1"
     inkscape:groupmode="layer"
     id="layer1"
     transform="translate(-44.601189,-125.96578)">
    <path
       inkscape:connector-curvature="0"
       style="display:inline;opacity:1;vector-effect:none;fill:#f7f7f7;fill-opacity:1;fill-rule:nonzero;stroke:none;stroke-width:4;stroke-linecap:round;stroke-linejoin:round;stroke-miterlimit:4;stroke-dasharray:none;stroke-dashoffset:0;stroke-opacity:1;paint-order:normal"
       d="m 81.642856,125.96578 v 2.64583 h -2.645834 -2.645833 -2.645833 -2.645834 v 2.64583 h -2.645833 -2.645833 -2.645834 v 2.64584 h -2.645833 v 2.64583 h -2.645833 v 2.64583 2.64584 2.64583 2.64583 h 2.645833 v 2.64584 h 2.645833 2.645834 v 2.64583 h 2.645833 2.645833 2.645834 v 2.64583 h 2.645833 2.645833 2.645834 2.645833 2.645833 2.645834 v 2.64584 h 2.645833 2.645833 2.645834 2.645834 2.64583 2.64584 2.64583 2.64583 2.64584 2.64583 v -2.64584 h 2.64583 2.64584 2.64583 2.64583 2.64584 2.64583 v -2.64583 h 2.64583 2.64584 2.64583 v -2.64583 h 2.64583 2.64584 v -2.64584 h 2.64583 v -2.64583 -2.64583 -2.64584 -2.64583 h -2.64583 v -2.64583 h -2.64584 v -2.64584 h -2.64583 -2.64583 -2.64584 v -2.64583 h -2.64583 -2.64583 -2.64584 -2.64583 v -2.64583 h -2.64583 -2.64584 -2.64583 -2.64583 -2.64584 -2.64583 -2.64583 -2.64584 -2.64583 -2.645834 -2.645834 -2.645833 -2.645833 -2.645834 -2.645833 z m 10.583333,5.29166 h 2.645833 2.645834 2.645834 2.64583 2.64584 2.64583 2.64583 2.64584 v 2.64584 h 2.64583 2.64583 2.64584 2.64583 2.64583 2.64584 v 2.64583 h 2.64583 2.64583 2.64584 v 2.64583 h 2.64583 2.64583 v 2.64584 2.64583 h -2.64583 -2.64583 -2.64584 v 2.64583 h -2.64583 -2.64583 -2.64584 -2.64583 v 2.64584 h -2.64583 -2.64584 -2.64583 -2.64583 -2.64584 -2.64583 -2.64583 -2.64584 -2.64583 -2.645834 -2.645834 -2.645833 -2.645833 -2.645834 -2.645833 -2.645833 v -2.64584 h -2.645834 -2.645833 -2.645833 -2.645834 v -2.64583 h -2.645833 -2.645833 -2.645834 v -2.64583 -2.64584 h 2.645834 2.645833 v -2.64583 h 2.645833 2.645834 2.645833 v -2.64583 h 2.645833 2.645834 2.645833 2.645833 2.645834 2.645833 z"
       id="rect932-05" />
    <path
       inkscape:connector-curvature="0"
       style="display:inline;opacity:1;vector-effect:none;fill:#e5e5e5;fill-opacity:1;fill-rule:nonzero;stroke:none;stroke-width:4;stroke-linecap:round;stroke-linejoin:round;stroke-miterlimit:4;stroke-dasharray:none;stroke-dashoffset:0;stroke-opacity:1;paint-order:normal"
       d="m 92.226189,131.25744 v 2.64584 h -2.645833 -2.645834 -2.645833 -2.645833 -2.645834 -2.645833 v 2.64583 h -2.645833 -2.645834 -2.645833 v 2.64583 h -2.645833 -2.645834 v 2.64584 2.64583 h 2.645834 2.645833 2.645833 v 2.64583 h 2.645834 2.645833 2.645833 2.645834 v 2.64584 h 2.645833 2.645833 2.645834 2.645833 2.645833 2.645834 2.645834 2.64583 2.64584 2.64583 2.64583 2.64584 2.64583 2.64583 2.64584 2.64583 v -2.64584 h 2.64583 2.64584 2.64583 2.64583 v -2.64583 h 2.64584 2.64583 2.64583 v -2.64583 -2.64584 h -2.64583 -2.64583 v -2.64583 h -2.64584 -2.64583 -2.64583 v -2.64583 h -2.64584 -2.64583 -2.64583 -2.64584 -2.64583 -2.64583 v -2.64584 h -2.64584 -2.64583 -2.64583 -2.64584 -2.64583 -2.645834 -2.645834 z"
       id="rect932-19-67-45" />
    <path
       inkscape:connector-curvature="0"
       style="display:inline;opacity:1;vector-effect:none;fill:#cacaca;fill-opacity:1;fill-rule:nonzero;stroke:none;stroke-width:4;stroke-linecap:round;stroke-linejoin:round;stroke-miterlimit:4;stroke-dasharray:none;stroke-dashoffset:0;stroke-opacity:1;paint-order:normal"
       d="m 57.830356,147.13244 v 2.64584 2.64583 2.64583 2.64584 2.64583 2.64583 h 2.645833 v 2.64584 h 2.645833 2.645834 v 2.64583 h 2.645833 2.645833 2.645834 v 2.64583 h 2.645833 2.645833 2.645834 2.645833 2.645833 2.645834 v 2.64584 h 2.645833 2.645833 2.645834 2.645834 2.64583 2.64584 2.64583 2.64583 2.64584 2.64583 v -2.64584 h 2.64583 2.64584 2.64583 2.64583 2.64584 2.64583 v -2.64583 h 2.64583 2.64584 2.64583 v -2.64583 h 2.64583 2.64584 v -2.64584 h 2.64583 v -2.64583 -2.64583 -2.64584 -2.64583 -2.64583 -2.64584 h -2.64583 v 2.64584 h -2.64584 -2.64583 v 2.64583 h -2.64583 -2.64584 -2.64583 v 2.64583 h -2.64583 -2.64584 -2.64583 -2.64583 -2.64584 -2.64583 v 2.64584 h -2.64583 -2.64584 -2.64583 -2.64583 -2.64584 -2.64583 -2.645834 -2.645834 -2.645833 -2.645833 v -2.64584 h -2.645834 -2.645833 -2.645833 -2.645834 -2.645833 -2.645833 v -2.64583 h -2.645834 -2.645833 -2.645833 v -2.64583 h -2.645834 -2.645833 v -2.64584 z"
       id="rect932-19-4-9-53" />
    <path
       inkscape:connector-curvature="0"
       style="display:inline;opacity:1;vector-effect:none;fill:#e5e5e5;fill-opacity:1;fill-rule:nonzero;stroke:none;stroke-width:4;stroke-linecap:round;stroke-linejoin:round;stroke-miterlimit:4;stroke-dasharray:none;stroke-dashoffset:0;stroke-opacity:1;paint-order:normal"
       d="m 55.184522,149.77828 v 2.64583 h -2.645833 v 2.64583 h -2.645833 -2.645834 v 2.64584 2.64583 h -2.645833 v 2.64583 2.64584 2.64583 h 2.645833 v 2.64583 2.64584 h 2.645834 v 2.64583 h 2.645833 2.645833 v 2.64583 h 2.645834 2.645833 v 2.64583 h 2.645833 2.645834 2.645833 v 2.64584 h 2.645833 2.645834 2.645833 2.645833 2.645834 2.645833 v 2.64583 h 2.645833 2.645834 2.645833 2.645833 2.645834 2.645834 2.64583 2.64584 2.64583 2.64583 2.64584 2.64583 2.64583 2.64584 v -2.64583 h 2.64583 2.64583 2.64584 2.64583 2.64583 2.64584 v -2.64584 h 2.64583 2.64583 2.64584 v -2.64583 h 2.64583 2.64583 v -2.64583 h 2.64584 2.64583 v -2.64583 h 2.64583 v -2.64584 -2.64583 h 2.64584 v -2.64583 -2.64584 -2.64583 h -2.64584 v -2.64583 -2.64584 h -2.64583 -2.64583 v -2.64583 h -2.64584 v -2.64583 h -2.64583 v 2.64583 2.64583 2.64584 2.64583 h 2.64583 v 2.64583 2.64584 h -2.64583 v 2.64583 h -2.64583 -2.64584 v 2.64583 h -2.64583 -2.64583 -2.64584 v 2.64584 h -2.64583 -2.64583 -2.64584 -2.64583 -2.64583 -2.64584 v 2.64583 h -2.64583 -2.64583 -2.64584 -2.64583 -2.64583 -2.64584 -2.64583 -2.645834 -2.645834 -2.645833 -2.645833 -2.645834 v -2.64583 h -2.645833 -2.645833 -2.645834 -2.645833 -2.645833 -2.645834 v -2.64584 h -2.645833 -2.645833 -2.645834 v -2.64583 h -2.645833 -2.645833 v -2.64583 h -2.645834 v -2.64584 -2.64583 h 2.645834 v -2.64583 -2.64584 -2.64583 -2.64583 z"
       id="rect932-19-4-9-470-1-7" />
  </g>
</svg>
