<?xml version="1.0" encoding="UTF-8" standalone="no"?>
<!-- Created with Inkscape (http://www.inkscape.org/) -->

<svg
   xmlns:dc="http://purl.org/dc/elements/1.1/"
   xmlns:cc="http://creativecommons.org/ns#"
   xmlns:rdf="http://www.w3.org/1999/02/22-rdf-syntax-ns#"
   xmlns:svg="http://www.w3.org/2000/svg"
   xmlns="http://www.w3.org/2000/svg"
   xmlns:xlink="http://www.w3.org/1999/xlink"
   xmlns:sodipodi="http://sodipodi.sourceforge.net/DTD/sodipodi-0.dtd"
   xmlns:inkscape="http://www.inkscape.org/namespaces/inkscape"
   width="191.5833mm"
   height="34.275276mm"
   viewBox="0 0 191.58329 34.275276"
   version="1.1"
   id="svg2703"
   inkscape:version="0.92.2 (5c3e80d, 2017-08-06)"
   sodipodi:docname="Subtitle 2020.svg">
  <defs
     id="defs2697">
    <linearGradient
       inkscape:collect="always"
       xlink:href="#linearGradient1114"
       id="linearGradient1116"
       x1="601.74567"
       y1="-246.49889"
       x2="616.4892"
       y2="-218.10507"
       gradientUnits="userSpaceOnUse" />
    <linearGradient
       inkscape:collect="always"
       id="linearGradient1114">
      <stop
         style="stop-color:#ffca25;stop-opacity:1"
         offset="0"
         id="stop1110" />
      <stop
         style="stop-color:#ff9519;stop-opacity:1"
         offset="1"
         id="stop1112" />
    </linearGradient>
    <linearGradient
       inkscape:collect="always"
       xlink:href="#linearGradient1114"
       id="linearGradient3306"
       gradientUnits="userSpaceOnUse"
       x1="601.74567"
       y1="-246.49889"
       x2="616.4892"
       y2="-218.10507" />
  </defs>
  <sodipodi:namedview
     id="base"
     pagecolor="#ffffff"
     bordercolor="#666666"
     borderopacity="1.0"
     inkscape:pageopacity="0.0"
     inkscape:pageshadow="2"
     inkscape:zoom="0.98994949"
     inkscape:cx="285.08149"
     inkscape:cy="169.17861"
     inkscape:document-units="mm"
     inkscape:current-layer="layer1"
     showgrid="false"
     fit-margin-top="0"
     fit-margin-left="0"
     fit-margin-right="0"
     fit-margin-bottom="0"
     inkscape:window-width="1920"
     inkscape:window-height="1057"
     inkscape:window-x="1592"
     inkscape:window-y="-8"
     inkscape:window-maximized="1" />
  <metadata
     id="metadata2700">
    <rdf:RDF>
      <cc:Work
         rdf:about="">
        <dc:format>image/svg+xml</dc:format>
        <dc:type
           rdf:resource="http://purl.org/dc/dcmitype/StillImage" />
        <dc:title />
      </cc:Work>
    </rdf:RDF>
  </metadata>
  <g
     inkscape:label="Layer 1"
     inkscape:groupmode="layer"
     id="layer1"
     transform="translate(-33.054162,-78.883706)">
    <g
       aria-label="2020"
       transform="matrix(1.2258683,0,-0.54661301,1.2258683,-712.88482,380.57612)"
       style="font-style:normal;font-variant:normal;font-weight:normal;font-stretch:normal;font-size:40px;line-height:1.25;font-family:Vegur;-inkscape-font-specification:'Vegur, Normal';font-variant-ligatures:normal;font-variant-caps:normal;font-variant-numeric:normal;font-feature-settings:normal;text-align:start;letter-spacing:0px;word-spacing:0px;writing-mode:lr-tb;text-anchor:start;fill:url(#linearGradient1116);fill-opacity:1;stroke:none;stroke-width:0.32629934;stroke-miterlimit:4;stroke-dasharray:none;stroke-opacity:1"
       id="flowRoot1102">
      <path
         d="m 580.02117,-237.54508 v 0.92 0.04 q 0,0.2 -0.04,0.44 0,0.24 -0.04,0.44 -0.08,0.2 -0.16,0.44 -0.04,0.2 -0.12,0.4 -0.16,0.4 -0.28,0.56 -0.08,0.16 -0.12,0.2 -0.6,0.92 -1.6,1.48 -0.96,0.52 -2.12,0.52 h -3.8 -0.16 q -1.12,0 -2.28,0.52 -0.92,0.36 -1.72,1.2 -0.08,0.04 -0.12,0.08 0,0.04 -0.08,0.12 -0.12,0.12 -0.16,0.2 -0.04,0.04 -0.04,0.04 l -0.08,0.08 q -0.04,0.04 -0.04,0.08 -0.36,0.44 -0.56,0.84 0,0.04 -0.04,0.08 0,0 0,0.08 -0.04,0.04 -0.04,0.08 0,0 -0.04,0.04 0,0.04 -0.04,0.08 0,0 0,0.04 -0.4,0.88 -0.44,1.68 -0.04,0.04 -0.04,0.12 v 0.32 0.16 0.92 4.04 h 5.88 3.8 5.76 v -0.88 h -5.76 -3.8 -4.96 v -3.16 -0.92 -0.04 q 0,-0.24 0,-0.48 0,-0.24 0.08,-0.48 0.04,-0.08 0.04,-0.12 0,-0.04 0.04,-0.12 0,-0.08 0,-0.12 0.04,-0.04 0.04,-0.12 0.04,-0.12 0.08,-0.2 0.04,-0.12 0.08,-0.24 0.08,-0.12 0.12,-0.2 0.04,-0.12 0.12,-0.24 0.16,-0.36 0.44,-0.68 0.68,-0.88 1.68,-1.4 1.04,-0.52 2.24,-0.52 h 3.8 q 1.16,0 2.2,-0.48 0.04,0 0.04,0 0.04,-0.04 0.08,-0.04 1.04,-0.48 1.84,-1.44 0.04,-0.08 0.08,-0.08 0.04,-0.04 0.08,-0.12 0.04,-0.08 0.16,-0.2 0.08,-0.16 0.16,-0.32 0.12,-0.16 0.2,-0.36 l 0.12,-0.24 q 0,-0.04 0.04,-0.04 0,-0.12 0.08,-0.2 0.28,-0.76 0.28,-1.36 0.04,-0.2 0.04,-0.52 v -0.92 q 0,-1.12 -0.44,-2.08 -0.4,-1 -1.16,-1.72 -0.72,-0.76 -1.72,-1.16 -0.96,-0.44 -2.08,-0.44 h -10.56 v 0.92 h 0.04 10.52 q 0.92,0 1.72,0.36 0.84,0.36 1.44,0.96 0.6,0.6 0.96,1.44 0.36,0.8 0.36,1.72 z m 4.08,0 v 0.92 q 0,1.76 -0.68,3.32 -0.68,1.56 -1.84,2.72 -1.16,1.16 -2.72,1.84 -1.56,0.68 -3.32,0.68 h -3.8 q -0.76,0 -1.28,0.52 -0.52,0.52 -0.52,1.28 v 0.92 h 1.8 4.76 5.84 1.64 v 7.2 h -8.44 -3.8 -9.04 v -7.2 -0.92 q 0,-1.84 0.68,-3.48 0.72,-1.64 1.96,-2.88 1.24,-1.24 2.88,-1.92 1.64,-0.72 3.52,-0.72 h 3.8 q 0.56,0 0.92,-0.4 0.4,-0.4 0.4,-0.96 v -0.92 q 0,-0.56 -0.4,-0.92 -0.36,-0.4 -0.92,-0.4 h -10.6 -2 v -7.24 h 12.6 q 1.76,0 3.32,0.68 1.56,0.68 2.72,1.84 1.16,1.16 1.84,2.72 0.68,1.56 0.68,3.32 z"
         style="font-style:normal;font-variant:normal;font-weight:normal;font-stretch:normal;font-size:40px;font-family:Games;-inkscape-font-specification:'Games, Normal';font-variant-ligatures:normal;font-variant-caps:normal;font-variant-numeric:normal;font-feature-settings:normal;text-align:start;writing-mode:lr-tb;text-anchor:start;fill:url(#linearGradient3306);fill-opacity:1;stroke:none;stroke-width:0.32629934;stroke-miterlimit:4;stroke-dasharray:none;stroke-opacity:1"
         id="path4502" />
      <path
         d="m 607.93492,-237.10508 v 9.92 q 0,1.88 -0.72,3.52 -0.68,1.6 -1.92,2.84 -1.24,1.24 -2.88,1.96 -1.64,0.68 -3.48,0.68 h -2.2 -1.56 q -1.88,0 -3.52,-0.68 -1.6,-0.72 -2.84,-1.96 -1.24,-1.24 -1.96,-2.84 -0.68,-1.64 -0.68,-3.52 v -9.92 q 0,-1.84 0.68,-3.48 0.72,-1.64 1.96,-2.88 1.24,-1.24 2.84,-1.92 1.64,-0.72 3.52,-0.72 h 1.56 2.2 q 1.84,0 3.48,0.72 1.64,0.68 2.88,1.92 1.24,1.24 1.92,2.88 0.72,1.64 0.72,3.48 z m -3.16,9.92 v -9.92 q 0,-5.88 -5.84,-5.88 h -2.2 -1.56 q -5.84,0 -5.84,5.88 v 9.92 q 0,5.84 5.84,5.84 h 1.56 2.2 q 5.84,0 5.84,-5.84 z m -0.92,-9.92 v 9.92 q 0,4.96 -4.92,4.96 h -2.2 -1.56 q -4.96,0 -4.96,-4.96 v -9.92 q 0,-4.96 4.96,-4.96 h 1.56 2.2 q 4.92,0 4.92,4.96 z m -3.12,9.92 v -9.92 q 0,-0.76 -0.52,-1.28 -0.52,-0.52 -1.28,-0.52 h -2.2 -1.56 q -0.76,0 -1.28,0.52 -0.52,0.52 -0.52,1.28 v 9.92 q 0,0.76 0.52,1.28 0.52,0.52 1.28,0.52 h 1.56 2.2 q 0.76,0 1.28,-0.52 0.52,-0.52 0.52,-1.28 z"
         style="font-style:normal;font-variant:normal;font-weight:normal;font-stretch:normal;font-size:40px;font-family:Games;-inkscape-font-specification:'Games, Normal';font-variant-ligatures:normal;font-variant-caps:normal;font-variant-numeric:normal;font-feature-settings:normal;text-align:start;writing-mode:lr-tb;text-anchor:start;fill:url(#linearGradient3306);fill-opacity:1;stroke:none;stroke-width:0.32629934;stroke-miterlimit:4;stroke-dasharray:none;stroke-opacity:1"
         id="path4504" />
      <path
         d="m 627.13055,-237.54508 v 0.92 0.04 q 0,0.2 -0.04,0.44 0,0.24 -0.04,0.44 -0.08,0.2 -0.16,0.44 -0.04,0.2 -0.12,0.4 -0.16,0.4 -0.28,0.56 -0.08,0.16 -0.12,0.2 -0.6,0.92 -1.6,1.48 -0.96,0.52 -2.12,0.52 h -3.8 -0.16 q -1.12,0 -2.28,0.52 -0.92,0.36 -1.72,1.2 -0.08,0.04 -0.12,0.08 0,0.04 -0.08,0.12 -0.12,0.12 -0.16,0.2 -0.04,0.04 -0.04,0.04 l -0.08,0.08 q -0.04,0.04 -0.04,0.08 -0.36,0.44 -0.56,0.84 0,0.04 -0.04,0.08 0,0 0,0.08 -0.04,0.04 -0.04,0.08 0,0 -0.04,0.04 0,0.04 -0.04,0.08 0,0 0,0.04 -0.4,0.88 -0.44,1.68 -0.04,0.04 -0.04,0.12 v 0.32 0.16 0.92 4.04 h 5.88 3.8 5.76 v -0.88 h -5.76 -3.8 -4.96 v -3.16 -0.92 -0.04 q 0,-0.24 0,-0.48 0,-0.24 0.08,-0.48 0.04,-0.08 0.04,-0.12 0,-0.04 0.04,-0.12 0,-0.08 0,-0.12 0.04,-0.04 0.04,-0.12 0.04,-0.12 0.08,-0.2 0.04,-0.12 0.08,-0.24 0.08,-0.12 0.12,-0.2 0.04,-0.12 0.12,-0.24 0.16,-0.36 0.44,-0.68 0.68,-0.88 1.68,-1.4 1.04,-0.52 2.24,-0.52 h 3.8 q 1.16,0 2.2,-0.48 0.04,0 0.04,0 0.04,-0.04 0.08,-0.04 1.04,-0.48 1.84,-1.44 0.04,-0.08 0.08,-0.08 0.04,-0.04 0.08,-0.12 0.04,-0.08 0.16,-0.2 0.08,-0.16 0.16,-0.32 0.12,-0.16 0.2,-0.36 l 0.12,-0.24 q 0,-0.04 0.04,-0.04 0,-0.12 0.08,-0.2 0.28,-0.76 0.28,-1.36 0.04,-0.2 0.04,-0.52 v -0.92 q 0,-1.12 -0.44,-2.08 -0.4,-1 -1.16,-1.72 -0.72,-0.76 -1.72,-1.16 -0.96,-0.44 -2.08,-0.44 h -10.56 v 0.92 h 0.04 10.52 q 0.92,0 1.72,0.36 0.84,0.36 1.44,0.96 0.6,0.6 0.96,1.44 0.36,0.8 0.36,1.72 z m 4.08,0 v 0.92 q 0,1.76 -0.68,3.32 -0.68,1.56 -1.84,2.72 -1.16,1.16 -2.72,1.84 -1.56,0.68 -3.32,0.68 h -3.8 q -0.76,0 -1.28,0.52 -0.52,0.52 -0.52,1.28 v 0.92 h 1.8 4.76 5.84 1.64 v 7.2 h -8.44 -3.8 -9.04 v -7.2 -0.92 q 0,-1.84 0.68,-3.48 0.72,-1.64 1.96,-2.88 1.24,-1.24 2.88,-1.92 1.64,-0.72 3.52,-0.72 h 3.8 q 0.56,0 0.92,-0.4 0.4,-0.4 0.4,-0.96 v -0.92 q 0,-0.56 -0.4,-0.92 -0.36,-0.4 -0.92,-0.4 h -10.6 -2 v -7.24 h 12.6 q 1.76,0 3.32,0.68 1.56,0.68 2.72,1.84 1.16,1.16 1.84,2.72 0.68,1.56 0.68,3.32 z"
         style="font-style:normal;font-variant:normal;font-weight:normal;font-stretch:normal;font-size:40px;font-family:Games;-inkscape-font-specification:'Games, Normal';font-variant-ligatures:normal;font-variant-caps:normal;font-variant-numeric:normal;font-feature-settings:normal;text-align:start;writing-mode:lr-tb;text-anchor:start;fill:url(#linearGradient3306);fill-opacity:1;stroke:none;stroke-width:0.32629934;stroke-miterlimit:4;stroke-dasharray:none;stroke-opacity:1"
         id="path4506" />
      <path
         d="m 655.0443,-237.10508 v 9.92 q 0,1.88 -0.72,3.52 -0.68,1.6 -1.92,2.84 -1.24,1.24 -2.88,1.96 -1.64,0.68 -3.48,0.68 h -2.2 -1.56 q -1.88,0 -3.52,-0.68 -1.6,-0.72 -2.84,-1.96 -1.24,-1.24 -1.96,-2.84 -0.68,-1.64 -0.68,-3.52 v -9.92 q 0,-1.84 0.68,-3.48 0.72,-1.64 1.96,-2.88 1.24,-1.24 2.84,-1.92 1.64,-0.72 3.52,-0.72 h 1.56 2.2 q 1.84,0 3.48,0.72 1.64,0.68 2.88,1.92 1.24,1.24 1.92,2.88 0.72,1.64 0.72,3.48 z m -3.16,9.92 v -9.92 q 0,-5.88 -5.84,-5.88 h -2.2 -1.56 q -5.84,0 -5.84,5.88 v 9.92 q 0,5.84 5.84,5.84 h 1.56 2.2 q 5.84,0 5.84,-5.84 z m -0.92,-9.92 v 9.92 q 0,4.96 -4.92,4.96 h -2.2 -1.56 q -4.96,0 -4.96,-4.96 v -9.92 q 0,-4.96 4.96,-4.96 h 1.56 2.2 q 4.92,0 4.92,4.96 z m -3.12,9.92 v -9.92 q 0,-0.76 -0.52,-1.28 -0.52,-0.52 -1.28,-0.52 h -2.2 -1.56 q -0.76,0 -1.28,0.52 -0.52,0.52 -0.52,1.28 v 9.92 q 0,0.76 0.52,1.28 0.52,0.52 1.28,0.52 h 1.56 2.2 q 0.76,0 1.28,-0.52 0.52,-0.52 0.52,-1.28 z"
         style="font-style:normal;font-variant:normal;font-weight:normal;font-stretch:normal;font-size:40px;font-family:Games;-inkscape-font-specification:'Games, Normal';font-variant-ligatures:normal;font-variant-caps:normal;font-variant-numeric:normal;font-feature-settings:normal;text-align:start;writing-mode:lr-tb;text-anchor:start;fill:url(#linearGradient3306);fill-opacity:1;stroke:none;stroke-width:0.32629934;stroke-miterlimit:4;stroke-dasharray:none;stroke-opacity:1"
         id="path4508" />
    </g>
    <rect
       style="opacity:1;vector-effect:none;fill:#ffca25;fill-opacity:1;fill-rule:nonzero;stroke:none;stroke-width:0.65415716;stroke-linecap:round;stroke-linejoin:round;stroke-miterlimit:4;stroke-dasharray:none;stroke-dashoffset:0;stroke-opacity:1;paint-order:normal"
       id="rect1689"
       width="71.200302"
       height="5.2894268"
       x="70.521988"
       y="86.713226"
       transform="matrix(1,0,-0.40724723,0.91331796,0,0)" />
    <rect
       style="opacity:1;vector-effect:none;fill:#ffca25;fill-opacity:1;fill-rule:nonzero;stroke:none;stroke-width:0.61534423;stroke-linecap:round;stroke-linejoin:round;stroke-miterlimit:4;stroke-dasharray:none;stroke-dashoffset:0;stroke-opacity:1;paint-order:normal"
       id="rect1689-9-7-3"
       width="63.001945"
       height="5.2894268"
       x="78.720352"
       y="97.292038"
       transform="matrix(1,0,-0.40724723,0.91331796,0,0)" />
    <rect
       style="opacity:1;vector-effect:none;fill:#ffca25;fill-opacity:1;fill-rule:nonzero;stroke:none;stroke-width:0.52712697;stroke-linecap:round;stroke-linejoin:round;stroke-miterlimit:4;stroke-dasharray:none;stroke-dashoffset:0;stroke-opacity:1;paint-order:normal"
       id="rect1689-9-7-3-5-5"
       width="46.232578"
       height="5.2894268"
       x="95.4897"
       y="118.44965"
       transform="matrix(1,0,-0.40724723,0.91331796,0,0)" />
    <rect
       style="opacity:1;vector-effect:none;fill:#ffca25;fill-opacity:1;fill-rule:nonzero;stroke:none;stroke-width:0.57488734;stroke-linecap:round;stroke-linejoin:round;stroke-miterlimit:4;stroke-dasharray:none;stroke-dashoffset:0;stroke-opacity:1;paint-order:normal"
       id="rect1689-9-7-3-8"
       width="54.989918"
       height="5.2894268"
       x="86.732376"
       y="107.87083"
       transform="matrix(1,0,-0.40724723,0.91331796,0,0)" />
  </g>
</svg>
